<svg width="48" height="48" viewBox="0 0 48 48" xmlns="http://www.w3.org/2000/svg">
    <g fill-rule="nonzero" fill="none">
        <path d="M24.218 48c3.938 0 7.817-.967 11.302-2.817l-.73-1.393c-9.074 4.822-20.228 2.898-27.196-4.69C.627 31.512-.417 20.151 5.05 11.401l-1.322-.841a24.595 24.595 0 0 0-.714 24.816C7.275 43.163 15.397 47.998 24.218 48zM23.783 1.576c8.251.002 15.85 4.525 19.836 11.808a23.006 23.006 0 0 1-.667 23.215l1.321.841C50.116 28.087 49 15.943 41.551 7.832 34.103-.279 22.18-2.336 12.48 2.818l.73 1.393a22.553 22.553 0 0 1 10.573-2.635z" fill="#F1BB0C"/>
        <path d="M37.2 44.16h4.32a.72.72 0 0 0 .72-.72v-4.32a.72.72 0 0 0-.72-.72H37.2a.72.72 0 0 0-.72.72v4.32a.72.72 0 0 0 .72.72zm.72-4.32h2.88v2.88h-2.88v-2.88zM6.48 9.6h4.32a.72.72 0 0 0 .72-.72V4.56a.72.72 0 0 0-.72-.72H6.48a.72.72 0 0 0-.72.72v4.32a.72.72 0 0 0 .72.72zm.72-4.32h2.88v2.88H7.2V5.28zM23.27 10.885c.241-.22.61-.22.852 0l1.937 1.763a15.761 15.761 0 0 0 4.721 2.95l4.574 1.85a.636.636 0 0 1 .393.664l-.429 3.706c-.787 6.806-4.82 12.882-11.065 16.671l-.228.139a.635.635 0 0 1-.658 0l-.23-.139c-6.243-3.789-10.276-9.865-11.064-16.671l-.429-3.706a.636.636 0 0 1 .393-.664l4.574-1.85a15.761 15.761 0 0 0 4.721-2.95zm.426 1.33-1.511 1.375a17.024 17.024 0 0 1-5.1 3.188l-4.125 1.669.373 3.224c.738 6.377 4.513 12.081 10.363 15.668 5.85-3.587 9.624-9.292 10.362-15.668l.373-3.224-4.125-1.669a17.024 17.024 0 0 1-5.1-3.188l-1.51-1.374zm-2.723 15.616v1.556h-1.555V27.83h1.555zm7.778 0v1.556h-4.667V27.83h4.667zm-7.778-3.111v1.556h-1.555V24.72h1.555zm7.778 0v1.556h-4.667V24.72h4.667zm-7.778-4.667v1.556h-1.555v-1.556h1.555zm7.778 0v1.556h-4.667v-1.556h4.667z" fill="#FFF"/>
    </g>
</svg>
