<?xml version="1.0" encoding="UTF-8"?>
<svg width="48px" height="48px" viewBox="0 0 48 48" version="1.1" xmlns="http://www.w3.org/2000/svg" xmlns:xlink="http://www.w3.org/1999/xlink">
    <title>time</title>
    <g id="MAIN" stroke="none" stroke-width="1" fill="none" fill-rule="evenodd">
        <g id="01.Main" transform="translate(-392.000000, -903.000000)" fill-rule="nonzero">
            <g id="#CONTENT" transform="translate(338.000000, 792.000000)">
                <g id="--benefits" transform="translate(24.000000, 0.000000)">
                    <g id="time" transform="translate(30.000000, 111.000000)">
                        <path d="M24.2175988,48 C28.1559155,47.9994009 32.0349488,47.0326807 35.52,45.183252 L34.7891446,43.7902568 C25.715985,48.6120995 14.5618075,46.688382 7.59417265,39.1000462 C0.626537797,31.5117104 -0.417104953,20.1509836 5.04966991,11.4014871 L3.72831945,10.56 C-0.973360714,18.0840711 -1.24692495,27.5901623 3.01415771,35.3764261 C7.27524038,43.16269 15.3973544,47.9982309 24.2175988,48 L24.2175988,48 Z" id="Path" fill="#F1BB0C"></path>
                        <path d="M23.7828566,1.57614093 C32.0341602,1.57767496 39.6324482,6.10084662 43.6188726,13.3842884 C47.605297,20.6677302 47.3496786,29.5600661 42.9515576,36.5985329 L44.2729613,37.44 C50.1158916,28.086922 48.9995977,15.9434946 41.5512479,7.83226854 C34.1028981,-0.278957538 22.1795062,-2.33570104 12.48,2.81757972 L13.2108849,4.21054181 C16.4706503,2.48060084 20.0990446,1.57645111 23.7828566,1.57614093 Z" id="Path" fill="#F1BB0C"></path>
                        <path d="M37.2,44.16 L41.52,44.16 C41.7109711,44.16 41.8941348,44.0842087 42.0291718,43.9491718 C42.1642087,43.8141348 42.24,43.6309711 42.24,43.44 L42.24,39.12 C42.24,38.9290289 42.1642087,38.7458652 42.0291718,38.6108283 C41.8941348,38.4757913 41.7109711,38.4 41.52,38.4 L37.2,38.4 C37.0090289,38.4 36.8258652,38.4757913 36.6908283,38.6108283 C36.5557913,38.7458652 36.48,38.9290289 36.48,39.12 L36.48,43.44 C36.48,43.6309711 36.5557913,43.8141348 36.6908283,43.9491718 C36.8258652,44.0842087 37.0090289,44.16 37.2,44.16 L37.2,44.16 Z M37.92,39.84 L40.8,39.84 L40.8,42.72 L37.92,42.72 L37.92,39.84 Z" id="Shape" fill="#FFFFFF"></path>
                        <path d="M6.48000002,9.60000005 L10.8,9.60000005 C10.9909711,9.60000005 11.1741348,9.52420872 11.3091718,9.38917176 C11.4442087,9.2541348 11.52,9.07097112 11.52,8.88000002 L11.52,4.56000002 C11.52,4.36902893 11.4442087,4.18586525 11.3091718,4.05082829 C11.1741348,3.91579133 10.9909711,3.84 10.8,3.84 L6.48000002,3.84 C6.28902893,3.84 6.10586525,3.91579133 5.97082829,4.05082829 C5.83579133,4.18586525 5.76,4.36902893 5.76,4.56000002 L5.76,8.88000002 C5.76,9.07097112 5.83579133,9.2541348 5.97082829,9.38917176 C6.10586525,9.52420872 6.28902893,9.60000005 6.48000002,9.60000005 L6.48000002,9.60000005 Z M7.20000002,5.28000002 L10.08,5.28000002 L10.08,8.16000002 L7.20000002,8.16000002 L7.20000002,5.28000002 Z" id="Shape" fill="#FFFFFF"></path>
                        <g id="back-in-time" transform="translate(10.000000, 10.000000)" fill="#FFFFFF">
                            <path d="M14,0 C14.5702898,0 15.1444052,0.0346491365 15.706552,0.10296368 C16.0062069,0.139361669 16.2195668,0.41185472 16.1831142,0.711454983 C16.1467162,1.0111099 15.8738406,1.22419662 15.5746229,1.18801724 C15.0560882,1.1250039 14.5263499,1.0930327 14,1.0930327 C6.8830455,1.0930327 1.0930327,6.8830455 1.0930327,14 C1.0930327,21.1169545 6.8830455,26.9069673 14,26.9069673 C21.1169545,26.9069673 26.9069673,21.1169545 26.9069673,14 C26.9069673,11.1984479 26.0055979,8.50483277 24.347358,6.28482871 L24.347358,6.88616064 C24.347358,7.18794697 24.102628,7.43267699 23.8008416,7.43267699 C23.4990553,7.43267699 23.2543253,7.18794697 23.2543253,6.88616064 L23.2543253,4.80939852 C23.2543253,4.50761219 23.4990553,4.26288217 23.8008416,4.26288217 L25.8776038,4.26288217 C26.1793901,4.26288217 26.4241201,4.50761219 26.4241201,4.80939852 C26.4241201,5.11118485 26.1793901,5.35591487 25.8776038,5.35591487 L25.0124684,5.35591487 C26.94577,7.81491053 28,10.84436 28,14 C28,17.7395381 26.5437525,21.2552778 23.8994878,23.8994878 C21.2552778,26.5437525 17.7395381,28 14,28 C10.2604619,28 6.74472221,26.5437525 4.10051216,23.8994878 C1.45624746,21.2552778 0,17.7395381 0,14 C0,10.2604619 1.45624746,6.74472221 4.10051216,4.10051216 C6.74472221,1.45624746 10.2604619,0 14,0 Z M8.44045314,5.16277599 C10.4101527,3.9212548 12.7773883,3.37326286 15.1056572,3.62001499 C17.4689032,3.87031948 19.6975422,4.93537054 21.3811952,6.6189688 C25.4511571,10.6888761 25.4511571,17.3112333 21.3811952,21.3811952 C19.3461869,23.4162034 16.6731754,24.4336529 14.0000547,24.4336529 C11.3269339,24.4336529 8.65386777,23.4161488 6.61891415,21.3811952 C4.93269261,19.694919 3.86725899,17.4626183 3.61886731,15.0954374 C3.37408263,12.7628509 3.92639206,10.3930468 5.17403423,8.4225274 C5.33552981,8.16763218 5.67311296,8.09166641 5.92817214,8.25310734 C6.18317667,8.41460292 6.25897848,8.75224072 6.09759221,9.0072999 C3.78222104,12.6640408 4.32655133,17.5429562 7.39185222,20.6082571 C11.035586,24.2521002 16.9645233,24.2521002 20.6082571,20.6082571 C24.2520455,16.9644686 24.2520455,11.0356407 20.6082571,7.39185222 C17.5,4.28359514 12.7361809,3.74729865 9.02325817,6.08748165 C8.76792574,6.24837607 8.43045189,6.17191843 8.26950283,5.91653134 C8.10860841,5.6611989 8.18506605,5.32372506 8.44045314,5.16277599 Z M13.9911464,20.5582508 C14.2929328,20.5582508 14.5376628,20.8029809 14.5376628,21.1047672 L14.5376628,21.7787311 C14.5376628,22.0805175 14.2929328,22.3252475 13.9911464,22.3252475 C13.6893601,22.3252475 13.4446301,22.0805175 13.4446301,21.7787311 L13.4446301,21.1047672 C13.4446301,20.8029262 13.6893601,20.5582508 13.9911464,20.5582508 Z M18.6244027,8.60265919 C18.8379267,8.38929921 19.1838715,8.38929921 19.3973408,8.60265919 C19.6107554,8.81612848 19.6107554,9.16218263 19.3973408,9.37559726 L15.6600981,13.11284 C15.8019737,13.3773539 15.8827488,13.6794135 15.8827488,14 C15.8827488,15.0381625 15.0381625,15.8827488 14,15.8827488 C12.9618375,15.8827488 12.1172512,15.0381625 12.1172512,14 C12.1172512,13.6794135 12.1979716,13.3773539 12.3399019,13.11284 L10.4877034,11.2606415 C10.2742887,11.0471722 10.2742887,10.701118 10.4877034,10.4877034 C10.7012273,10.2743434 11.0471722,10.2743434 11.2606415,10.4877034 L13.11284,12.3399019 C13.3773539,12.1980263 13.6794135,12.1172512 14,12.1172512 C14.3205865,12.1172512 14.6226461,12.1979716 14.88716,12.3399019 Z M14,13.2102839 C13.5645358,13.2102839 13.2102839,13.5645358 13.2102839,14 C13.2102839,14.4354642 13.5645358,14.7897161 14,14.7897161 C14.4354642,14.7897161 14.7897161,14.4354642 14.7897161,14 C14.7897161,13.5645358 14.4354642,13.2102839 14,13.2102839 Z M21.7787311,13.4623372 C22.0805175,13.4623372 22.3252475,13.7070672 22.3252475,14.0088536 C22.3252475,14.3106399 22.0805175,14.5553699 21.7787311,14.5553699 L21.1047672,14.5553699 C20.8029262,14.5553699 20.5582508,14.3106399 20.5582508,14.0088536 C20.5582508,13.7070672 20.8029809,13.4623372 21.1047672,13.4623372 Z M6.89523282,13.4446301 C7.19701914,13.4446301 7.44174916,13.6893601 7.44174916,13.9911464 C7.44174916,14.2929328 7.19701914,14.5376628 6.89523282,14.5376628 L6.22126885,14.5376628 C5.91948253,14.5376628 5.67475251,14.2929328 5.67475251,13.9911464 C5.67475251,13.6893055 5.91948253,13.4446301 6.22126885,13.4446301 Z M7.00513725,6.45862091 C7.14936292,6.45862091 7.28987227,6.51715281 7.39152431,6.6187502 C7.49372287,6.72094875 7.55214547,6.86140345 7.55214547,7.00513725 C7.55214547,7.14887105 7.49372287,7.28987227 7.39152431,7.39152431 C7.28987227,7.4931217 7.14936292,7.5516536 7.00513725,7.5516536 C6.86140345,7.5516536 6.72040224,7.4931217 6.6187502,7.39152431 C6.51709815,7.28987227 6.45862091,7.14941757 6.45862091,7.00513725 C6.45862091,6.86140345 6.51715281,6.72040224 6.6187502,6.6187502 C6.72040224,6.51709815 6.86140345,6.45862091 7.00513725,6.45862091 Z M14.0088536,5.67475251 C14.3106399,5.67475251 14.5553699,5.91948253 14.5553699,6.22126885 L14.5553699,6.89523282 C14.5553699,7.19701914 14.3106399,7.44174916 14.0088536,7.44174916 C13.7070672,7.44174916 13.4623372,7.19701914 13.4623372,6.89523282 L13.4623372,6.22126885 C13.4623372,5.91948253 13.7070672,5.67475251 14.0088536,5.67475251 Z M17.7857187,0.539848849 C17.9300537,0.539848849 18.0710549,0.59838075 18.1726523,0.699978139 C18.274359,0.80163018 18.3328363,0.942631398 18.3328363,1.0863652 C18.3328363,1.23059086 18.2743044,1.37110022 18.1726523,1.47275226 C18.0710549,1.57489616 17.9300537,1.63288155 17.7857187,1.63288155 C17.6419849,1.63288155 17.5009837,1.57489616 17.3993863,1.47275226 C17.2976796,1.37110022 17.2392024,1.23064551 17.2392024,1.0863652 C17.2392024,0.942631398 17.2977343,0.80163018 17.3993863,0.699978139 C17.5009837,0.598326098 17.6419849,0.539848849 17.7857187,0.539848849 Z" id="Combined-Shape"></path>
                        </g>
                    </g>
                </g>
            </g>
        </g>
    </g>
</svg>