<?xml version="1.0" encoding="UTF-8"?>
<svg width="48px" height="48px" viewBox="0 0 48 48" version="1.1" xmlns="http://www.w3.org/2000/svg" xmlns:xlink="http://www.w3.org/1999/xlink">
    <title>perfection</title>
    <g id="MAIN" stroke="none" stroke-width="1" fill="none" fill-rule="evenodd">
        <g id="01.Main" transform="translate(-800.000000, -903.000000)" fill-rule="nonzero">
            <g id="#CONTENT" transform="translate(338.000000, 792.000000)">
                <g id="--benefits" transform="translate(24.000000, 0.000000)">
                    <g id="perfection" transform="translate(438.000000, 111.000000)">
                        <path d="M24.2175988,48 C28.1559155,47.9994009 32.0349488,47.0326807 35.52,45.183252 L34.7891446,43.7902568 C25.715985,48.6120995 14.5618075,46.688382 7.59417265,39.1000462 C0.626537797,31.5117104 -0.417104953,20.1509836 5.04966991,11.4014871 L3.72831945,10.56 C-0.973360714,18.0840711 -1.24692495,27.5901623 3.01415771,35.3764261 C7.27524038,43.16269 15.3973544,47.9982309 24.2175988,48 L24.2175988,48 Z" id="Path" fill="#F1BB0C"></path>
                        <path d="M23.7828566,1.57614093 C32.0341602,1.57767496 39.6324482,6.10084662 43.6188726,13.3842884 C47.605297,20.6677302 47.3496786,29.5600661 42.9515576,36.5985329 L44.2729613,37.44 C50.1158916,28.086922 48.9995977,15.9434946 41.5512479,7.83226854 C34.1028981,-0.278957538 22.1795062,-2.33570104 12.48,2.81757972 L13.2108849,4.21054181 C16.4706503,2.48060084 20.0990446,1.57645111 23.7828566,1.57614093 Z" id="Path" fill="#F1BB0C"></path>
                        <path d="M37.2,44.16 L41.52,44.16 C41.7109711,44.16 41.8941348,44.0842087 42.0291718,43.9491718 C42.1642087,43.8141348 42.24,43.6309711 42.24,43.44 L42.24,39.12 C42.24,38.9290289 42.1642087,38.7458652 42.0291718,38.6108283 C41.8941348,38.4757913 41.7109711,38.4 41.52,38.4 L37.2,38.4 C37.0090289,38.4 36.8258652,38.4757913 36.6908283,38.6108283 C36.5557913,38.7458652 36.48,38.9290289 36.48,39.12 L36.48,43.44 C36.48,43.6309711 36.5557913,43.8141348 36.6908283,43.9491718 C36.8258652,44.0842087 37.0090289,44.16 37.2,44.16 L37.2,44.16 Z M37.92,39.84 L40.8,39.84 L40.8,42.72 L37.92,42.72 L37.92,39.84 Z" id="Shape" fill="#FFFFFF"></path>
                        <path d="M6.48000002,9.60000005 L10.8,9.60000005 C10.9909711,9.60000005 11.1741348,9.52420872 11.3091718,9.38917176 C11.4442087,9.2541348 11.52,9.07097112 11.52,8.88000002 L11.52,4.56000002 C11.52,4.36902893 11.4442087,4.18586525 11.3091718,4.05082829 C11.1741348,3.91579133 10.9909711,3.84 10.8,3.84 L6.48000002,3.84 C6.28902893,3.84 6.10586525,3.91579133 5.97082829,4.05082829 C5.83579133,4.18586525 5.76,4.36902893 5.76,4.56000002 L5.76,8.88000002 C5.76,9.07097112 5.83579133,9.2541348 5.97082829,9.38917176 C6.10586525,9.52420872 6.28902893,9.60000005 6.48000002,9.60000005 L6.48000002,9.60000005 Z M7.20000002,5.28000002 L10.08,5.28000002 L10.08,8.16000002 L7.20000002,8.16000002 L7.20000002,5.28000002 Z" id="Shape" fill="#FFFFFF"></path>
                        <path d="M26.2635904,19.5420416 C26.1978275,19.5420416 26.131818,19.5262585 26.0714806,19.4942813 L23.7695336,18.2765996 L21.4675866,19.4942813 C21.1716537,19.6507148 20.8138215,19.3918557 20.870131,19.0618905 L21.3103312,16.4793005 L19.4459539,14.6506817 C19.2076457,14.4169769 19.3441036,13.9988073 19.6743154,13.9504716 L22.2486851,13.5740614 L23.4003573,11.2258338 C23.547995,10.9247221 23.9909079,10.9247221 24.1385455,11.2258338 L25.2902177,13.5740614 L27.8645874,13.9504716 C28.1947992,13.9987251 28.3312571,14.4169769 28.0929489,14.6506817 L26.2285716,16.4793005 L26.6687718,19.0618905 C26.709627,19.3003631 26.507324,19.5420416 26.2635904,19.5420416 L26.2635904,19.5420416 Z M23.7695336,17.4004738 C23.8356253,17.4004738 23.9016348,17.4163391 23.9617256,17.4482341 L25.7181696,18.3773812 L25.3820391,16.4054817 C25.3594331,16.2727229 25.4032477,16.1372514 25.4994259,16.0429639 L26.925658,14.6441055 L24.9570466,14.3563107 C24.8229726,14.3367463 24.7070655,14.252241 24.6474679,14.1305797 L23.7695336,12.3404322 L22.8915171,14.1304975 C22.8318373,14.2521588 22.7160125,14.336664 22.5819384,14.3562285 L20.613327,14.6440232 L22.0395592,16.0428816 C22.1357374,16.1371692 22.1795519,16.2726407 22.1569459,16.4053995 L21.8208154,18.377299 L23.5772594,17.4481519 C23.6374325,17.4164213 23.7034419,17.4004738 23.7695336,17.4004738 Z M38.5893602,21.9791313 C38.5235974,21.9791313 38.4575879,21.9633482 38.3972505,21.931371 L36.0953035,20.7136893 L33.7933565,21.931371 C33.4974236,22.0878044 33.1395914,21.8289454 33.1959009,21.4989802 L33.6361011,18.9163901 L31.7717238,17.0877714 C31.5334156,16.8540666 31.6698735,16.435897 32.0000853,16.3875613 L34.574455,16.0111511 L35.7261272,13.6629235 C35.8737648,13.3618117 36.3166777,13.3618117 36.4643154,13.6629235 L37.6159876,16.0111511 L40.1903573,16.3875613 C40.5205691,16.4358148 40.657027,16.8540666 40.4187188,17.0877714 L38.5543415,18.9163901 L38.9945417,21.4989802 C39.0353147,21.7373706 38.8330939,21.9791313 38.5893602,21.9791313 L38.5893602,21.9791313 Z M36.0953035,19.8375635 C36.1613952,19.8375635 36.2274046,19.8534288 36.2874955,19.8853238 L38.0439395,20.8144709 L37.707809,18.8425713 C37.685203,18.7098125 37.7290175,18.574341 37.8251957,18.4800535 L39.2514279,17.0811951 L37.2828165,16.7934004 C37.1487424,16.7738359 37.0328354,16.6893306 36.9732378,16.5676693 L36.0952213,14.7776041 L35.2172048,16.5676693 C35.157525,16.6893306 35.0417001,16.7738359 34.9076261,16.7934004 L32.9390147,17.0811951 L34.3652468,18.4800535 C34.461425,18.574341 34.5052396,18.7098125 34.4826336,18.8425713 L34.1465031,20.8144709 L35.9029471,19.8853238 C35.9632023,19.8534288 36.0292118,19.8375635 36.0953035,19.8375635 L36.0953035,19.8375635 Z M13.9379027,21.9791313 C13.8721398,21.9791313 13.8061304,21.9633482 13.7457929,21.931371 L11.443846,20.7136893 L9.14189897,21.931371 C8.84596607,22.0878044 8.48813387,21.8289454 8.54444332,21.4989802 L8.98464352,18.9163901 L7.12026622,17.0877714 C6.88195803,16.8540666 7.01841598,16.435897 7.34862778,16.3875613 L9.92299743,16.0111511 L11.0746697,13.6629235 C11.2223073,13.3618117 11.6652202,13.3618117 11.8128578,13.6629235 L12.9645301,16.0111511 L15.5388997,16.3875613 C15.8691115,16.4358148 16.0055695,16.8540666 15.7672613,17.0877714 L13.902884,18.9163901 L14.3430842,21.4989802 C14.3838572,21.7374528 14.1816363,21.9791313 13.9379027,21.9791313 Z M11.4437637,19.8375635 C11.5098554,19.8375635 11.5758649,19.8534288 11.6359557,19.8853238 L13.3923997,20.8144709 L13.0562693,18.8425713 C13.0336633,18.7098125 13.0774778,18.574341 13.173656,18.4800535 L14.5998882,17.0811951 L12.6312767,16.7934004 C12.4972027,16.7738359 12.3812956,16.6893306 12.321698,16.5676693 L11.4437637,14.7775219 L10.5658295,16.5675871 C10.5061497,16.6892484 10.3903248,16.7737537 10.2562508,16.7933182 L8.28763932,17.0811129 L9.71387152,18.4799713 C9.81004971,18.5742588 9.85386422,18.7097303 9.83125823,18.8424891 L9.49512778,20.8143887 L11.2515718,19.8852416 C11.3117448,19.8534288 11.3776721,19.8375635 11.4437637,19.8375635 Z M33.2476891,27.5090486 L29.8068937,22.8951258 C29.7292935,22.7910561 29.6072212,22.7298144 29.4773395,22.7298144 L18.0616455,22.7298144 C17.9318461,22.7298144 17.8096915,22.7911383 17.7320914,22.8951258 L14.2912959,27.5090486 C14.1770329,27.6621939 14.1833626,27.8739503 14.3067502,28.0199439 L23.4554337,38.8541297 C23.6648063,39.0486234 23.874261,39.0486234 24.0836335,38.8541297 L33.232317,28.0199439 C33.3556224,27.8739503 33.3619521,27.6622761 33.2476891,27.5090486 Z M25.3467738,23.5519325 L27.383121,27.3437372 L20.1559462,27.3437372 L22.1922934,23.5519325 L25.3467738,23.5519325 Z M18.2678943,23.5519325 L21.2589539,23.5519325 L19.222689,27.3437372 L15.4401732,27.3437372 L18.2678943,23.5519325 Z M15.5060183,28.1658553 L19.1894787,28.1658553 L22.4574822,36.398051 L15.5060183,28.1658553 Z M23.7695336,37.4748358 L20.0739893,28.1658553 L27.4649958,28.1658553 L23.7695336,37.4748358 Z M25.081585,36.398051 L28.3495885,28.1658553 L32.033049,28.1658553 L25.081585,36.398051 Z M28.3163783,27.3437372 L26.2801133,23.5519325 L29.2711729,23.5519325 L32.098894,27.3437372 L28.3163783,27.3437372 Z" id="Combined-Shape" fill="#FFFFFF"></path>
                    </g>
                </g>
            </g>
        </g>
    </g>
</svg>