<svg width="48" height="48" viewBox="0 0 48 48" xmlns="http://www.w3.org/2000/svg">
    <g fill-rule="nonzero" fill="none">
        <path d="M24.218 48c3.938 0 7.817-.967 11.302-2.817l-.73-1.393c-9.074 4.822-20.228 2.898-27.196-4.69C.627 31.512-.417 20.151 5.05 11.401l-1.322-.841a24.595 24.595 0 0 0-.714 24.816C7.275 43.163 15.397 47.998 24.218 48zM23.783 1.576c8.251.002 15.85 4.525 19.836 11.808a23.006 23.006 0 0 1-.667 23.215l1.321.841C50.116 28.087 49 15.943 41.551 7.832 34.103-.279 22.18-2.336 12.48 2.818l.73 1.393a22.553 22.553 0 0 1 10.573-2.635z" fill="#F1BB0C"/>
        <path d="M37.2 44.16h4.32a.72.72 0 0 0 .72-.72v-4.32a.72.72 0 0 0-.72-.72H37.2a.72.72 0 0 0-.72.72v4.32a.72.72 0 0 0 .72.72zm.72-4.32h2.88v2.88h-2.88v-2.88zM6.48 9.6h4.32a.72.72 0 0 0 .72-.72V4.56a.72.72 0 0 0-.72-.72H6.48a.72.72 0 0 0-.72.72v4.32a.72.72 0 0 0 .72.72zm.72-4.32h2.88v2.88H7.2V5.28z" fill="#FFF"/>
        <g fill="#FFF">
            <path d="M17.23 34.373v-3.912h-5.186v3.912h.791v-3.12h3.604v3.12zM23.384 34.373V24.307h-5.186v10.066h.79V25.1h3.605v9.274zM29.538 34.373v-16.22h-5.187v16.22h.792V18.945h3.604v15.428zM30.505 12v22.373h.791V12.791h3.605v21.582h.79V12zM12.044 35.209h23.648v1H12.044zM12 24.307h1v1h-1zM14.051 24.307h1v1h-1zM16.103 24.307h1v1h-1zM12 18.153h1v1h-1zM14.051 18.153h1v1h-1zM16.103 18.153h1v1h-1zM18.153 18.153h1v1h-1zM20.205 18.153h1v1h-1zM22.256 18.153h1v1h-1zM12 12h1v1h-1zM14.051 12h1v1h-1zM16.103 12h1v1h-1zM18.153 12h1v1h-1zM20.205 12h1v1h-1zM22.256 12h1v1h-1zM24.308 12h1v1h-1zM26.359 12h1v1h-1zM28.409 12h1v1h-1z"/>
        </g>
    </g>
</svg>
