<svg width="48" height="48" viewBox="0 0 48 48" xmlns="http://www.w3.org/2000/svg">
    <g fill-rule="nonzero" fill="none">
        <path d="M24.218 48c3.938 0 7.817-.967 11.302-2.817l-.73-1.393c-9.074 4.822-20.228 2.898-27.196-4.69C.627 31.512-.417 20.151 5.05 11.401l-1.322-.841a24.595 24.595 0 0 0-.714 24.816C7.275 43.163 15.397 47.998 24.218 48zM23.783 1.576c8.251.002 15.85 4.525 19.836 11.808a23.006 23.006 0 0 1-.667 23.215l1.321.841C50.116 28.087 49 15.943 41.551 7.832 34.103-.279 22.18-2.336 12.48 2.818l.73 1.393a22.553 22.553 0 0 1 10.573-2.635z" fill="#F1BB0C"/>
        <path d="M37.2 44.16h4.32a.72.72 0 0 0 .72-.72v-4.32a.72.72 0 0 0-.72-.72H37.2a.72.72 0 0 0-.72.72v4.32a.72.72 0 0 0 .72.72zm.72-4.32h2.88v2.88h-2.88v-2.88zM6.48 9.6h4.32a.72.72 0 0 0 .72-.72V4.56a.72.72 0 0 0-.72-.72H6.48a.72.72 0 0 0-.72.72v4.32a.72.72 0 0 0 .72.72zm.72-4.32h2.88v2.88H7.2V5.28z" fill="#FFF"/>
        <g fill="#FFF">
            <path d="M22.226 34.903H18.87a.42.42 0 0 0 0 .839h3.355a.42.42 0 0 0 0-.839z"/>
            <path d="M36.694 18.968h-8.597v-6.5A1.47 1.47 0 0 0 26.629 11H14.468A1.47 1.47 0 0 0 13 12.468v23.064c0 .81.658 1.467 1.468 1.468h12.161a1.47 1.47 0 0 0 1.468-1.468v-6.08h8.597a1.47 1.47 0 0 0 1.467-1.468v-7.549a1.47 1.47 0 0 0-1.467-1.467zm-14.167-7.13-.21.84H18.78l-.21-.84h3.958zm4.731 23.694a.63.63 0 0 1-.629.63H14.468a.63.63 0 0 1-.63-.63V12.468a.63.63 0 0 1 .63-.63h3.237l.34 1.36a.42.42 0 0 0 .407.318h4.193a.42.42 0 0 0 .407-.318l.34-1.36h3.237a.63.63 0 0 1 .63.63v23.064zm.839-10.274h1.258v1.677h-1.258v-1.677zm9.226 2.726a.63.63 0 0 1-.63.629h-8.596v-.839h1.677a.42.42 0 0 0 .42-.42V24.84a.42.42 0 0 0-.42-.42h-1.677v-1.258h9.226v4.823zm0-5.661h-9.226v-.84h9.226v.84zm0-1.678h-9.226v-.839h8.597a.63.63 0 0 1 .629.63v.21z"/>
            <path d="M36.065 24.42H32.29a.42.42 0 0 0 0 .838h3.775a.42.42 0 1 0 0-.839zM36.065 25.677H32.29a.42.42 0 1 0 0 .84h3.775a.42.42 0 1 0 0-.84zM36.065 26.935h-1.678a.42.42 0 1 0 0 .84h1.678a.42.42 0 1 0 0-.84zM20.548 18.968a5.032 5.032 0 1 0 0 10.064 5.032 5.032 0 0 0 0-10.064zm0 9.226a4.194 4.194 0 1 1 0-8.388 4.194 4.194 0 0 1 0 8.388z"/>
            <path d="m22.768 22.445-2.678 2.679-1.387-1.04a.42.42 0 1 0-.503.67l1.677 1.259a.42.42 0 0 0 .549-.039l2.935-2.936a.42.42 0 1 0-.593-.593z"/>
        </g>
    </g>
</svg>
