<svg xmlns="http://www.w3.org/2000/svg" xmlns:xlink="http://www.w3.org/1999/xlink" width="44" height="44" viewBox="0 0 44 44"><defs><rect id="a" width="20" height="20" x="21" y="22" rx="2"/></defs><g fill="none" fill-rule="evenodd" transform="translate(1 1)"><path fill="#F1BB0C" fill-rule="nonzero" d="M21,-0.5 C9.12587788,-0.5 -0.5,9.12587788 -0.5,21 C-0.5,32.8741221 9.12587788,42.5 21,42.5 C32.8741221,42.5 42.5,32.8741221 42.5,21 C42.5,9.12587788 32.8741221,-0.5 21,-0.5 Z M21,0.5 C32.3218374,0.5 41.5,9.67816262 41.5,21 C41.5,32.3218374 32.3218374,41.5 21,41.5 C9.67816262,41.5 0.5,32.3218374 0.5,21 C0.5,9.67816262 9.67816262,0.5 21,0.5 Z"/><path fill="#FFF" fill-rule="nonzero" d="M24.2322123,17.7180124 L24.2322123,15.0546584 L30.3978495,15.0546584 L30.3978495,11 L13.6122169,11 L13.6122169,15.0546584 L19.777854,15.0546584 L19.777854,17.7180124 C14.7698467,17.9465839 11,18.9254658 11,20.0981366 C11,21.2708075 14.7698467,22.2496894 19.777854,22.4782609 L19.777854,31 L24.2372455,31 L24.2372455,22.4782609 C29.2402196,22.2496894 33,21.2708075 33,20.0981366 C32.9949668,18.9254658 29.2351865,17.9465839 24.2322123,17.7180124 Z M24.2427307,21.9526316 C24.1163085,21.9578947 23.4690265,22 22.022756,22 C20.8647282,22 20.0556258,21.9684211 19.7673831,21.9526316 L19.7673831,21.9578947 C15.3223767,21.7526316 12,20.9473684 12,19.9842105 C12,19.0210526 15.3173198,18.2157895 19.7673831,18.0105263 L19.7673831,21.1473684 C20.0606827,21.1684211 20.8900126,21.2210526 22.0429836,21.2210526 C23.4235145,21.2210526 24.1163085,21.1631579 24.2477876,21.1473684 L24.2477876,18 C28.687737,18.2052632 32,19.0105263 32,19.9736842 C31.9898862,20.9368421 28.6776233,21.7421053 24.2427307,21.9526316"/><mask id="b" fill="#fff"><use xlink:href="#a"/></mask><use xlink:href="#a" fill="#F1BB0C"/><g fill="#161619" fill-rule="nonzero" mask="url(#b)"><g transform="translate(24 25)"><path d="M4.281088,5.88294 L6.999888,3.16421 L9.720088,5.88434 L11.302088,4.30234 L6.999888,0 L2.699158,4.30094 L4.281088,5.88294 M0,6.999783 L1.582049,5.417734 L3.163993,6.999685 L1.581958,8.58172 L0,6.999783 Z M4.281088,8.11706 L6.999888,10.83579 L9.720018,8.11573 L11.302858,9.69689 L11.302088,9.69773 L6.999888,14 L2.699018,9.6992 L2.696778,9.69696 L4.281088,8.11706 M10.836049,7.000651 L12.418098,5.418609 L14.000042,7.000553 L12.418,8.582602 L10.836049,7.000651 Z"/><polyline points="8.604 6.999 8.605 6.999 7 5.394 5.814 6.58 5.813 6.58 5.677 6.717 5.396 6.998 5.394 7 5.396 7.002 7 8.606 8.605 7.001 8.606 7 8.604 6.999"/></g></g></g></svg>