<?xml version="1.0" encoding="utf-8"?>
<svg width="57px" height="48px" viewBox="0 0 57 48" version="1.1" xmlns:xlink="http://www.w3.org/1999/xlink" xmlns="http://www.w3.org/2000/svg">
  <defs>
    <path d="M38.999 14L55.001 14Q55.0992 14 55.1969 14.0096Q55.2947 14.0193 55.391 14.0384Q55.4873 14.0576 55.5813 14.0861Q55.6752 14.1146 55.766 14.1522Q55.8567 14.1897 55.9433 14.236Q56.0299 14.2823 56.1116 14.3369Q56.1932 14.3914 56.2691 14.4538Q56.3451 14.5161 56.4145 14.5855Q56.484 14.6549 56.5462 14.7308Q56.6085 14.8068 56.6631 14.8884Q56.7177 14.9701 56.764 15.0567Q56.8103 15.1433 56.8478 15.234Q56.8854 15.3247 56.9139 15.4187Q56.9424 15.5127 56.9616 15.609Q56.9807 15.7053 56.9904 15.8031Q57 15.9008 57 15.999L57 32.001Q57 32.0992 56.9904 32.1969Q56.9807 32.2947 56.9616 32.391Q56.9424 32.4873 56.9139 32.5813Q56.8854 32.6753 56.8478 32.766Q56.8103 32.8567 56.764 32.9433Q56.7177 33.0299 56.6631 33.1116Q56.6085 33.1932 56.5462 33.2691Q56.484 33.3451 56.4145 33.4145Q56.3451 33.4839 56.2692 33.5462Q56.1932 33.6085 56.1116 33.6631Q56.0299 33.7177 55.9433 33.764Q55.8567 33.8102 55.766 33.8478Q55.6753 33.8854 55.5813 33.9139Q55.4873 33.9424 55.391 33.9616Q55.2947 33.9807 55.1969 33.9904Q55.0992 34 55.001 34L38.999 34Q38.9008 34 38.8031 33.9904Q38.7053 33.9807 38.609 33.9616Q38.5127 33.9424 38.4187 33.9139Q38.3247 33.8854 38.234 33.8478Q38.1433 33.8102 38.0567 33.764Q37.9701 33.7177 37.8884 33.6631Q37.8068 33.6085 37.7308 33.5462Q37.6549 33.4839 37.5855 33.4145Q37.5161 33.3451 37.4537 33.2691Q37.3914 33.1932 37.3369 33.1116Q37.2823 33.0299 37.236 32.9433Q37.1897 32.8567 37.1522 32.766Q37.1146 32.6753 37.0861 32.5813Q37.0576 32.4873 37.0384 32.391Q37.0192 32.2947 37.0096 32.1969Q37 32.0992 37 32.001L37 15.999Q37 15.9008 37.0096 15.8031Q37.0192 15.7053 37.0384 15.609Q37.0576 15.5127 37.0861 15.4187Q37.1146 15.3247 37.1522 15.234Q37.1897 15.1433 37.236 15.0567Q37.2823 14.9701 37.3369 14.8884Q37.3914 14.8068 37.4537 14.7308Q37.516 14.6549 37.5855 14.5855Q37.6549 14.5161 37.7308 14.4538Q37.8068 14.3915 37.8884 14.3369Q37.9701 14.2823 38.0567 14.236Q38.1433 14.1897 38.234 14.1522Q38.3247 14.1146 38.4187 14.0861Q38.5127 14.0576 38.609 14.0384Q38.7053 14.0193 38.8031 14.0096Q38.9008 14 38.999 14Z" id="path_1" />
    <clipPath id="mask_1">
      <use xlink:href="#path_1" />
    </clipPath>
  </defs>
  <g id="btc-2">
    <path d="M24.2176 48C28.1559 47.9994 32.0349 47.0327 35.52 45.1833L34.7891 43.7903C25.716 48.6121 14.5618 46.6884 7.59417 39.1C0.626538 31.5117 -0.417105 20.151 5.04967 11.4015L3.72832 10.56C-0.973361 18.0841 -1.24692 27.5902 3.01416 35.3764C7.27524 43.1627 15.3974 47.9982 24.2176 48L24.2176 48Z" id="Path" fill="#F1BB0C" stroke="none" />
    <path d="M23.7829 1.57614C32.0342 1.57767 39.6324 6.10085 43.6189 13.3843C47.6053 20.6677 47.3497 29.5601 42.9516 36.5985L44.273 37.44C50.1159 28.0869 48.9996 15.9435 41.5512 7.83227C34.1029 -0.278958 22.1795 -2.3357 12.48 2.81758L13.2109 4.21054C16.4706 2.4806 20.099 1.57645 23.7829 1.57614Z" id="Path" fill="#F1BB0C" stroke="none" />
    <path d="M37.2 44.16L41.52 44.16C41.711 44.16 41.8941 44.0842 42.0292 43.9492C42.1642 43.8141 42.2401 43.631 42.24 43.44L42.24 39.12C42.2401 38.929 42.1642 38.7459 42.0292 38.6108C41.8941 38.4758 41.711 38.4 41.52 38.4L37.2 38.4C37.009 38.4 36.8259 38.4758 36.6908 38.6108C36.5558 38.7459 36.4799 38.929 36.48 39.12L36.48 43.44C36.4799 43.631 36.5558 43.8141 36.6908 43.9492C36.8259 44.0842 37.009 44.16 37.2 44.16L37.2 44.16ZM37.92 39.84L40.8 39.84L40.8 42.72L37.92 42.72L37.92 39.84Z" id="Shape" fill="#FFFFFF" stroke="none" />
    <path d="M6.48 9.6L10.8 9.6C10.991 9.60005 11.1741 9.52421 11.3092 9.38917C11.4442 9.25414 11.5201 9.07097 11.52 8.88L11.52 4.56C11.5201 4.36903 11.4442 4.18587 11.3092 4.05083C11.1741 3.91579 10.991 3.83995 10.8 3.84L6.48 3.84C6.28903 3.83995 6.10587 3.91579 5.97083 4.05083C5.83579 4.18587 5.75995 4.36903 5.76 4.56L5.76 8.88C5.75995 9.07097 5.83579 9.25414 5.97083 9.38917C6.10587 9.52421 6.28903 9.60005 6.48 9.6L6.48 9.6ZM7.2 5.28L10.08 5.28L10.08 8.16L7.2 8.16L7.2 5.28Z" id="Shape" fill="#FFFFFF" stroke="none" />
    <path d="M32.084 21.6484C32.4612 19.1266 30.5411 17.7709 27.9157 16.8666L28.7673 13.4504L26.6879 12.9322L25.8587 16.2583C25.3121 16.1221 24.7506 15.9936 24.1927 15.8662L25.0278 12.5182L22.9496 12L22.0973 15.4149C21.6448 15.3119 21.2007 15.21 20.7695 15.1028L20.7719 15.0922L17.9042 14.3761L17.351 16.5971C17.351 16.5971 18.8938 16.9507 18.8612 16.9726C19.7034 17.1828 19.8556 17.7401 19.8302 18.182L18.8601 22.0737C18.9181 22.0885 18.9933 22.1098 19.0762 22.143C19.0069 22.1258 18.9329 22.1069 18.8565 22.0885L17.4967 27.5402C17.3936 27.7961 17.1324 28.1798 16.5437 28.0342C16.5645 28.0644 15.0323 27.6569 15.0323 27.6569L14 30.0372L16.706 30.7117C17.2094 30.8379 17.7028 30.97 18.1884 31.0943L17.3279 34.5496L19.4049 35.0678L20.2572 31.6493C20.8246 31.8033 21.3754 31.9454 21.9143 32.0793L21.065 35.4818L23.1444 36L24.005 32.5513C27.5508 33.2223 30.2172 32.9517 31.3395 29.7446C32.2439 27.1624 31.2945 25.6728 29.4289 24.7015C30.7875 24.3882 31.8109 23.4945 32.084 21.6484L32.084 21.6484ZM27.3329 28.3107C26.6903 30.893 22.3425 29.497 20.933 29.147L22.0748 24.5695C23.4844 24.9213 28.0045 25.6177 27.3329 28.3107ZM27.9761 21.6111C27.3897 23.96 23.771 22.7666 22.5972 22.4741L23.6325 18.3223C24.8063 18.6149 28.5867 19.161 27.9761 21.6111Z" id="Shape" fill="#FFFFFF" stroke="none" />
    <path d="M38.999 14L55.001 14Q55.0992 14 55.1969 14.0096Q55.2947 14.0193 55.391 14.0384Q55.4873 14.0576 55.5813 14.0861Q55.6752 14.1146 55.766 14.1522Q55.8567 14.1897 55.9433 14.236Q56.0299 14.2823 56.1116 14.3369Q56.1932 14.3914 56.2691 14.4538Q56.3451 14.5161 56.4145 14.5855Q56.484 14.6549 56.5462 14.7308Q56.6085 14.8068 56.6631 14.8884Q56.7177 14.9701 56.764 15.0567Q56.8103 15.1433 56.8478 15.234Q56.8854 15.3247 56.9139 15.4187Q56.9424 15.5127 56.9616 15.609Q56.9807 15.7053 56.9904 15.8031Q57 15.9008 57 15.999L57 32.001Q57 32.0992 56.9904 32.1969Q56.9807 32.2947 56.9616 32.391Q56.9424 32.4873 56.9139 32.5813Q56.8854 32.6753 56.8478 32.766Q56.8103 32.8567 56.764 32.9433Q56.7177 33.0299 56.6631 33.1116Q56.6085 33.1932 56.5462 33.2691Q56.484 33.3451 56.4145 33.4145Q56.3451 33.4839 56.2692 33.5462Q56.1932 33.6085 56.1116 33.6631Q56.0299 33.7177 55.9433 33.764Q55.8567 33.8102 55.766 33.8478Q55.6753 33.8854 55.5813 33.9139Q55.4873 33.9424 55.391 33.9616Q55.2947 33.9807 55.1969 33.9904Q55.0992 34 55.001 34L38.999 34Q38.9008 34 38.8031 33.9904Q38.7053 33.9807 38.609 33.9616Q38.5127 33.9424 38.4187 33.9139Q38.3247 33.8854 38.234 33.8478Q38.1433 33.8102 38.0567 33.764Q37.9701 33.7177 37.8884 33.6631Q37.8068 33.6085 37.7308 33.5462Q37.6549 33.4839 37.5855 33.4145Q37.5161 33.3451 37.4537 33.2691Q37.3914 33.1932 37.3369 33.1116Q37.2823 33.0299 37.236 32.9433Q37.1897 32.8567 37.1522 32.766Q37.1146 32.6753 37.0861 32.5813Q37.0576 32.4873 37.0384 32.391Q37.0192 32.2947 37.0096 32.1969Q37 32.0992 37 32.001L37 15.999Q37 15.9008 37.0096 15.8031Q37.0192 15.7053 37.0384 15.609Q37.0576 15.5127 37.0861 15.4187Q37.1146 15.3247 37.1522 15.234Q37.1897 15.1433 37.236 15.0567Q37.2823 14.9701 37.3369 14.8884Q37.3914 14.8068 37.4537 14.7308Q37.516 14.6549 37.5855 14.5855Q37.6549 14.5161 37.7308 14.4538Q37.8068 14.3915 37.8884 14.3369Q37.9701 14.2823 38.0567 14.236Q38.1433 14.1897 38.234 14.1522Q38.3247 14.1146 38.4187 14.0861Q38.5127 14.0576 38.609 14.0384Q38.7053 14.0193 38.8031 14.0096Q38.9008 14 38.999 14Z" id="Rectangle" fill="#F1BB0C" fill-rule="evenodd" stroke="none" />
    <g clip-path="url(#mask_1)">
      <g id="2" fill="#070708" transform="translate(42 14)">
        <path d="M4.816 3.588Q5.616 3.588 6.28 3.824Q6.944 4.06 7.416 4.492Q7.888 4.924 8.152 5.532Q8.416 6.14 8.416 6.884Q8.416 7.524 8.228 8.068Q8.04 8.612 7.724 9.108Q7.408 9.604 6.984 10.068Q6.56 10.532 6.096 11.012L3.488 13.676Q3.872 13.564 4.24 13.504Q4.608 13.444 4.944 13.444L7.912 13.444Q8.232 13.444 8.42 13.624Q8.608 13.804 8.608 14.1L8.608 15.284L0.672 15.284L0.672 14.628Q0.672 14.428 0.756 14.212Q0.84 13.996 1.024 13.812L4.536 10.292Q4.976 9.844 5.324 9.436Q5.672 9.028 5.908 8.628Q6.144 8.228 6.268 7.816Q6.392 7.404 6.392 6.948Q6.392 6.532 6.272 6.216Q6.152 5.9 5.928 5.684Q5.704 5.468 5.396 5.36Q5.088 5.252 4.704 5.252Q3.992 5.252 3.532 5.612Q3.072 5.972 2.888 6.58Q2.8 6.884 2.624 7.016Q2.448 7.148 2.176 7.148Q2.056 7.148 1.912 7.124L0.872 6.94Q0.992 6.108 1.336 5.48Q1.68 4.852 2.196 4.432Q2.712 4.012 3.38 3.8Q4.048 3.588 4.816 3.588Z" />
      </g>
    </g>
  </g>
</svg>