<?xml version="1.0" encoding="utf-8"?>
<svg width="56px" height="48px" viewBox="0 0 56 48" version="1.1" xmlns:xlink="http://www.w3.org/1999/xlink" xmlns="http://www.w3.org/2000/svg">
  <defs>
    <path d="M37.999 14L54.001 14Q54.0992 14 54.1969 14.0096Q54.2947 14.0193 54.391 14.0384Q54.4873 14.0576 54.5813 14.0861Q54.6753 14.1146 54.766 14.1522Q54.8567 14.1897 54.9433 14.236Q55.0299 14.2823 55.1116 14.3369Q55.1932 14.3914 55.2692 14.4538Q55.3451 14.5161 55.4145 14.5855Q55.4839 14.6549 55.5462 14.7308Q55.6085 14.8068 55.6631 14.8884Q55.7177 14.9701 55.764 15.0567Q55.8102 15.1433 55.8478 15.234Q55.8854 15.3247 55.9139 15.4187Q55.9424 15.5127 55.9616 15.609Q55.9807 15.7053 55.9904 15.8031Q56 15.9008 56 15.999L56 32.001Q56 32.0992 55.9904 32.1969Q55.9807 32.2947 55.9616 32.391Q55.9424 32.4873 55.9139 32.5813Q55.8854 32.6753 55.8478 32.766Q55.8102 32.8567 55.764 32.9433Q55.7177 33.0299 55.6631 33.1116Q55.6085 33.1932 55.5462 33.2691Q55.4839 33.3451 55.4145 33.4145Q55.3451 33.4839 55.2691 33.5462Q55.1932 33.6085 55.1116 33.6631Q55.0299 33.7177 54.9433 33.764Q54.8567 33.8102 54.766 33.8478Q54.6753 33.8854 54.5813 33.9139Q54.4873 33.9424 54.391 33.9616Q54.2947 33.9807 54.1969 33.9904Q54.0992 34 54.001 34L37.999 34Q37.9008 34 37.8031 33.9904Q37.7053 33.9807 37.609 33.9616Q37.5127 33.9424 37.4187 33.9139Q37.3247 33.8854 37.234 33.8478Q37.1433 33.8102 37.0567 33.764Q36.9701 33.7177 36.8884 33.6631Q36.8068 33.6085 36.7308 33.5462Q36.6549 33.4839 36.5855 33.4145Q36.5161 33.3451 36.4538 33.2691Q36.3915 33.1932 36.3369 33.1116Q36.2823 33.0299 36.236 32.9433Q36.1897 32.8567 36.1522 32.766Q36.1146 32.6753 36.0861 32.5813Q36.0576 32.4873 36.0384 32.391Q36.0192 32.2947 36.0096 32.1969Q36 32.0992 36 32.001L36 15.999Q36 15.9008 36.0096 15.8031Q36.0192 15.7053 36.0384 15.609Q36.0576 15.5127 36.0861 15.4187Q36.1146 15.3247 36.1522 15.234Q36.1897 15.1433 36.236 15.0567Q36.2823 14.9701 36.3369 14.8884Q36.3915 14.8068 36.4538 14.7308Q36.5161 14.6549 36.5855 14.5855Q36.6549 14.5161 36.7308 14.4538Q36.8068 14.3915 36.8884 14.3369Q36.9701 14.2823 37.0567 14.236Q37.1433 14.1897 37.234 14.1522Q37.3247 14.1146 37.4187 14.0861Q37.5127 14.0576 37.609 14.0384Q37.7053 14.0193 37.8031 14.0096Q37.9008 14 37.999 14Z" id="path_1" />
    <clipPath id="mask_1">
      <use xlink:href="#path_1" />
    </clipPath>
  </defs>
  <g id="btc-1">
    <path d="M24.2176 48C28.1559 47.9994 32.0349 47.0327 35.52 45.1833L34.7891 43.7903C25.716 48.6121 14.5618 46.6884 7.59417 39.1C0.626538 31.5117 -0.417105 20.151 5.04967 11.4015L3.72832 10.56C-0.973361 18.0841 -1.24692 27.5902 3.01416 35.3764C7.27524 43.1627 15.3974 47.9982 24.2176 48L24.2176 48Z" id="Path" fill="#F1BB0C" stroke="none" />
    <path d="M23.7829 1.57614C32.0342 1.57767 39.6324 6.10085 43.6189 13.3843C47.6053 20.6677 47.3497 29.5601 42.9516 36.5985L44.273 37.44C50.1159 28.0869 48.9996 15.9435 41.5512 7.83227C34.1029 -0.278958 22.1795 -2.3357 12.48 2.81758L13.2109 4.21054C16.4706 2.4806 20.099 1.57645 23.7829 1.57614Z" id="Path" fill="#F1BB0C" stroke="none" />
    <path d="M37.2 44.16L41.52 44.16C41.711 44.16 41.8941 44.0842 42.0292 43.9492C42.1642 43.8141 42.2401 43.631 42.24 43.44L42.24 39.12C42.2401 38.929 42.1642 38.7459 42.0292 38.6108C41.8941 38.4758 41.711 38.4 41.52 38.4L37.2 38.4C37.009 38.4 36.8259 38.4758 36.6908 38.6108C36.5558 38.7459 36.4799 38.929 36.48 39.12L36.48 43.44C36.4799 43.631 36.5558 43.8141 36.6908 43.9492C36.8259 44.0842 37.009 44.16 37.2 44.16L37.2 44.16ZM37.92 39.84L40.8 39.84L40.8 42.72L37.92 42.72L37.92 39.84Z" id="Shape" fill="#FFFFFF" stroke="none" />
    <path d="M6.48 9.6L10.8 9.6C10.991 9.60005 11.1741 9.52421 11.3092 9.38917C11.4442 9.25414 11.5201 9.07097 11.52 8.88L11.52 4.56C11.5201 4.36903 11.4442 4.18587 11.3092 4.05083C11.1741 3.91579 10.991 3.83995 10.8 3.84L6.48 3.84C6.28903 3.83995 6.10587 3.91579 5.97083 4.05083C5.83579 4.18587 5.75995 4.36903 5.76 4.56L5.76 8.88C5.75995 9.07097 5.83579 9.25414 5.97083 9.38917C6.10587 9.52421 6.28903 9.60005 6.48 9.6L6.48 9.6ZM7.2 5.28L10.08 5.28L10.08 8.16L7.2 8.16L7.2 5.28Z" id="Shape" fill="#FFFFFF" stroke="none" />
    <path d="M32.084 21.6484C32.4612 19.1266 30.5411 17.7709 27.9157 16.8666L28.7673 13.4504L26.6879 12.9322L25.8587 16.2583C25.3121 16.1221 24.7506 15.9936 24.1927 15.8662L25.0278 12.5182L22.9496 12L22.0973 15.4149C21.6448 15.3119 21.2007 15.21 20.7695 15.1028L20.7719 15.0922L17.9042 14.3761L17.351 16.5971C17.351 16.5971 18.8938 16.9507 18.8612 16.9726C19.7034 17.1828 19.8556 17.7401 19.8302 18.182L18.8601 22.0737C18.9181 22.0885 18.9933 22.1098 19.0762 22.143C19.0069 22.1258 18.9329 22.1069 18.8565 22.0885L17.4967 27.5402C17.3936 27.7961 17.1324 28.1798 16.5437 28.0342C16.5645 28.0644 15.0323 27.6569 15.0323 27.6569L14 30.0372L16.706 30.7117C17.2094 30.8379 17.7028 30.97 18.1884 31.0943L17.3279 34.5496L19.4049 35.0678L20.2572 31.6493C20.8246 31.8033 21.3754 31.9454 21.9143 32.0793L21.065 35.4818L23.1444 36L24.005 32.5513C27.5508 33.2223 30.2172 32.9517 31.3395 29.7446C32.2439 27.1624 31.2945 25.6728 29.4289 24.7015C30.7875 24.3882 31.8109 23.4945 32.084 21.6484L32.084 21.6484ZM27.3329 28.3107C26.6903 30.893 22.3425 29.497 20.933 29.147L22.0748 24.5695C23.4844 24.9213 28.0045 25.6177 27.3329 28.3107ZM27.9761 21.6111C27.3897 23.96 23.771 22.7666 22.5972 22.4741L23.6325 18.3223C24.8063 18.6149 28.5867 19.161 27.9761 21.6111Z" id="Shape" fill="#FFFFFF" stroke="none" />
    <path d="M37.999 14L54.001 14Q54.0992 14 54.1969 14.0096Q54.2947 14.0193 54.391 14.0384Q54.4873 14.0576 54.5813 14.0861Q54.6753 14.1146 54.766 14.1522Q54.8567 14.1897 54.9433 14.236Q55.0299 14.2823 55.1116 14.3369Q55.1932 14.3914 55.2692 14.4538Q55.3451 14.5161 55.4145 14.5855Q55.4839 14.6549 55.5462 14.7308Q55.6085 14.8068 55.6631 14.8884Q55.7177 14.9701 55.764 15.0567Q55.8102 15.1433 55.8478 15.234Q55.8854 15.3247 55.9139 15.4187Q55.9424 15.5127 55.9616 15.609Q55.9807 15.7053 55.9904 15.8031Q56 15.9008 56 15.999L56 32.001Q56 32.0992 55.9904 32.1969Q55.9807 32.2947 55.9616 32.391Q55.9424 32.4873 55.9139 32.5813Q55.8854 32.6753 55.8478 32.766Q55.8102 32.8567 55.764 32.9433Q55.7177 33.0299 55.6631 33.1116Q55.6085 33.1932 55.5462 33.2691Q55.4839 33.3451 55.4145 33.4145Q55.3451 33.4839 55.2691 33.5462Q55.1932 33.6085 55.1116 33.6631Q55.0299 33.7177 54.9433 33.764Q54.8567 33.8102 54.766 33.8478Q54.6753 33.8854 54.5813 33.9139Q54.4873 33.9424 54.391 33.9616Q54.2947 33.9807 54.1969 33.9904Q54.0992 34 54.001 34L37.999 34Q37.9008 34 37.8031 33.9904Q37.7053 33.9807 37.609 33.9616Q37.5127 33.9424 37.4187 33.9139Q37.3247 33.8854 37.234 33.8478Q37.1433 33.8102 37.0567 33.764Q36.9701 33.7177 36.8884 33.6631Q36.8068 33.6085 36.7308 33.5462Q36.6549 33.4839 36.5855 33.4145Q36.5161 33.3451 36.4538 33.2691Q36.3915 33.1932 36.3369 33.1116Q36.2823 33.0299 36.236 32.9433Q36.1897 32.8567 36.1522 32.766Q36.1146 32.6753 36.0861 32.5813Q36.0576 32.4873 36.0384 32.391Q36.0192 32.2947 36.0096 32.1969Q36 32.0992 36 32.001L36 15.999Q36 15.9008 36.0096 15.8031Q36.0192 15.7053 36.0384 15.609Q36.0576 15.5127 36.0861 15.4187Q36.1146 15.3247 36.1522 15.234Q36.1897 15.1433 36.236 15.0567Q36.2823 14.9701 36.3369 14.8884Q36.3915 14.8068 36.4538 14.7308Q36.5161 14.6549 36.5855 14.5855Q36.6549 14.5161 36.7308 14.4538Q36.8068 14.3915 36.8884 14.3369Q36.9701 14.2823 37.0567 14.236Q37.1433 14.1897 37.234 14.1522Q37.3247 14.1146 37.4187 14.0861Q37.5127 14.0576 37.609 14.0384Q37.7053 14.0193 37.8031 14.0096Q37.9008 14 37.999 14Z" id="Rectangle" fill="#F1BB0C" fill-rule="evenodd" stroke="none" />
    <g clip-path="url(#mask_1)">
      <g id="1" fill="#070708" transform="translate(41 14)">
        <path d="M2.152 13.804L4.496 13.804L4.496 7.06Q4.496 6.668 4.52 6.236L2.856 7.628Q2.752 7.716 2.644 7.748Q2.536 7.78 2.432 7.78Q2.272 7.78 2.14 7.712Q2.008 7.644 1.944 7.556L1.32 6.7L4.848 3.7L6.472 3.7L6.472 13.804L8.552 13.804L8.552 15.284L2.152 15.284L2.152 13.804Z" />
      </g>
    </g>
  </g>
</svg>