<?xml version="1.0" encoding="utf-8"?>
<svg width="42px" height="42px" viewBox="0 0 42 42" version="1.1" xmlns:xlink="http://www.w3.org/1999/xlink" xmlns="http://www.w3.org/2000/svg">
  <defs>
    <path d="M21 42C32.598 42 42 32.598 42 21C42 9.40202 32.598 0 21 0C9.40202 0 0 9.40202 0 21C0 32.598 9.40202 42 21 42Z" id="path_1" />
    <clipPath id="clip_1">
      <use xlink:href="#path_1" />
    </clipPath>
  </defs>
  <g id="btc">
    <g id="Oval">
      <g clip-path="url(#clip_1)">
        <use xlink:href="#path_1" fill="none" stroke="#F1BB0C" stroke-width="2" />
      </g>
    </g>
    <path d="M28.0321 19.0202C28.3457 16.9239 26.7497 15.797 24.5673 15.0453L25.2752 12.2057L23.5467 11.7749L22.8575 14.5397C22.4031 14.4265 21.9364 14.3196 21.4726 14.2138L22.1668 11.4308L20.4393 11L19.7308 13.8386C19.3547 13.753 18.9855 13.6683 18.6271 13.5792L18.629 13.5703L16.2453 12.9751L15.7855 14.8213C15.7855 14.8213 17.0679 15.1152 17.0409 15.1334C17.7409 15.3082 17.8674 15.7714 17.8463 16.1387L17.0399 19.3737C17.0881 19.386 17.1506 19.4037 17.2196 19.4313C17.162 19.417 17.1004 19.4012 17.0369 19.386L15.9066 23.9177C15.8209 24.1303 15.6038 24.4494 15.1145 24.3282C15.1317 24.3534 13.8581 24.0146 13.8581 24.0146L13 25.9932L15.2494 26.554C15.6678 26.6588 16.0779 26.7686 16.4816 26.872L15.7663 29.7441L17.4928 30.1749L18.2012 27.3333C18.6729 27.4613 19.1307 27.5794 19.5787 27.6907L18.8727 30.519L20.6012 30.9498L21.3166 28.0831C24.264 28.6409 26.4804 28.4159 27.4133 25.75C28.165 23.6036 27.3759 22.3654 25.8251 21.558C26.9545 21.2976 27.8052 20.5547 28.0321 19.0202L28.0321 19.0202ZM24.0828 24.5582C23.5487 26.7046 19.9346 25.5442 18.763 25.2533L19.7121 21.4482C20.8838 21.7407 24.6411 22.3196 24.0828 24.5582ZM24.6175 18.9892C24.1301 20.9417 21.1221 19.9497 20.1463 19.7065L21.0069 16.2554C21.9826 16.4986 25.125 16.9525 24.6175 18.9892Z" id="Shape" fill="#FFFFFF" stroke="none" />
  </g>
</svg>