<svg width="20" height="25" viewBox="0 0 20 25" xmlns="http://www.w3.org/2000/svg">
    <g fill-rule="nonzero" fill="none">
        <path d="M19.037 20.317h-1.712c-.567 0-1.091-.22-1.482-.615a2.06 2.06 0 0 1-.015-2.923c.41-.42.982-.662 1.564-.662h1.65v-2.432c0-.92-.749-1.664-1.664-1.664H1.664A2.072 2.072 0 0 1 0 11.187v11.561c0 .92.749 1.664 1.664 1.664h15.709c.92 0 1.664-.748 1.664-1.664v-2.431z" fill="#A9AAB3"/>
        <path d="m12.968 11.602 1.993-2.708a2.195 2.195 0 0 1-.42-2.751l-2.393-1.76a2.195 2.195 0 0 1-2.751.42L4.4 11.602h1.312c.076-.348.224-.687.438-.978a2.61 2.61 0 0 1 1.716-1.039 2.598 2.598 0 0 1 1.946.477c.515.376.863.92 1 1.535h2.156v.005zm-2.603-3.643c-.048-.3.028-.6.21-.844a1.135 1.135 0 1 1 .243 1.588 1.14 1.14 0 0 1-.453-.744z" fill="#F1BB0C"/>
        <path d="M11.06 8.365a.716.716 0 1 0 .425-1.292c-.22 0-.439.1-.582.29a.7.7 0 0 0-.128.53c.033.19.133.357.286.472z" fill="#A9AAB3"/>
        <path d="M17.387 17.642a.574.574 0 0 0-.572.572c0 .315.258.572.572.572a.574.574 0 0 0 .572-.572.577.577 0 0 0-.572-.572z" fill="#FFF"/>
        <path d="M19.6 16.536h-2.213c-.472 0-.93.196-1.263.534-.32.324-.491.744-.482 1.182.01.44.186.85.491 1.154.315.32.735.491 1.188.491h2.274a.405.405 0 0 0 .405-.405v-2.55a.398.398 0 0 0-.4-.406zm-2.213 2.67a.99.99 0 1 1-.001-1.982.99.99 0 0 1 .001 1.982z" fill="#A9AAB3"/>
        <path d="M17.359 7.497a.527.527 0 0 0-.115-.74l-6.493-4.776a.525.525 0 0 0-.391-.1.506.506 0 0 0-.343.21L3.023 11.6h.853l5.302-7.208a.203.203 0 0 1 .29-.043c.787.577 1.893.41 2.47-.376a.199.199 0 0 1 .138-.081c.057-.01.11.004.158.038l2.712 1.993c.096.066.115.2.043.29a1.77 1.77 0 0 0 .377 2.47.199.199 0 0 1 .08.138.207.207 0 0 1-.037.158l-1.926 2.622h.858l3.018-4.105z" fill="#F1BB0C"/>
        <path d="M17.144 11.602V9.938c0-.372-.124-.715-.329-.992l-1.95 2.656h2.28z" fill="#A9AAB3"/>
        <path d="M17.015 4.884 10.517.102a.522.522 0 0 0-.734.115L2.789 9.723h1.092l5.797-7.88a.903.903 0 0 1 .62-.372c.253-.038.5.023.706.171l5.868 4.32.253-.344c.072-.09.105-.2.105-.31a.526.526 0 0 0-.215-.424z" fill="#F1BB0C"/>
        <path d="M0 9.933c0 .92.749 1.664 1.664 1.664h.839l1.068-1.454H1.707a.212.212 0 0 1-.21-.21c0-.114.095-.21.21-.21h.562L3.337 8.27H1.664C.744 8.27 0 9.018 0 9.933zM9.564 10.4a2.175 2.175 0 0 0-1.636-.4 2.202 2.202 0 0 0-1.793 1.602h4.249a2.196 2.196 0 0 0-.82-1.202z" fill="#A9AAB3"/>
    </g>
</svg>
