<svg width="20" height="20" viewBox="0 0 20 20" xmlns="http://www.w3.org/2000/svg">
    <g fill-rule="nonzero" fill="none">
        <path d="M14.945 12.35h4.768V8.519h-4.768v3.833zM17.108 9.7c.348 0 .63.33.63.735 0 .406-.282.735-.63.735-.347 0-.63-.329-.63-.735.001-.406.283-.735.63-.735z" fill="#A9AAB3"/>
        <path d="M14.591 7.81h5.122V4.97c0-.69-.486-1.25-1.083-1.25h-1.063l-.433-2.42c-.088-.493-.35-.904-.718-1.128a1.128 1.128 0 0 0-.931-.121L3.835 3.66c-.304.093-.573.318-.757.631l.009.006a1.386 1.386 0 0 0-.173.672v5.867c.472-.136.97-.212 1.487-.212 2.888 0 5.237 2.29 5.237 5.105 0 .455-.062.9-.182 1.334h9.173c.598 0 1.084-.562 1.084-1.25v-2.756H14.59a.354.354 0 0 1-.353-.353v-4.54c0-.197.158-.355.353-.355zM6.036 3.72 15.695.725a.423.423 0 0 1 .355.05c.19.117.337.36.388.65l.411 2.293H6.036z" fill="#A9AAB3"/>
        <path d="M4.402 11.46C1.975 11.46 0 13.374 0 15.73 0 18.084 1.974 20 4.402 20c1.823 0 3.478-1.11 4.121-2.764.187-.48.282-.987.282-1.506 0-2.355-1.975-4.27-4.403-4.27zm1.696 4.687H4.82v1.28a.417.417 0 1 1-.834 0v-1.28h-1.28a.417.417 0 0 1 0-.835h1.28v-1.279a.417.417 0 1 1 .834 0v1.28H6.1a.417.417 0 1 1 0 .834z" fill="#F1BB0C"/>
    </g>
</svg>
