<svg width="24" height="20" viewBox="0 0 24 20" xmlns="http://www.w3.org/2000/svg">
    <g fill="none" fill-rule="evenodd">
        <path d="M23.487 17.6H.516A.518.518 0 0 1 0 17.08V.52C0 .234.23 0 .516 0 .8 0 1.03.233 1.03.52v16.038h22.456c.682.027.686 1.014 0 1.042zM5.142 20H4.46C4.206 20 4 19.82 4 19.6c0-.22.206-.4.46-.4h.682c.61.021.61.779 0 .8zM10.742 20h-.681c-.255 0-.461-.18-.461-.4 0-.22.206-.4.46-.4h.682c.61.021.61.779 0 .8zM15.542 20h-.681c-.255 0-.461-.18-.461-.4 0-.22.206-.4.46-.4h.682c.61.021.61.779 0 .8zM21.142 20h-.681c-.255 0-.461-.18-.461-.4 0-.22.206-.4.46-.4h.682c.61.021.61.779 0 .8z" fill="#A9AAB3" fill-rule="nonzero"/>
        <path d="M20.369 0c-1.228-.01-2.2 1.156-2.009 2.403l-1.7.751a2.008 2.008 0 0 0-1.604-.81c-1.553-.015-2.55 1.788-1.751 3.15l-2.535 2.61c-.737-.469-1.787-.344-2.4.266L6.36 7.04c.442-1.314-.574-2.766-1.93-2.741-1.12 0-2.031.938-2.031 2.092-.006 1.815 2.131 2.765 3.406 1.538l2.007 1.33c-.44 1.314.575 2.766 1.93 2.74 1.553.016 2.55-1.786 1.753-3.148l2.534-2.61c1.451.89 3.295-.39 3.035-2.116l1.701-.75c1.175 1.555 3.623.712 3.634-1.283C22.4.939 21.489 0 20.369 0zM4.43 7.425c-.554 0-1.004-.464-1.004-1.034a1.005 1.005 0 0 1 2.009 0c0 .57-.45 1.034-1.005 1.034zm5.313 3.518c-.554 0-1.005-.465-1.005-1.035a1.005 1.005 0 0 1 2.01 0c0 .57-.451 1.035-1.005 1.035zm5.312-5.472c-.554 0-1.004-.464-1.004-1.034a1.005 1.005 0 0 1 2.009 0c0 .57-.45 1.034-1.005 1.034zm5.313-2.344c-.554 0-1.005-.465-1.005-1.035a1.005 1.005 0 0 1 2.01 0c0 .57-.451 1.035-1.005 1.035z" fill="#A9AAB3" fill-rule="nonzero"/>
        <path d="m18.983 3.2-1.588.737C17.55 4.975 16.907 5.985 16 6.23V16h4V3.927a1.898 1.898 0 0 1-1.017-.727zM13.921 6.4l-2.365 2.463c.646 1.11.032 2.602-1.156 2.908V16h4V6.607a1.85 1.85 0 0 1-.479-.207zM8.183 9.866c0-.214.034-.42.094-.613L6.404 8c-.225.215-.5.375-.804.457V16h4v-4.226c-.814-.221-1.417-.993-1.417-1.908z"/>
        <path d="M4.8 8.8c-.254.09-.546.09-.8 0v8h.8v-8zM20 4v12h.8V4a1.243 1.243 0 0 1-.8 0zM10 12.06c-.138 0-.272-.02-.4-.06v4h.8v-4c-.128.04-.262.06-.4.06zM15.6 6.466c-.138 0-.272-.023-.4-.066V16h.8V6.4a1.261 1.261 0 0 1-.4.066z" fill="#F1BB0C" fill-rule="nonzero"/>
    </g>
</svg>
