<svg width="20" height="21" viewBox="0 0 20 21" xmlns="http://www.w3.org/2000/svg">
    <g fill-rule="nonzero" fill="none">
        <path fill="#F1BB0C" d="M.687 17.857h-.66l.33.824zM0 7.5h.714v9.643H0zM.714 6.429a.357.357 0 0 0-.714 0v.357h.714v-.357z"/>
        <path d="M10 2.143A1.071 1.071 0 1 1 10 0a1.071 1.071 0 0 1 0 2.143zm0-1.429a.357.357 0 1 0 0 .715.357.357 0 0 0 0-.715zM16.429 10.357h.714V3.93a1.075 1.075 0 0 0-1.072-1.072h-1.428v.714h.714c.591.002 1.07.48 1.072 1.072v2.143h-.715V4.643a.357.357 0 0 0-.357-.357h-.778A1.075 1.075 0 0 1 13.57 5H6.43a1.075 1.075 0 0 1-1.008-.714h-.778a.357.357 0 0 0-.357.357v14.286c0 .197.16.357.357.357H10V20H4.643a1.075 1.075 0 0 1-1.072-1.071V4.643c.002-.591.48-1.07 1.072-1.072h.714v-.714H3.93c-.591.002-1.07.48-1.072 1.072v15.714c.002.59.48 1.07 1.072 1.071h7.153a1.729 1.729 0 0 1-.368-1.071v-6.429c0-.197.16-.357.357-.357h6.072v-1.786h-.714a.357.357 0 0 0-.358.358v.714h-.714v-.714c.002-.591.48-1.07 1.072-1.072zM5.714 6.43h8.572v.714H5.714v-.714zm0 2.142h7.143v.715H5.714V8.57zM10 15.714H5.714V15H10v.714zm0-2.143H5.714v-.714H10v.714zm1.429-2.142H5.714v-.715h5.715v.715zM15 10h-.714c-.591.002-1.07.48-1.072 1.071v.715H12.5v-.715c0-.986.8-1.785 1.786-1.785H15c.197 0 .357-.16.357-.357V7.5h.714v1.429A1.075 1.075 0 0 1 15 10z" fill="#A9AAB3"/>
        <path d="M6.429 4.286h7.142c.198 0 .358-.16.358-.357V2.143H6.07v1.786c0 .197.16.357.358.357z" fill="#A9AAB3"/>
        <path d="M18.929 13.571h-7.5v6.072c.001.59.48 1.07 1.071 1.071h4.286a1.075 1.075 0 0 0 1.071-1.071v-1.786h1.072A1.075 1.075 0 0 0 20 16.786v-2.143a1.075 1.075 0 0 0-1.071-1.072zm.357 3.215c0 .197-.16.357-.357.357h-1.072v-2.857h1.072c.197 0 .357.16.357.357v2.143zM18.214 8.571V10a1.075 1.075 0 0 1-1.071 1.071v-.714c.197 0 .357-.16.357-.357V8.571h.714z" fill="#F1BB0C"/>
    </g>
</svg>
