<svg width="20" height="20" viewBox="0 0 20 20" xmlns="http://www.w3.org/2000/svg">
    <g fill-rule="nonzero" fill="none">
        <path d="M10.586 10.586V0C4.916.297.297 4.916 0 10.586h10.586zM8.242 8.828H7.07V7.656h1.172v1.172zM4.727 5.313h1.171v1.171H4.727V5.313zm2.93-.243.828.828-3.172 3.173-.83-.829L7.657 5.07zM10.586 11.758H3.577a7.63 7.63 0 0 0 7.009 7.009v-7.01z" fill="#A9AAB3"/>
        <path d="M11.758 2.344V20C16.33 19.696 20 15.762 20 11.113s-3.668-8.467-8.242-8.77zm3.515 8.242c.97 0 1.758.788 1.758 1.758 0 .763-.491 1.407-1.172 1.65v1.28h-1.171v-1.28a1.755 1.755 0 0 1-1.172-1.65h1.171a.586.586 0 1 0 .586-.586A1.76 1.76 0 0 1 13.516 10c0-.763.491-1.407 1.171-1.65V7.07h1.172v1.28c.68.243 1.172.887 1.172 1.65H15.86a.586.586 0 1 0-.586.586z" fill="#F1BB0C"/>
    </g>
</svg>
