<?xml version="1.0" encoding="utf-8"?>
<svg width="51px" height="51px" viewBox="0 0 51 51" version="1.1" xmlns:xlink="http://www.w3.org/1999/xlink" xmlns="http://www.w3.org/2000/svg">
  <g id="Group-6" transform="translate(0.5 0.5)">
    <path d="M25 50C38.8071 50 50 38.8071 50 25C50 11.1929 38.8071 0 25 0C11.1929 0 0 11.1929 0 25C0 38.8071 11.1929 50 25 50Z" id="Oval" fill="none" fill-rule="evenodd" stroke="#F1BB0C" stroke-width="1" />
    <g id="percentage" transform="translate(17 17)">
      <path d="M15.8534 0.146624C15.6579 -0.0488746 15.3419 -0.0488746 15.1464 0.146624L0.152499 15.1405C-0.0429997 15.336 -0.0429997 15.652 0.152499 15.8475C0.249998 15.945 0.377997 15.994 0.505996 15.994C0.633995 15.994 0.761494 15.9455 0.859493 15.8475L15.8534 0.853618C16.0489 0.65812 16.0489 0.342122 15.8534 0.146624ZM3.50447 0.00562496C1.57249 0.00562496 0 1.57711 0 3.5086C0 5.44058 1.57249 7.01257 3.50447 7.01257C5.43596 7.01257 7.00795 5.44108 7.00795 3.5086C7.00795 1.57711 5.43596 0.00562496 3.50447 0.00562496ZM3.50447 6.01308C2.12348 6.01308 0.999992 4.89009 0.999992 3.5091C0.999992 2.12911 2.12348 1.00612 3.50447 1.00612C4.88496 1.00612 6.00795 2.12911 6.00795 3.5091C6.00795 4.89009 4.88496 6.01308 3.50447 6.01308ZM8.98693 12.4955C8.98693 10.564 10.5589 8.99205 12.4904 8.99205C14.4219 8.99205 15.9939 10.564 15.9939 12.4955C15.9939 14.4275 14.4224 16 12.4904 16C10.5589 16 8.98693 14.4275 8.98693 12.4955ZM9.98692 12.4955C9.98692 13.8765 11.1099 15 12.4904 15C13.8709 15 14.9939 13.8765 14.9939 12.4955C14.9939 11.115 13.8709 9.99205 12.4904 9.99205C11.1099 9.99205 9.98692 11.115 9.98692 12.4955Z" id="Combined-Shape" fill="#FFFFFF" fill-rule="evenodd" stroke="none" />
    </g>
  </g>
</svg>