<?xml version="1.0" encoding="utf-8"?>
<svg width="51px" height="51px" viewBox="0 0 51 51" version="1.1" xmlns:xlink="http://www.w3.org/1999/xlink" xmlns="http://www.w3.org/2000/svg">
  <g id="Group-5" transform="translate(0.5 0.5)">
    <path d="M25 50C38.8071 50 50 38.8071 50 25C50 11.1929 38.8071 0 25 0C11.1929 0 0 11.1929 0 25C0 38.8071 11.1929 50 25 50Z" id="Oval" fill="none" fill-rule="evenodd" stroke="#F1BB0C" stroke-width="1" />
    <g id="deposit-ic" transform="translate(13 16)">
      <path d="M0 14.7619C0 16.0743 1.06762 17.1429 2.38095 17.1429L10.9524 17.1429C11.2152 17.1429 11.4286 16.9295 11.4286 16.6667C11.4286 16.4038 11.2152 16.1905 10.9524 16.1905L2.38095 16.1905C1.59333 16.1905 0.952381 15.5495 0.952381 14.7619L0.952381 12.381L7.14286 12.381C8.45619 12.381 9.52381 11.3124 9.52381 10L9.52381 7.14286C9.52381 5.83048 8.45619 4.7619 7.14286 4.7619L0.952381 4.7619L0.952381 2.38095C0.952381 1.59333 1.59333 0.952381 2.38095 0.952381L20.4762 0.952381C21.2638 0.952381 21.9048 1.59333 21.9048 2.38095L21.9048 11.9048C21.9048 12.1676 22.1181 12.381 22.381 12.381C22.6438 12.381 22.8571 12.1676 22.8571 11.9048L22.8571 2.38095C22.8571 1.06857 21.7895 0 20.4762 0L2.38095 0C1.06762 0 0 1.06857 0 2.38095L0 14.7619ZM7.14286 11.4286L0.952381 11.4286L0.952381 5.71429L7.14286 5.71429C7.93048 5.71429 8.57143 6.35524 8.57143 7.14286L8.57143 10C8.57143 10.7876 7.93048 11.4286 7.14286 11.4286ZM2.85714 8.57143C2.85714 9.6219 3.71143 10.4762 4.7619 10.4762C5.81238 10.4762 6.66667 9.6219 6.66667 8.57143C6.66667 7.52095 5.81238 6.66667 4.7619 6.66667C3.71143 6.66667 2.85714 7.52095 2.85714 8.57143ZM3.80952 8.57143C3.80952 8.04667 4.23619 7.61905 4.7619 7.61905C5.28762 7.61905 5.71429 8.04667 5.71429 8.57143C5.71429 9.09619 5.28762 9.52381 4.7619 9.52381C4.23619 9.52381 3.80952 9.09619 3.80952 8.57143ZM17.2819 19.861C17.3752 19.9533 17.4971 20 17.619 20C17.741 20 17.8629 19.9533 17.9562 19.861L22.7181 15.099C22.8533 14.9629 22.8943 14.7581 22.821 14.58C22.7476 14.4019 22.5733 14.2857 22.381 14.2857L20 14.2857L20 9.52381C20 8.99905 19.5733 8.57143 19.0476 8.57143L16.1905 8.57143C15.6648 8.57143 15.2381 8.99905 15.2381 9.52381L15.2381 14.2857L12.8571 14.2857C12.6648 14.2857 12.4914 14.4019 12.4171 14.58C12.3429 14.7581 12.3838 14.9629 12.52 15.099L17.2819 19.861ZM17.619 18.8505L14.0067 15.2381L15.7143 15.2381C15.9771 15.2381 16.1905 15.0248 16.1905 14.7619L16.1905 9.52381L19.0476 9.52381L19.0476 14.7619C19.0476 15.0248 19.261 15.2381 19.5238 15.2381L21.2314 15.2381L17.619 18.8505Z" id="Combined-Shape" fill="#FFFFFF" fill-rule="evenodd" stroke="none" />
    </g>
  </g>
</svg>