<svg width="23" height="18" viewBox="0 0 23 18" xmlns="http://www.w3.org/2000/svg">
    <g fill-rule="nonzero" fill="none">
        <path d="M4.298 4.769a2.81 2.81 0 0 0-2.807 2.807 2.81 2.81 0 0 0 2.807 2.807 2.81 2.81 0 0 0 2.807-2.807 2.81 2.81 0 0 0-2.807-2.807zm14.03 0a2.81 2.81 0 0 0-2.807 2.807 2.81 2.81 0 0 0 2.808 2.807 2.81 2.81 0 0 0 2.807-2.807 2.81 2.81 0 0 0-2.807-2.807zm3.245 6.686c-1.519-.678-1.482-.685-1.69-.685-1.087 0-1.799-.007-2.28-.01-.478-.002-.636.64-.213.86.347.182.558.337.808.61.73.793.798 1.632.798 2.328 0 .252.204.456.456.456h2.445a.73.73 0 0 0 .73-.73V13.08c0-.701-.414-1.339-1.054-1.625zM2.744 10.77c-.207 0-.166.005-1.69.685A1.781 1.781 0 0 0 0 13.08v1.204c0 .403.327.73.73.73h2.445a.456.456 0 0 0 .456-.457c-.001-.698.065-1.53.798-2.327.249-.272.461-.428.8-.606.423-.222.267-.862-.21-.86-.485 0-1.196.006-2.275.006z" fill="#A9AAB3"/>
        <path d="M17.7 17.228H4.927a.73.73 0 0 1-.73-.73v-2.161c0-1.03.607-1.966 1.547-2.386 2.734-1.22 2.584-1.18 2.797-1.18h.868a.73.73 0 0 1 .709.556c.306 1.244 2.085 1.244 2.391 0a.73.73 0 0 1 .709-.555c.934 0 .981-.019 1.165.063l2.5 1.116a2.615 2.615 0 0 1 1.547 2.386v2.16a.73.73 0 0 1-.73.73zM11.331 0C8.873 0 6.873 2 6.873 4.458c0 2.459 2 4.459 4.458 4.459 2.459 0 4.459-2 4.459-4.459C15.79 2 13.79 0 11.33 0z" fill="#F1BB0C"/>
    </g>
</svg>
