<svg width="48" height="48" viewBox="0 0 48 48" xmlns="http://www.w3.org/2000/svg">
    <defs>
        <clipPath id="84abix3ala">
            <path d="M1920 0v4819H0V0h1920z"/>
        </clipPath>
        <clipPath id="dddp3e9ufb">
            <path d="M3.728 0 5.05.841C-.417 9.591.627 20.951 7.594 28.54c6.968 7.588 18.122 9.512 27.195 4.69l.731 1.393a24.116 24.116 0 0 1-11.302 2.817c-8.82-.002-16.943-4.837-21.204-12.624A24.595 24.595 0 0 1 3.728 0z"/>
        </clipPath>
        <clipPath id="s7bvvfct4c">
            <path d="M0 2.818C9.7-2.336 21.623-.28 29.071 7.832c7.449 8.111 8.565 20.255 2.722 29.608l-1.321-.841a23.006 23.006 0 0 0 .667-23.215C27.152 6.101 19.554 1.578 11.303 1.576c-3.684 0-7.312.905-10.572 2.635z"/>
        </clipPath>
        <clipPath id="bl5h48ltwd">
            <path d="M5.04 0a.72.72 0 0 1 .72.72v4.32a.72.72 0 0 1-.72.72H.72A.72.72 0 0 1 0 5.04V.72A.72.72 0 0 1 .72 0zm-.72 1.44H1.44v2.88h2.88V1.44z"/>
        </clipPath>
        <clipPath id="ej5q3v61me">
            <path d="M5.04 0a.72.72 0 0 1 .72.72v4.32a.72.72 0 0 1-.72.72H.72A.72.72 0 0 1 0 5.04V.72A.72.72 0 0 1 .72 0zm-.72 1.44H1.44v2.88h2.88V1.44z"/>
        </clipPath>
        <clipPath id="nxi7p4c29f">
            <path d="M20.4 0A3.6 3.6 0 0 1 24 3.6v6.672c0 .954-.774 1.728-1.728 1.728H21.12c-5.7 0-10.32 4.62-10.32 10.32A1.68 1.68 0 0 1 9.12 24H3.6A3.6 3.6 0 0 1 0 20.4V3.6A3.6 3.6 0 0 1 3.6 0zM4.8 3.6a1.2 1.2 0 1 0 0 2.4 1.2 1.2 0 0 0 0-2.4zm3.6 0a1.2 1.2 0 1 0 0 2.4 1.2 1.2 0 0 0 0-2.4zm3.6 0A1.2 1.2 0 1 0 12 6a1.2 1.2 0 0 0 0-2.4z"/>
        </clipPath>
        <clipPath id="6dfljle3jg">
            <path d="M4.8 0A1.2 1.2 0 0 1 6 1.2v.205c.12.042.238.091.352.146l.145-.145a1.2 1.2 0 1 1 1.697 1.697l-.145.145c.055.114.104.232.146.352H8.4a1.2 1.2 0 1 1 0 2.4h-.205c-.042.12-.091.238-.146.352l.145.145a1.2 1.2 0 1 1-1.697 1.697l-.145-.145A3.555 3.555 0 0 1 6 8.195V8.4a1.2 1.2 0 1 1-2.4 0v-.205a3.555 3.555 0 0 1-.352-.146l-.145.145a1.2 1.2 0 1 1-1.697-1.697l.145-.145A3.555 3.555 0 0 1 1.405 6H1.2a1.2 1.2 0 1 1 0-2.4h.205c.042-.12.091-.238.146-.352l-.145-.145a1.2 1.2 0 1 1 1.697-1.697l.145.145c.114-.055.232-.104.352-.146V1.2A1.2 1.2 0 0 1 4.8 0zm0 3.6a1.2 1.2 0 1 0 0 2.4 1.2 1.2 0 0 0 0-2.4z"/>
        </clipPath>
    </defs>
    <g clip-path="url(#84abix3ala)" transform="translate(-798 -243)">
        <g clip-path="url(#dddp3e9ufb)" transform="translate(798 253.56)">
            <path fill="#F1BB0B" d="M0 0h35.52v37.44H0V0z"/>
        </g>
        <g clip-path="url(#s7bvvfct4c)" transform="translate(810.48 243)">
            <path fill="#F1BB0B" d="M0 0h35.52v37.44H0V0z"/>
        </g>
        <g clip-path="url(#bl5h48ltwd)" transform="translate(834.48 281.4)">
            <path fill="#FFF" d="M0 0h5.76v5.76H0V0z"/>
        </g>
        <g clip-path="url(#ej5q3v61me)" transform="translate(803.76 246.84)">
            <path fill="#FFF" d="M0 0h5.76v5.76H0V0z"/>
        </g>
        <g clip-path="url(#nxi7p4c29f)" transform="translate(811 255)">
            <path fill="#A8AAB2" d="M0 0h24v24H0V0z"/>
        </g>
        <g clip-path="url(#6dfljle3jg)" transform="translate(824.2 269.4)">
            <path fill="#F1BB0B" d="M0 0h9.6v9.6H0V0z"/>
        </g>
    </g>
</svg>
