<?xml version="1.0" encoding="utf-8"?>
<svg width="51px" height="51px" viewBox="0 0 51 51" version="1.1" xmlns:xlink="http://www.w3.org/1999/xlink" xmlns="http://www.w3.org/2000/svg">
  <g id="Group-4" transform="translate(0.5 0.5)">
    <path d="M25 50C38.8071 50 50 38.8071 50 25C50 11.1929 38.8071 0 25 0C11.1929 0 0 11.1929 0 25C0 38.8071 11.1929 50 25 50Z" id="Oval" fill="none" fill-rule="evenodd" stroke="#F1BB0C" stroke-width="1" />
    <g id="buyer" transform="translate(13 13)">
      <path d="M5.51443 7.99631C4.79275 6.48264 4.52246 5.09809 4.71175 3.88078C4.88078 2.79415 5.42368 1.85815 6.28282 1.17397C7.23337 0.416973 8.51311 2.45571e-05 9.88754 2.45571e-05C11.2614 -3.09944e-05 12.5412 0.416973 13.4917 1.17397C14.3509 1.85822 14.8938 2.79421 15.0628 3.88078C15.252 5.09808 14.9818 6.48262 14.2601 7.99628C13.8906 9.27639 13.3045 10.3643 12.564 11.1433C12.5552 11.1526 12.5464 11.1618 12.5375 11.1709C12.4484 11.6364 12.328 12.816 13.1756 13.5717L13.9539 13.5717C13.9585 13.5716 13.9631 13.5716 13.9677 13.5717L14.221 13.5717C15.6582 13.5717 17.0093 14.0833 18.0492 15.0166C18.489 14.8512 18.9652 14.7607 19.462 14.7607C21.6815 14.7607 23.4868 16.5663 23.4868 18.7858C23.4869 20.8999 21.8487 22.6387 19.775 22.7989L19.775 23.687C19.775 23.7696 19.7419 23.8495 19.6832 23.9082C19.6246 23.9669 19.5446 24 19.462 24L0.313086 24C0.139685 24 0 23.8598 0 23.687L5.54064e-05 18.7857C5.54064e-05 15.9107 2.49118 13.5717 5.55348 13.5717L5.80531 13.5717C5.81102 13.5716 5.81674 13.5716 5.82248 13.5717L6.599 13.5717C7.44699 12.816 7.32621 11.6364 7.237 11.171C7.22815 11.1618 7.21932 11.1526 7.21051 11.1433C6.47005 10.3643 5.88391 9.27646 5.51443 7.99631ZM10.6015 23.3739L19.149 23.3739L19.149 22.7989C17.0753 22.6386 15.4367 20.8999 15.4367 18.7858C15.4368 17.3068 16.2387 16.0115 17.4306 15.3119C16.5826 14.6284 15.5293 14.2399 14.408 14.201L15.0389 15.9416C15.0911 16.0854 15.0318 16.2458 14.8987 16.3209L13.6423 17.0299L14.4112 18.7133C14.4623 18.825 14.4432 18.9562 14.3628 19.0488L10.6015 23.3739ZM13.741 14.1977L14.3601 15.9058L13.0841 16.626C12.9428 16.7059 12.8857 16.8808 12.9532 17.0287L13.758 18.7901L9.91312 23.2116L6.01713 18.7889L6.82141 17.0287C6.88879 16.8808 6.83231 16.7058 6.69047 16.6259L5.41443 15.9058L6.03365 14.1977L6.56328 14.1977L9.64298 18.0391C9.70277 18.1132 9.79246 18.1563 9.88752 18.1563C9.98208 18.1563 10.0723 18.1131 10.1315 18.0391L13.2113 14.1977L13.741 14.1977ZM12.7221 3.0202C12.6651 2.97081 12.5923 2.94446 12.5183 2.94446C12.4934 2.94446 12.4689 2.94734 12.4444 2.95321C12.3467 2.97696 12.2662 3.04639 12.2282 3.13984C11.9901 3.72687 11.0989 4.14443 10.0109 4.17897C9.11854 4.20754 7.93601 3.94738 7.53877 3.12168C7.49636 3.03398 7.41597 2.97092 7.3203 2.95105C7.22519 2.93112 7.1263 2.95675 7.05239 3.0202C6.33936 3.6338 5.89434 5.505 5.66984 6.7388C4.91173 4.57239 5.25415 2.79359 6.67304 1.66366C8.41534 0.275782 11.3592 0.275782 13.1021 1.66371C14.5204 2.79371 14.8629 4.57228 14.1047 6.7388C13.8803 5.50501 13.4352 3.6338 12.7221 3.0202ZM13.6482 7.85961C13.5248 6.91855 13.1322 4.71998 12.5569 3.79386C12.0723 4.38593 11.1397 4.76949 10.0304 4.80476C9.04683 4.83593 7.86264 4.57411 7.22302 3.78533C6.6448 4.70597 6.25072 6.91378 6.12647 7.85839C6.82561 10.2461 8.29722 11.7853 9.88754 11.7853C11.477 11.7852 12.9484 10.2467 13.6482 7.85961ZM7.92948 11.7655C7.94471 12.6169 7.66968 13.3769 7.14162 13.9183L9.88752 17.3428L12.6329 13.9182C12.1049 13.3768 11.8299 12.617 11.8451 11.7657C11.235 12.1905 10.5706 12.4113 9.88754 12.4113C9.20441 12.4113 8.53985 12.1904 7.92948 11.7655ZM0.62606 18.7858C0.62606 16.3142 2.73569 14.2928 5.36659 14.201L4.73567 15.9417C4.68346 16.0854 4.74325 16.2457 4.87646 16.3209L6.13234 17.0299L5.36333 18.7133C5.31168 18.8256 5.33133 18.9576 5.41333 19.0503L9.2217 23.3739L0.626116 23.3739L0.62606 18.7858ZM22.8608 18.7858C22.8608 20.6593 21.3371 22.1837 19.4642 22.1849L19.462 22.1849C17.5877 22.1849 16.0628 20.66 16.0628 18.7858C16.0628 16.9115 17.5877 15.3867 19.462 15.3867C21.3359 15.3867 22.8608 16.9115 22.8608 18.7858ZM19.4573 17.1334L19.462 17.1334L19.4668 17.1334C19.7173 17.1351 20.1348 17.2756 20.1348 17.7931C20.1348 17.966 20.275 18.1061 20.4479 18.1061C20.6207 18.1061 20.7609 17.9659 20.7609 17.7931C20.7609 17.0864 20.3028 16.6618 19.7751 16.5423L19.7751 16.0423C19.7751 15.8695 19.6348 15.7293 19.462 15.7294C19.2892 15.7294 19.1491 15.8695 19.1491 16.0423L19.149 16.5422C18.6209 16.6617 18.1626 17.0863 18.1626 17.7931C18.1626 18.7916 18.9007 18.9673 19.3892 19.0836C19.9196 19.2099 20.1348 19.2804 20.1348 19.7651C20.1348 20.1362 19.8327 20.4382 19.462 20.4382C19.0908 20.4382 18.7887 20.1362 18.7887 19.7651C18.7887 19.5922 18.6485 19.4521 18.4757 19.4521C18.3029 19.4521 18.1626 19.5922 18.1626 19.7651C18.1626 20.3735 18.5834 20.8856 19.1491 21.026L19.149 21.5292C19.149 21.7018 19.2893 21.842 19.462 21.842C19.6348 21.842 19.7751 21.7018 19.7751 21.5292L19.7751 21.026C20.3406 20.8856 20.7609 20.3735 20.7609 19.7651C20.7609 18.7666 20.0229 18.5909 19.5343 18.4746C19.0039 18.3483 18.7887 18.2777 18.7887 17.7931C18.7887 17.2756 19.2068 17.1351 19.4573 17.1334Z" id="Combined-Shape" fill="#FFFFFF" fill-rule="evenodd" stroke="none" />
    </g>
  </g>
</svg>