<svg width="48" height="48" viewBox="0 0 48 48" xmlns="http://www.w3.org/2000/svg">
    <defs>
        <clipPath id="8zrfptfkua">
            <path d="M1920 0v4819H0V0h1920z"/>
        </clipPath>
        <clipPath id="k353fdfthb">
            <path d="M3.728 0 5.05.841C-.417 9.591.627 20.951 7.594 28.54c6.968 7.588 18.122 9.512 27.195 4.69l.731 1.393a24.116 24.116 0 0 1-11.302 2.817c-8.82-.002-16.943-4.837-21.204-12.624A24.595 24.595 0 0 1 3.728 0z"/>
        </clipPath>
        <clipPath id="cpdexscqnc">
            <path d="M0 2.818C9.7-2.336 21.623-.28 29.071 7.832c7.449 8.111 8.565 20.255 2.722 29.608l-1.321-.841a23.006 23.006 0 0 0 .667-23.215C27.152 6.101 19.554 1.578 11.303 1.576c-3.684 0-7.312.905-10.572 2.635z"/>
        </clipPath>
        <clipPath id="mzgpn23xhd">
            <path d="M5.04 0a.72.72 0 0 1 .72.72v4.32a.72.72 0 0 1-.72.72H.72A.72.72 0 0 1 0 5.04V.72A.72.72 0 0 1 .72 0zm-.72 1.44H1.44v2.88h2.88V1.44z"/>
        </clipPath>
        <clipPath id="c5vxcf9uue">
            <path d="M5.04 0a.72.72 0 0 1 .72.72v4.32a.72.72 0 0 1-.72.72H.72A.72.72 0 0 1 0 5.04V.72A.72.72 0 0 1 .72 0zm-.72 1.44H1.44v2.88h2.88V1.44z"/>
        </clipPath>
        <clipPath id="01ahvnxaaf">
            <path d="M9.653 8.566a7.028 7.028 0 0 0 4.72 4.42v5.366a.63.63 0 0 1-.628.628H7.233a.373.373 0 0 0-.188.05L2.85 21.452v-2.097a.375.375 0 0 0-.375-.375H.632A.633.633 0 0 1 0 18.348v-9.15c0-.349.283-.632.632-.632h9.021zM7.164 9.778c-.89 0-1.665.54-1.886 1.31-.287 1 .03 2.264.754 3.006.047.048.094.093.143.134l-.058.214c-.197.047-.533.135-1.13.302-.822.229-1.175.488-1.233 1.501v.031l.001.052c.01.427.015.622.015 1.064a.375.375 0 1 0 .75.002c0-.452-.004-.65-.015-1.084l-.001-.037c.019-.307.062-.484.14-.571.085-.094.27-.16.545-.236 1.036-.29 1.236-.325 1.272-.33a.375.375 0 0 0 .32-.275l.073-.27a1.33 1.33 0 0 0 .667-.008l.074.278c.04.149.168.258.32.275l.04.007c.094.018.38.085 1.234.323.273.076.46.142.543.236.078.087.122.264.141.571v.037c-.011.434-.016.632-.015 1.084a.375.375 0 1 0 .75-.002c-.001-.442.004-.637.014-1.064l.001-.052v-.03c-.058-1.014-.41-1.273-1.233-1.502a32.99 32.99 0 0 0-1.13-.301l-.067-.249c.695-.638 1.206-1.891.857-3.105-.22-.772-.996-1.31-1.886-1.31zm0 .75c.456 0 1.015.24 1.166.768.269.938-.135 1.904-.674 2.373-.355.31-.721.276-1.087-.099-.464-.476-.804-1.457-.57-2.274.15-.528.71-.768 1.165-.768zM16.254 0A6.253 6.253 0 0 1 22.5 6.246a6.253 6.253 0 0 1-6.246 6.246 6.253 6.253 0 0 1-6.246-6.246A6.253 6.253 0 0 1 16.254 0zm.529 2.654c-.072.03-.142.064-.21.101a.376.376 0 0 0-.193.34l.03.977c-.341.657-.74 1.283-1.19 1.871l-.195.006a.374.374 0 0 0-.215.076v-.12a.566.566 0 0 0-.566-.566h-1.629a.566.566 0 0 0-.565.566v3.46c0 .313.253.566.565.567h1.629c.238 0 .45-.15.532-.374.09.028.185.056.283.084.105.03.247.071.285.09a.375.375 0 0 0 .173.042h3.423a.82.82 0 0 0 .8-.632l.695-2.908a.822.822 0 0 0-.8-1.014h-1.131c.012-.673-.055-1.98-.704-2.469-.2-.15-.539-.29-1.017-.097zM14.06 6.09v3.093H12.8V6.089h1.26zm3.078-2.765c.13-.035.184.006.211.026.35.263.464 1.483.39 2.207a.375.375 0 0 0 .372.414h1.524a.073.073 0 0 1 .07.089l-.695 2.908a.068.068 0 0 1-.07.056h-3.347a4.357 4.357 0 0 0-.326-.102c-.117-.034-.33-.096-.457-.148v-2.15a.368.368 0 0 0 .237.075l.369-.011a.376.376 0 0 0 .277-.136 12.966 12.966 0 0 0 1.43-2.227.382.382 0 0 0 .04-.18z"/>
        </clipPath>
        <clipPath id="wylcto4t1g">
            <path d="M3.89 0a3.89 3.89 0 1 1 0 7.781A3.89 3.89 0 0 1 3.89 0zm1.407 1.828H2.484a.657.657 0 0 0-.656.656v2.813c0 .362.294.656.656.656h2.813a.657.657 0 0 0 .656-.656V2.484a.657.657 0 0 0-.656-.656zm-.094.75v2.625H2.578V2.578h2.625zm-.715.281a.375.375 0 1 0 0 .75.375.375 0 0 0 0-.75z"/>
        </clipPath>
        <clipPath id="lbr8ckw7nh">
            <path d="M3.89 0a3.89 3.89 0 1 1 0 7.781A3.89 3.89 0 0 1 3.89 0zm0 2.157c-.387-.274-.853-.355-1.278-.208-.507.175-.85.633-.896 1.196-.098 1.203 1.4 2.362 1.984 2.707.118.07.264.07.381 0 .585-.345 2.082-1.504 1.984-2.707-.046-.563-.389-1.021-.896-1.196-.425-.147-.89-.066-1.278.208zm1.035.501c.224.078.37.283.392.548.049.595-.746 1.421-1.426 1.88-.68-.459-1.475-1.285-1.427-1.88.021-.265.168-.47.392-.548a.581.581 0 0 1 .189-.031c.197 0 .4.098.57.282a.376.376 0 0 0 .551 0c.225-.244.508-.337.759-.25z"/>
        </clipPath>
    </defs>
    <g clip-path="url(#8zrfptfkua)" transform="translate(-798 -3834)">
        <g clip-path="url(#k353fdfthb)" transform="translate(798 3844.56)">
            <path fill="#F1BB0B" d="M0 0h35.52v37.44H0V0z"/>
        </g>
        <g clip-path="url(#cpdexscqnc)" transform="translate(810.48 3834)">
            <path fill="#F1BB0B" d="M0 0h35.52v37.44H0V0z"/>
        </g>
        <g clip-path="url(#mzgpn23xhd)" transform="translate(834.48 3872.4)">
            <path fill="#FFF" d="M0 0h5.76v5.76H0V0z"/>
        </g>
        <g clip-path="url(#c5vxcf9uue)" transform="translate(803.76 3837.84)">
            <path fill="#FFF" d="M0 0h5.76v5.76H0V0z"/>
        </g>
        <g clip-path="url(#01ahvnxaaf)" transform="translate(810.75 3846.75)">
            <path fill="#A8AAB2" d="M0 0h22.5v21.452H0V0z"/>
        </g>
        <g clip-path="url(#wylcto4t1g)" transform="translate(826.219 3862.219)">
            <path fill="#F1BB0B" d="M0 0h7.781v7.781H0V0z"/>
        </g>
        <g clip-path="url(#lbr8ckw7nh)" transform="translate(810 3846)">
            <path fill="#F1BB0B" d="M0 0h7.781v7.781H0V0z"/>
        </g>
    </g>
</svg>
