<svg width="21" height="18" viewBox="0 0 21 18" xmlns="http://www.w3.org/2000/svg">
    <g fill-rule="nonzero" fill="none">
        <path d="M5.678 8.536a4.259 4.259 0 1 0 0-8.517 4.259 4.259 0 0 0 0 8.517zm-.946-3.785a.473.473 0 0 1-.473-.473v-1.42c0-.261.212-.473.473-.473h.473a.473.473 0 0 1 .946 0h.474a.473.473 0 0 1 0 .946h-1.42v.474h1.42c.261 0 .473.211.473.473v1.42a.473.473 0 0 1-.473.472H6.15a.473.473 0 0 1-.946 0h-.473a.473.473 0 0 1 0-.946h1.42v-.473h-1.42z" fill="#F1BB0C"/>
        <path d="M1.42 13.268h.094c9.37-1.893 15.303-8.517 17.413-11.3v.89a.473.473 0 0 0 .947 0V.492a.473.473 0 0 0-.606-.473l-2.271.667a.473.473 0 0 0 .264.91l.005-.001.947-.284C16.249 3.94 10.5 10.495 1.325 12.32a.476.476 0 1 0 .095.947zM20.347 17.054h-.473V9.956a.473.473 0 0 0-.474-.473H14.67a.473.473 0 0 0-.474.473v7.098h-.946v-4.259a.473.473 0 0 0-.473-.473H8.044a.473.473 0 0 0-.473.473v4.259h-.946v-2.366a.473.473 0 0 0-.474-.473H1.42a.473.473 0 0 0-.474.473v2.366H.473a.473.473 0 1 0 0 .946h19.874a.473.473 0 0 0 0-.946z" fill="#A9AAB3"/>
    </g>
</svg>
