<svg xmlns="http://www.w3.org/2000/svg" width="52" height="52" viewBox="0 0 52 52"><g fill="none" transform="translate(1 1)"><path fill="#F1BB0C" d="M25,-0.5 C39.0832611,-0.5 50.5,10.9167389 50.5,25 C50.5,39.0832611 39.0832611,50.5 25,50.5 C10.9167389,50.5 -0.5,39.0832611 -0.5,25 C-0.5,10.9167389 10.9167389,-0.5 25,-0.5 Z M25,0.5 C11.4690236,0.5 0.5,11.4690236 0.5,25 C0.5,38.5309764 11.4690236,49.5 25,49.5 C38.5309764,49.5 49.5,38.5309764 49.5,25 C49.5,11.4690236 38.5309764,0.5 25,0.5 Z"/><path fill="#FFF" d="M2.5,1.5 L17.5,1.5 L17.5,5.675625 C18.05125,5.755625 18.5628125,5.9540625 19,6.2603125 L19,1.5496875 C19,0.6953125 18.3271875,0 17.5,0 L2.5,0 C1.6728125,0 1,0.6953125 1,1.5496875 L1,6.26 C1.4371875,5.95375 1.94875,5.7553125 2.5,5.6753125 L2.5,1.5 Z M3.375,12.625 L2.625,12.625 C1.1778125,12.625 0,13.8028125 0,15.25 C0,15.6640625 0.3359375,16 0.75,16 C1.1640625,16 1.5,15.6640625 1.5,15.25 C1.5,14.63 2.005,14.125 2.625,14.125 L3.375,14.125 C3.995,14.125 4.5,14.63 4.5,15.25 C4.5,15.6640625 4.8359375,16 5.25,16 C5.6640625,16 6,15.6640625 6,15.25 C6,13.8028125 4.8221875,12.625 3.375,12.625 Z M17,6.625 C15.619375,6.625 14.5,7.744375 14.5,9.125 C14.5,10.505625 15.619375,11.625 17,11.625 C18.380625,11.625 19.5,10.505625 19.5,9.125 C19.5,7.744375 18.380625,6.625 17,6.625 Z M17,10.125 C16.44875,10.125 16,9.67625 16,9.125 C16,8.57375 16.44875,8.125 17,8.125 C17.55125,8.125 18,8.57375 18,9.125 C18,9.67625 17.55125,10.125 17,10.125 Z M17.375,12.625 L16.625,12.625 C15.1778125,12.625 14,13.8028125 14,15.25 C14,15.6640625 14.3359375,16 14.75,16 C15.1640625,16 15.5,15.6640625 15.5,15.25 C15.5,14.63 16.005,14.125 16.625,14.125 L17.375,14.125 C17.995,14.125 18.5,14.63 18.5,15.25 C18.5,15.6640625 18.8359375,16 19.25,16 C19.6640625,16 20,15.6640625 20,15.25 C20,13.8028125 18.8221875,12.625 17.375,12.625 Z M3,11.625 C4.380625,11.625 5.5,10.505625 5.5,9.125 C5.5,7.744375 4.380625,6.625 3,6.625 C1.619375,6.625 0.5,7.744375 0.5,9.125 C0.5,10.505625 1.619375,11.625 3,11.625 Z M3,8.125 C3.55125,8.125 4,8.57375 4,9.125 C4,9.67625 3.55125,10.125 3,10.125 C2.44875,10.125 2,9.67625 2,9.125 C2,8.57375 2.44875,8.125 3,8.125 Z M7.5,9.125 C7.5,10.505625 8.619375,11.625 10,11.625 C11.380625,11.625 12.5,10.505625 12.5,9.125 C12.5,7.744375 11.380625,6.625 10,6.625 C8.619375,6.625 7.5,7.744375 7.5,9.125 Z M11,9.125 C11,9.67625 10.55125,10.125 10,10.125 C9.44875,10.125 9,9.67625 9,9.125 C9,8.57375 9.44875,8.125 10,8.125 C10.55125,8.125 11,8.57375 11,9.125 Z M10.375,12.625 L9.625,12.625 C8.1778125,12.625 7,13.8028125 7,15.25 C7,15.6640625 7.3359375,16 7.75,16 C8.1640625,16 8.5,15.6640625 8.5,15.25 C8.5,14.63 9.005,14.125 9.625,14.125 L10.375,14.125 C10.995,14.125 11.5,14.63 11.5,15.25 C11.5,15.6640625 11.8359375,16 12.25,16 C12.6640625,16 13,15.6640625 13,15.25 C13,13.8028125 11.8221875,12.625 10.375,12.625 Z" transform="translate(15 17)"/></g></svg>