<svg width="20" height="20" viewBox="0 0 20 20" xmlns="http://www.w3.org/2000/svg">
    <g fill-rule="nonzero" fill="none">
        <path fill="#F1BB0C" d="M2.82 13.2 0 14.58l1.4 2.865.69-.342 2.13-1.038zM3.81 16.98l-1.433.704.746 1.529a.8.8 0 0 0 1.435-.703l-.748-1.53zM9.387 16.316a.625.625 0 0 0 .558-.897l-.89-1.813-1.323-2.712-.89-1.813a.622.622 0 0 0-1.048-.11l-.446.564-2.106 3.055 1.72 3.513 3.706.216.72-.003z"/>
        <path d="M18.829 3.397h-1.716v1.242h1.645v9.587h-8.68l.445.91a1.26 1.26 0 0 1-.336 1.535h8.642c.648 0 1.171-.526 1.171-1.174V4.567a1.17 1.17 0 0 0-1.171-1.17zM11.452 15.77a.324.324 0 0 1-.323-.323.324.324 0 0 1 .645 0 .324.324 0 0 1-.322.323zM4.145 4.639H5.79V3.397H4.074a1.17 1.17 0 0 0-1.17 1.17v7.375l1.241-1.797V4.64z" fill="#A9AAB3"/>
        <path d="M12.455 10.571a2.507 2.507 0 1 0 5.014-.001 2.507 2.507 0 0 0-5.014.001zm3.687.268-1.461.958a.319.319 0 0 1-.494-.268v-1.92c0-.254.28-.406.494-.267l1.46.958c.191.132.191.413 0 .539zM7.116 5.742H9.59a.67.67 0 0 1 .481.2l1.135 1.135a.34.34 0 0 0 .481 0l1.136-1.135c.129-.13.3-.2.48-.2h2.474a.68.68 0 0 0 .681-.68V.68a.68.68 0 0 0-.68-.681H7.115a.68.68 0 0 0-.68.68v4.381c0 .378.306.68.68.68zm3.31-4.526c.42 0 .79.203 1.026.516a1.277 1.277 0 0 1 2.303.765c0 1.435-2.303 2.316-2.303 2.316s-2.307-.88-2.307-2.316c0-.707.574-1.28 1.28-1.28z" fill="#F1BB0C"/>
        <path d="M16.184 18.694h-1.349l-.935-1.378H9.003l-.935 1.378H6.719a.324.324 0 0 0-.322.322c0 .178.145.323.322.323h9.465a.324.324 0 0 0 .322-.323.324.324 0 0 0-.322-.322z" fill="#A9AAB3"/>
        <path d="m8.377 10.748 1.19 2.44a1.51 1.51 0 0 0 .181-1.6 1.505 1.505 0 0 0-1.37-.84z" fill="#F1BB0C"/>
    </g>
</svg>
