<svg xmlns="http://www.w3.org/2000/svg" width="52" height="52" viewBox="0 0 52 52"><g fill="none" transform="translate(1 1)"><path fill="#F1BB0C" d="M25,-0.5 C39.0832611,-0.5 50.5,10.9167389 50.5,25 C50.5,39.0832611 39.0832611,50.5 25,50.5 C10.9167389,50.5 -0.5,39.0832611 -0.5,25 C-0.5,10.9167389 10.9167389,-0.5 25,-0.5 Z M25,0.5 C11.4690236,0.5 0.5,11.4690236 0.5,25 C0.5,38.5309764 11.4690236,49.5 25,49.5 C38.5309764,49.5 49.5,38.5309764 49.5,25 C49.5,11.4690236 38.5309764,0.5 25,0.5 Z"/><path fill="#FFF" d="M33.375,22.875 C36.6916667,22.875 39.375,25.5583333 39.375,28.875 C39.375,32.1916667 36.6916667,34.875 33.375,34.875 C30.0583333,34.875 27.375,32.1916667 27.375,28.875 C27.375,25.5583333 30.0583333,22.875 33.375,22.875 Z M19.725,25.6875 C20.7375,25.6875 21.2191406,26.25 22.875,26.25 C24.5625,26.25 24.9738281,25.6804688 26.0777344,25.6945312 C25.884375,26.2429687 25.7578125,26.8230469 25.7121094,27.4242188 C25.35,27.5121094 24.3867188,27.9375 22.875,27.9375 C21.0714844,27.9375 20.2382812,27.375 19.725,27.375 C18.0515625,27.375 16.6875,28.7390625 16.6875,30.4125 L16.6875,31.3125 L26.5980469,31.3125 C26.9671875,31.9488281 27.4382812,32.5183594 27.9867188,33 L16.6875,33 C15.7558594,33 15,32.2441406 15,31.3125 L15,30.4125 C15,27.8039063 17.1164063,25.6875 19.725,25.6875 Z M35.25,29.5 C34.2828125,29.5 33.5,30.2828125 33.5,31.25 C33.5,32.2171875 34.2828125,33 35.25,33 C36.2171875,33 37,32.2171875 37,31.25 C37,30.2828125 36.2171875,29.5 35.25,29.5 Z M36.6234375,25.0015572 L36.1296875,25.003125 C36.0078125,25.003125 35.89375,25.0625 35.8234375,25.1625 L30.0734375,32.4078125 C29.8984375,32.65625 30.0765625,32.9984375 30.38125,32.9984375 L30.903125,32.996875 C31.025,32.9967187 31.1392188,32.9373437 31.209375,32.8375 L36.93125,25.5921875 C37.10625,25.3421875 36.9265625,25 36.6234375,25.0015572 Z M35.25,30.5 C35.6640625,30.5 36,30.8359375 36,31.25 C36,31.6640625 35.6640625,32 35.25,32 C34.8359375,32 34.5,31.6640625 34.5,31.25 C34.5,30.8359375 34.8359375,30.5 35.25,30.5 Z M31.75,25 C30.7828125,25 30,25.7828125 30,26.75 C30,27.7171875 30.7828125,28.5 31.75,28.5 C32.7171875,28.5 33.5,27.7171875 33.5,26.75 C33.5,25.7828125 32.7171875,25 31.75,25 Z M31.75,26 C32.1640625,26 32.5,26.3359375 32.5,26.75 C32.5,27.1640625 32.1640625,27.5 31.75,27.5 C31.3359375,27.5 31,27.1640625 31,26.75 C31,26.3359375 31.3359375,26 31.75,26 Z M22.875,15 C25.6699219,15 27.9375,17.2675781 27.9375,20.0625 C27.9375,22.8574219 25.6699219,25.125 22.875,25.125 C20.0800781,25.125 17.8125,22.8574219 17.8125,20.0625 C17.8125,17.2675781 20.0800781,15 22.875,15 Z M22.875,16.6875 C21.0152344,16.6875 19.5,18.2027344 19.5,20.0625 C19.5,21.9222656 21.0152344,23.4375 22.875,23.4375 C24.7347656,23.4375 26.25,21.9222656 26.25,20.0625 C26.25,18.2027344 24.7347656,16.6875 22.875,16.6875 Z"/></g></svg>