<svg width="22" height="22" viewBox="0 0 22 22" xmlns="http://www.w3.org/2000/svg">
    <g fill-rule="nonzero" fill="none">
        <path d="M7.25 4.5H6V6h1.25c.138 0 .25-.168.25-.375v-.75c0-.207-.112-.375-.25-.375zM7.25 7H6v1.5h1.25c.138 0 .25-.168.25-.375v-.75C7.5 7.168 7.388 7 7.25 7z" fill="#A9AAB3"/>
        <path d="M15.5 9c-.489 0-.975.055-1.45.164-.005.017-.013.033-.018.05-.039.13-.082.26-.13.388a6.066 6.066 0 0 1 1.597-.22A6.118 6.118 0 1 1 9.382 15.5c.002-.54.076-1.077.22-1.597a6.35 6.35 0 0 1-.388.13l-.05.017A6.5 6.5 0 1 0 15.5 9z" fill="#F1BB0C"/>
        <path d="M11.538 8.703A5.5 5.5 0 1 0 1.462 4.296a5.5 5.5 0 0 0 10.076 4.407zm-2.68-2.989c-.002.291-.111.571-.307.786.196.215.305.495.306.786v.785c0 .651-.528 1.179-1.178 1.179h-.393v.786H6.5V9.25h-.393v.786h-.786V9.25H4.143v-.786h.786V4.536h-.786V3.75H5.32v-.786h.786v.786H6.5v-.786h.786v.786h.393c.65 0 1.178.528 1.178 1.179v.785z" fill="#A9AAB3"/>
        <path d="M12.027 9.92c.088-.143.17-.288.247-.436a6.5 6.5 0 1 0-2.79 2.79 6.565 6.565 0 0 0 2.543-2.355zm-3.664 2.407c-.18.058-.364.105-.548.145-.02.004-.039.011-.059.015a6.115 6.115 0 1 1 4.347-3.534 6.11 6.11 0 0 1-1.121 1.702c-.052.057-.101.115-.156.171-.072.072-.15.138-.226.206-.064.058-.126.12-.191.175-.038.032-.08.06-.12.09a6.077 6.077 0 0 1-1.925 1.032l-.001-.002z" fill="#A9AAB3"/>
        <path d="M13.174 10.825c-.059.094-.122.184-.186.275-.043.062-.084.125-.128.185a6.92 6.92 0 0 1-.23.29l-.118.146a7.371 7.371 0 0 1-.788.788c-.046.04-.095.076-.142.115-.097.078-.194.16-.295.236-.058.043-.117.082-.179.124-.093.064-.186.13-.282.19-.065.042-.133.079-.2.118-.067.04-.142.088-.216.127a5.5 5.5 0 1 0 3.01-3.01c-.038.072-.082.14-.123.21-.041.07-.08.14-.123.206zm2.326 5.068a1.964 1.964 0 0 1-.393-3.89v-.824h.786v.825c.914.187 1.57.992 1.571 1.925h-.785a1.179 1.179 0 1 0-1.179 1.178 1.964 1.964 0 0 1 .393 3.89v.824h-.786v-.825a1.968 1.968 0 0 1-1.571-1.925h.785a1.179 1.179 0 1 0 1.179-1.178z" fill="#F1BB0C"/>
        <path d="M14.499 2c2.191.007 3.701 1.684 4.282 3.582l-1.057-.53a.5.5 0 0 0-.448.895l2 1c.007.004.014.002.02.005a.49.49 0 0 0 .269.044.497.497 0 0 0 .191-.068c.005-.002.007-.007.012-.01a.491.491 0 0 0 .157-.17c.006-.01.017-.014.022-.024l1-2a.5.5 0 1 0-.894-.448l-.388.776C18.915 2.88 17.1 1.008 14.5 1H14.5a.5.5 0 0 0-.001 1z" fill="#A9AAB3"/>
        <path d="M7.501 20C5.31 19.991 3.8 18.313 3.22 16.415l1.057.529a.501.501 0 0 0 .448-.895l-2-1.001c-.012-.006-.025-.005-.037-.01a.466.466 0 0 0-.2-.035c-.018 0-.034-.006-.052-.003-.016.002-.03.011-.045.015a.482.482 0 0 0-.245.14.48.48 0 0 0-.064.08c-.008.014-.02.022-.028.037l-1 2.001a.5.5 0 0 0 .894.448l.388-.776C3.085 19.118 4.9 20.992 7.5 21H7.5a.5.5 0 0 0 .001-1z" fill="#F1BB0C"/>
    </g>
</svg>
