<svg width="20" height="20" viewBox="0 0 20 20" xmlns="http://www.w3.org/2000/svg">
    <g fill-rule="nonzero" fill="none">
        <path d="M18.571 0H1.43A1.433 1.433 0 0 0 0 1.429V6.19c.002.788.64 1.427 1.429 1.429h.476v-3.81c0-.525.426-.952.952-.952H17.62c.263 0 .476.213.476.476V7.62h.476A1.433 1.433 0 0 0 20 6.19V1.43A1.433 1.433 0 0 0 18.571 0z" fill="#F1BB0C"/>
        <path d="M18.095 2.857v.476a.476.476 0 0 0-.476-.476h.476z" fill="#FFF"/>
        <path d="M2.857 4.762v12.857c.002.788.64 1.426 1.429 1.429h11.428a1.433 1.433 0 0 0 1.429-1.429V4.762a.952.952 0 0 0-.953-.952H3.81a.952.952 0 0 0-.953.952zm9.384 7.003-1.904 1.905a.476.476 0 0 1-.674 0L7.76 11.765a.476.476 0 0 1 .673-.673l1.092 1.092V8.57a.476.476 0 0 1 .952 0v3.613l1.092-1.092a.476.476 0 0 1 .673.673z" fill="#A9AAB3"/>
    </g>
</svg>
