<svg width="20" height="20" viewBox="0 0 20 20" xmlns="http://www.w3.org/2000/svg">
    <g fill="none" fill-rule="evenodd">
        <path d="M3 0a3 3 0 0 0-3 3v14a3 3 0 0 0 3 3h4.6A1.4 1.4 0 0 0 9 18.6a8.6 8.6 0 0 1 8.6-8.6h.96A1.44 1.44 0 0 0 20 8.56V3a3 3 0 0 0-3-3H3zm2 4a1 1 0 1 1-2 0 1 1 0 0 1 2 0zm2 1a1 1 0 1 0 0-2 1 1 0 0 0 0 2zm4-1a1 1 0 1 1-2 0 1 1 0 0 1 2 0z" fill="#A9AAB3"/>
        <path d="M16 13a1 1 0 1 0-2 0v.17c-.1.036-.198.077-.293.122l-.121-.12a1 1 0 1 0-1.414 1.414l.12.12a2.963 2.963 0 0 0-.121.294H12a1 1 0 1 0 0 2h.17c.036.1.077.198.122.293l-.12.121a1 1 0 1 0 1.414 1.414l.12-.12c.096.045.194.086.294.121V19a1 1 0 1 0 2 0v-.17c.1-.036.198-.077.293-.122l.121.12a1 1 0 1 0 1.414-1.414l-.12-.12c.045-.096.086-.194.121-.294H18a1 1 0 1 0 0-2h-.17a2.963 2.963 0 0 0-.122-.293l.12-.121a1 1 0 1 0-1.414-1.414l-.12.12a2.963 2.963 0 0 0-.294-.121V13zm-1 2a1 1 0 1 0 0 2 1 1 0 0 0 0-2z" fill="#F1BB0C"/>
    </g>
</svg>
