<svg width="48" height="48" viewBox="0 0 48 48" xmlns="http://www.w3.org/2000/svg">
    <g fill-rule="nonzero" fill="none">
        <path d="M24.218 48c3.938 0 7.817-.967 11.302-2.817l-.73-1.393c-9.074 4.822-20.228 2.898-27.196-4.69C.627 31.512-.417 20.151 5.05 11.401l-1.322-.841a24.595 24.595 0 0 0-.714 24.816C7.275 43.163 15.397 47.998 24.218 48zM23.783 1.576c8.251.002 15.85 4.525 19.836 11.808a23.006 23.006 0 0 1-.667 23.215l1.321.841C50.116 28.087 49 15.943 41.551 7.832 34.103-.279 22.18-2.336 12.48 2.818l.73 1.393a22.553 22.553 0 0 1 10.573-2.635z" fill="#F1BB0C"/>
        <path d="M37.2 44.16h4.32a.72.72 0 0 0 .72-.72v-4.32a.72.72 0 0 0-.72-.72H37.2a.72.72 0 0 0-.72.72v4.32a.72.72 0 0 0 .72.72zm.72-4.32h2.88v2.88h-2.88v-2.88zM6.48 9.6h4.32a.72.72 0 0 0 .72-.72V4.56a.72.72 0 0 0-.72-.72H6.48a.72.72 0 0 0-.72.72v4.32a.72.72 0 0 0 .72.72zm.72-4.32h2.88v2.88H7.2V5.28z" fill="#FFF"/>
        <path d="M23.703 24.703V12C16.9 12.357 11.357 17.899 11 24.703h12.703zm-2.812-2.11h-1.407v-1.405h1.407v1.406zm-4.22-4.218h1.407v1.406h-1.406v-1.406zm3.517-.291.994.994-3.807 3.807-.994-.994 3.806-3.807zM23.703 26.11h-8.41c.342 4.48 3.93 8.067 8.41 8.41v-8.41z" fill="#A9AAB3"/>
        <path d="M25.11 14.813V36c5.487-.364 9.89-5.085 9.89-10.664s-4.402-10.16-9.89-10.523zm4.218 9.89c1.163 0 2.11.946 2.11 2.11 0 .915-.59 1.688-1.407 1.98v1.535h-1.406v-1.536a2.106 2.106 0 0 1-1.406-1.98h1.406a.704.704 0 1 0 .703-.703A2.112 2.112 0 0 1 27.218 24c0-.915.59-1.689 1.407-1.98v-1.536h1.406v1.536A2.106 2.106 0 0 1 31.438 24H30.03a.704.704 0 1 0-.703.703z" fill="#F1BB0C"/>
    </g>
</svg>
