<svg width="19" height="19" viewBox="0 0 19 19" xmlns="http://www.w3.org/2000/svg">
    <g fill-rule="nonzero" fill="none">
        <path d="M7.323 0H1.385C.621 0 0 .621 0 1.385v3.563c0 .764.621 1.385 1.385 1.385h5.938c.764 0 1.385-.621 1.385-1.385V1.385C8.708.621 8.087 0 7.323 0z" fill="#F1BB0C"/>
        <path d="M7.323 7.917H1.385C.621 7.917 0 8.538 0 9.302v8.313C0 18.379.621 19 1.385 19h5.938c.764 0 1.385-.621 1.385-1.385V9.302c0-.764-.621-1.385-1.385-1.385z" fill="#A9AAB3"/>
        <path d="M17.615 12.667h-5.938c-.764 0-1.385.621-1.385 1.385v3.563c0 .764.621 1.385 1.385 1.385h5.938c.764 0 1.385-.621 1.385-1.385v-3.563c0-.764-.621-1.385-1.385-1.385z" fill="#F1BB0C"/>
        <path d="M17.615 0h-5.938c-.764 0-1.385.621-1.385 1.385v8.313c0 .764.621 1.385 1.385 1.385h5.938c.764 0 1.385-.621 1.385-1.385V1.385C19 .621 18.379 0 17.615 0z" fill="#A9AAB3"/>
    </g>
</svg>
