<?xml version="1.0" encoding="utf-8"?>
<svg width="56px" height="48px" viewBox="0 0 56 48" version="1.1" xmlns:xlink="http://www.w3.org/1999/xlink" xmlns="http://www.w3.org/2000/svg">
  <defs>
    <path d="M37.999 14L54.001 14Q54.0992 14 54.1969 14.0096Q54.2947 14.0193 54.391 14.0384Q54.4873 14.0576 54.5813 14.0861Q54.6753 14.1146 54.766 14.1522Q54.8567 14.1897 54.9433 14.236Q55.0299 14.2823 55.1116 14.3369Q55.1932 14.3914 55.2692 14.4538Q55.3451 14.5161 55.4145 14.5855Q55.4839 14.6549 55.5462 14.7308Q55.6085 14.8068 55.6631 14.8884Q55.7177 14.9701 55.764 15.0567Q55.8102 15.1433 55.8478 15.234Q55.8854 15.3247 55.9139 15.4187Q55.9424 15.5127 55.9616 15.609Q55.9807 15.7053 55.9904 15.8031Q56 15.9008 56 15.999L56 32.001Q56 32.0992 55.9904 32.1969Q55.9807 32.2947 55.9616 32.391Q55.9424 32.4873 55.9139 32.5813Q55.8854 32.6753 55.8478 32.766Q55.8102 32.8567 55.764 32.9433Q55.7177 33.0299 55.6631 33.1116Q55.6085 33.1932 55.5462 33.2691Q55.4839 33.3451 55.4145 33.4145Q55.3451 33.4839 55.2691 33.5462Q55.1932 33.6085 55.1116 33.6631Q55.0299 33.7177 54.9433 33.764Q54.8567 33.8102 54.766 33.8478Q54.6753 33.8854 54.5813 33.9139Q54.4873 33.9424 54.391 33.9616Q54.2947 33.9807 54.1969 33.9904Q54.0992 34 54.001 34L37.999 34Q37.9008 34 37.8031 33.9904Q37.7053 33.9807 37.609 33.9616Q37.5127 33.9424 37.4187 33.9139Q37.3247 33.8854 37.234 33.8478Q37.1433 33.8102 37.0567 33.764Q36.9701 33.7177 36.8884 33.6631Q36.8068 33.6085 36.7308 33.5462Q36.6549 33.4839 36.5855 33.4145Q36.5161 33.3451 36.4538 33.2691Q36.3915 33.1932 36.3369 33.1116Q36.2823 33.0299 36.236 32.9433Q36.1897 32.8567 36.1522 32.766Q36.1146 32.6753 36.0861 32.5813Q36.0576 32.4873 36.0384 32.391Q36.0192 32.2947 36.0096 32.1969Q36 32.0992 36 32.001L36 15.999Q36 15.9008 36.0096 15.8031Q36.0192 15.7053 36.0384 15.609Q36.0576 15.5127 36.0861 15.4187Q36.1146 15.3247 36.1522 15.234Q36.1897 15.1433 36.236 15.0567Q36.2823 14.9701 36.3369 14.8884Q36.3915 14.8068 36.4538 14.7308Q36.5161 14.6549 36.5855 14.5855Q36.6549 14.5161 36.7308 14.4538Q36.8068 14.3915 36.8884 14.3369Q36.9701 14.2823 37.0567 14.236Q37.1433 14.1897 37.234 14.1522Q37.3247 14.1146 37.4187 14.0861Q37.5127 14.0576 37.609 14.0384Q37.7053 14.0193 37.8031 14.0096Q37.9008 14 37.999 14Z" id="path_1" />
    <clipPath id="mask_1">
      <use xlink:href="#path_1" />
    </clipPath>
  </defs>
  <g id="data-security">
    <path d="M24.2176 48C28.1559 47.9994 32.0349 47.0327 35.52 45.1833L34.7891 43.7903C25.716 48.6121 14.5618 46.6884 7.59417 39.1C0.626538 31.5117 -0.417105 20.151 5.04967 11.4015L3.72832 10.56C-0.973361 18.0841 -1.24692 27.5902 3.01416 35.3764C7.27524 43.1627 15.3974 47.9982 24.2176 48L24.2176 48Z" id="Path" fill="#F1BB0C" stroke="none" />
    <path d="M23.7829 1.57614C32.0342 1.57767 39.6324 6.10085 43.6189 13.3843C47.6053 20.6677 47.3497 29.5601 42.9516 36.5985L44.273 37.44C50.1159 28.0869 48.9996 15.9435 41.5512 7.83227C34.1029 -0.278958 22.1795 -2.3357 12.48 2.81758L13.2109 4.21054C16.4706 2.4806 20.099 1.57645 23.7829 1.57614Z" id="Path" fill="#F1BB0C" stroke="none" />
    <path d="M37.2 44.16L41.52 44.16C41.711 44.16 41.8941 44.0842 42.0292 43.9492C42.1642 43.8141 42.2401 43.631 42.24 43.44L42.24 39.12C42.2401 38.929 42.1642 38.7459 42.0292 38.6108C41.8941 38.4758 41.711 38.4 41.52 38.4L37.2 38.4C37.009 38.4 36.8259 38.4758 36.6908 38.6108C36.5558 38.7459 36.4799 38.929 36.48 39.12L36.48 43.44C36.4799 43.631 36.5558 43.8141 36.6908 43.9492C36.8259 44.0842 37.009 44.16 37.2 44.16L37.2 44.16ZM37.92 39.84L40.8 39.84L40.8 42.72L37.92 42.72L37.92 39.84Z" id="Shape" fill="#FFFFFF" stroke="none" />
    <path d="M6.48 9.6L10.8 9.6C10.991 9.60005 11.1741 9.52421 11.3092 9.38917C11.4442 9.25414 11.5201 9.07097 11.52 8.88L11.52 4.56C11.5201 4.36903 11.4442 4.18587 11.3092 4.05083C11.1741 3.91579 10.991 3.83995 10.8 3.84L6.48 3.84C6.28903 3.83995 6.10587 3.91579 5.97083 4.05083C5.83579 4.18587 5.75995 4.36903 5.76 4.56L5.76 8.88C5.75995 9.07097 5.83579 9.25414 5.97083 9.38917C6.10587 9.52421 6.28903 9.60005 6.48 9.6L6.48 9.6ZM7.2 5.28L10.08 5.28L10.08 8.16L7.2 8.16L7.2 5.28Z" id="Shape" fill="#FFFFFF" stroke="none" />
    <g id="dollar-bill" transform="translate(10 15)">
      <path d="M27.5625 13.125L5.6875 13.125C5.44588 13.125 5.25 12.9291 5.25 12.6875L5.25 0.4375C5.25 0.195875 5.44588 0 5.6875 0L27.5625 0C27.8041 0 28 0.195875 28 0.4375L28 12.6875C28 12.9291 27.8041 13.125 27.5625 13.125ZM6.125 12.25L27.125 12.25L27.125 0.875L6.125 0.875L6.125 12.25Z" id="Shape" fill="#FFFFFF" stroke="none" />
      <path d="M17.0625 8.75L16.1875 8.75C15.4626 8.75 14.875 8.16237 14.875 7.4375L15.75 7.4375C15.75 7.67912 15.9459 7.875 16.1875 7.875L17.0625 7.875C17.3041 7.875 17.5 7.67912 17.5 7.4375C17.5 7.19588 17.3041 7 17.0625 7L16.1875 7C15.4626 7 14.875 6.41237 14.875 5.6875C14.875 4.96263 15.4626 4.375 16.1875 4.375L17.0625 4.375C17.7874 4.375 18.375 4.96263 18.375 5.6875L17.5 5.6875C17.5 5.44588 17.3041 5.25 17.0625 5.25L16.1875 5.25C15.9459 5.25 15.75 5.44588 15.75 5.6875C15.75 5.92912 15.9459 6.125 16.1875 6.125L17.0625 6.125C17.7874 6.125 18.375 6.71263 18.375 7.4375C18.375 8.16237 17.7874 8.75 17.0625 8.75L17.0625 8.75Z" id="Path" fill="#FFFFFF" stroke="none" />
      <path d="M16.1875 3.9375L17.0625 3.9375L17.0625 4.8125L16.1875 4.8125L16.1875 3.9375Z" id="Path" fill="#FFFFFF" stroke="none" />
      <path d="M16.1875 8.3125L17.0625 8.3125L17.0625 9.1875L16.1875 9.1875L16.1875 8.3125Z" id="Path" fill="#FFFFFF" stroke="none" />
      <path d="M24.0625 11.375L9.1875 11.375C8.94588 11.375 8.75 11.1791 8.75 10.9375C8.75 10.2126 8.16237 9.625 7.4375 9.625C7.19588 9.625 7 9.42912 7 9.1875L7 3.9375C7 3.69588 7.19588 3.5 7.4375 3.5C8.16237 3.5 8.75 2.91237 8.75 2.1875C8.75 1.94588 8.94588 1.75 9.1875 1.75L24.0625 1.75C24.3041 1.75 24.5 1.94588 24.5 2.1875C24.5 2.91237 25.0876 3.5 25.8125 3.5C26.0541 3.5 26.25 3.69588 26.25 3.9375L26.25 9.1875C26.25 9.42912 26.0541 9.625 25.8125 9.625C25.0876 9.625 24.5 10.2126 24.5 10.9375C24.5 11.1791 24.3041 11.375 24.0625 11.375ZM9.58125 10.5L23.6688 10.5C23.8454 9.64137 24.5164 8.9704 25.375 8.79375L25.375 4.33125C24.5164 4.1546 23.8454 3.48363 23.6688 2.625L9.58125 2.625C9.4046 3.48363 8.73363 4.1546 7.875 4.33125L7.875 8.79375C8.73363 8.9704 9.4046 9.64137 9.58125 10.5L9.58125 10.5Z" id="Shape" fill="#FFFFFF" stroke="none" />
      <path d="M16.625 11.375C13.9671 11.375 11.8125 9.22037 11.8125 6.5625C11.8125 3.90463 13.9671 1.75 16.625 1.75C19.2829 1.75 21.4375 3.90463 21.4375 6.5625C21.4344 9.21907 19.2816 11.3719 16.625 11.375L16.625 11.375ZM16.625 2.625C14.4504 2.625 12.6875 4.38788 12.6875 6.5625C12.6875 8.73712 14.4504 10.5 16.625 10.5C18.7996 10.5 20.5625 8.73712 20.5625 6.5625C20.5598 4.38898 18.7985 2.62765 16.625 2.625Z" id="Shape" fill="#FFFFFF" stroke="none" />
      <path d="M7 15.75L3.0625 15.75C2.82088 15.75 2.625 15.5541 2.625 15.3125L2.625 3.0625C2.625 2.82088 2.82088 2.625 3.0625 2.625L5.6875 2.625L5.6875 3.5L3.5 3.5L3.5 14.875L7 14.875L7 15.75Z" id="Path" fill="#FFFFFF" stroke="none" />
      <path d="M24.9375 15.75L9.625 15.75L9.625 14.875L24.5 14.875L24.5 12.6875L25.375 12.6875L25.375 15.3125C25.375 15.5541 25.1791 15.75 24.9375 15.75Z" id="Path" fill="#FFFFFF" stroke="none" />
      <path d="M22.3125 18.375L0.4375 18.375C0.195875 18.375 2.95905e-17 18.1791 0 17.9375L0 5.6875C-2.95905e-17 5.44588 0.195875 5.25 0.4375 5.25L3.0625 5.25L3.0625 6.125L0.875 6.125L0.875 17.5L21.875 17.5L21.875 15.3125L22.75 15.3125L22.75 17.9375C22.75 18.1791 22.5541 18.375 22.3125 18.375Z" id="Path" fill="#FFFFFF" stroke="none" />
      <path d="M7.875 14.875L8.75 14.875L8.75 15.75L7.875 15.75L7.875 14.875Z" id="Path" fill="#FFFFFF" stroke="none" />
    </g>
    <path d="M37.999 14L54.001 14Q54.0992 14 54.1969 14.0096Q54.2947 14.0193 54.391 14.0384Q54.4873 14.0576 54.5813 14.0861Q54.6753 14.1146 54.766 14.1522Q54.8567 14.1897 54.9433 14.236Q55.0299 14.2823 55.1116 14.3369Q55.1932 14.3914 55.2692 14.4538Q55.3451 14.5161 55.4145 14.5855Q55.4839 14.6549 55.5462 14.7308Q55.6085 14.8068 55.6631 14.8884Q55.7177 14.9701 55.764 15.0567Q55.8102 15.1433 55.8478 15.234Q55.8854 15.3247 55.9139 15.4187Q55.9424 15.5127 55.9616 15.609Q55.9807 15.7053 55.9904 15.8031Q56 15.9008 56 15.999L56 32.001Q56 32.0992 55.9904 32.1969Q55.9807 32.2947 55.9616 32.391Q55.9424 32.4873 55.9139 32.5813Q55.8854 32.6753 55.8478 32.766Q55.8102 32.8567 55.764 32.9433Q55.7177 33.0299 55.6631 33.1116Q55.6085 33.1932 55.5462 33.2691Q55.4839 33.3451 55.4145 33.4145Q55.3451 33.4839 55.2691 33.5462Q55.1932 33.6085 55.1116 33.6631Q55.0299 33.7177 54.9433 33.764Q54.8567 33.8102 54.766 33.8478Q54.6753 33.8854 54.5813 33.9139Q54.4873 33.9424 54.391 33.9616Q54.2947 33.9807 54.1969 33.9904Q54.0992 34 54.001 34L37.999 34Q37.9008 34 37.8031 33.9904Q37.7053 33.9807 37.609 33.9616Q37.5127 33.9424 37.4187 33.9139Q37.3247 33.8854 37.234 33.8478Q37.1433 33.8102 37.0567 33.764Q36.9701 33.7177 36.8884 33.6631Q36.8068 33.6085 36.7308 33.5462Q36.6549 33.4839 36.5855 33.4145Q36.5161 33.3451 36.4538 33.2691Q36.3915 33.1932 36.3369 33.1116Q36.2823 33.0299 36.236 32.9433Q36.1897 32.8567 36.1522 32.766Q36.1146 32.6753 36.0861 32.5813Q36.0576 32.4873 36.0384 32.391Q36.0192 32.2947 36.0096 32.1969Q36 32.0992 36 32.001L36 15.999Q36 15.9008 36.0096 15.8031Q36.0192 15.7053 36.0384 15.609Q36.0576 15.5127 36.0861 15.4187Q36.1146 15.3247 36.1522 15.234Q36.1897 15.1433 36.236 15.0567Q36.2823 14.9701 36.3369 14.8884Q36.3915 14.8068 36.4538 14.7308Q36.5161 14.6549 36.5855 14.5855Q36.6549 14.5161 36.7308 14.4538Q36.8068 14.3915 36.8884 14.3369Q36.9701 14.2823 37.0567 14.236Q37.1433 14.1897 37.234 14.1522Q37.3247 14.1146 37.4187 14.0861Q37.5127 14.0576 37.609 14.0384Q37.7053 14.0193 37.8031 14.0096Q37.9008 14 37.999 14Z" id="Rectangle" fill="#F1BB0C" fill-rule="evenodd" stroke="none" />
    <g clip-path="url(#mask_1)">
      <g id="1" fill="#070708" transform="translate(41 14)">
        <path d="M2.152 13.804L4.496 13.804L4.496 7.06Q4.496 6.668 4.52 6.236L2.856 7.628Q2.752 7.716 2.644 7.748Q2.536 7.78 2.432 7.78Q2.272 7.78 2.14 7.712Q2.008 7.644 1.944 7.556L1.32 6.7L4.848 3.7L6.472 3.7L6.472 13.804L8.552 13.804L8.552 15.284L2.152 15.284L2.152 13.804Z" />
      </g>
    </g>
  </g>
</svg>