<svg width="48" height="48" viewBox="0 0 48 48" xmlns="http://www.w3.org/2000/svg">
    <defs>
        <clipPath id="4h7fo2slla">
            <path d="M1920 0v3005H0V0h1920z"/>
        </clipPath>
        <clipPath id="eh2eo05pkb">
            <path d="M3.728 0 5.05.841C-.417 9.591.627 20.951 7.594 28.54c6.968 7.588 18.122 9.512 27.195 4.69l.731 1.393a24.116 24.116 0 0 1-11.302 2.817c-8.82-.002-16.943-4.837-21.204-12.624A24.595 24.595 0 0 1 3.728 0z"/>
        </clipPath>
        <clipPath id="9uzqyapnic">
            <path d="M0 2.818C9.7-2.336 21.623-.28 29.071 7.832c7.449 8.111 8.565 20.255 2.722 29.608l-1.321-.841a23.006 23.006 0 0 0 .667-23.215C27.152 6.101 19.554 1.578 11.303 1.576c-3.684 0-7.312.905-10.572 2.635z"/>
        </clipPath>
        <clipPath id="5tj02w0zcd">
            <path d="M5.04 0a.72.72 0 0 1 .72.72v4.32a.72.72 0 0 1-.72.72H.72A.72.72 0 0 1 0 5.04V.72A.72.72 0 0 1 .72 0zm-.72 1.44H1.44v2.88h2.88V1.44z"/>
        </clipPath>
        <clipPath id="vbo3oob33e">
            <path d="M5.04 0a.72.72 0 0 1 .72.72v4.32a.72.72 0 0 1-.72.72H.72A.72.72 0 0 1 0 5.04V.72A.72.72 0 0 1 .72 0zm-.72 1.44H1.44v2.88h2.88V1.44z"/>
        </clipPath>
        <clipPath id="t34bne2jzf">
            <path d="M16.206 0c.63 0 1.243.118 1.823.352a.418.418 0 0 1-.313.776 4.02 4.02 0 0 0-1.51-.292H4.879A4.047 4.047 0 0 0 .836 4.88v4.502c0 1.418.76 2.75 1.98 3.476a.98.98 0 0 1 .479.84v2.232l2.22-2.22a.97.97 0 0 1 .69-.285h.654v-1.497c0-2.69 2.19-4.879 4.88-4.879h8.51V4.88c0-1.03-.388-2.011-1.092-2.762a.418.418 0 1 1 .61-.572 4.862 4.862 0 0 1 1.318 3.334v2.17h2.036c2.69 0 4.879 2.188 4.879 4.878v4.502a4.846 4.846 0 0 1-2.35 4.172.137.137 0 0 0-.063.116v2.93a.75.75 0 0 1-.465.695c-.388.135-.602.005-.82-.163l-2.83-2.83a.14.14 0 0 0-.099-.04h-9.635a4.866 4.866 0 0 1-3.297-1.283.418.418 0 1 1 .566-.617 4.032 4.032 0 0 0 2.731 1.063h9.635a.97.97 0 0 1 .69.286l2.687 2.687v-2.728c0-.338.179-.657.466-.831a4.016 4.016 0 0 0 1.948-3.457v-4.501a4.047 4.047 0 0 0-4.043-4.043H11.739a4.047 4.047 0 0 0-4.043 4.043v4.501c0 .546.107 1.076.317 1.574a.418.418 0 0 1-.77.326 4.85 4.85 0 0 1-.384-1.9V14.26h-.655a.138.138 0 0 0-.098.04l-2.363 2.363c-.247.241-.632.254-.82.163a.75.75 0 0 1-.465-.695v-2.435a.14.14 0 0 0-.069-.12A4.904 4.904 0 0 1 0 9.381V4.879C0 2.19 2.189 0 4.88 0z"/>
        </clipPath>
        <clipPath id="uxxqflav8g">
            <path d="M4.771 0c.96 0 1.878.358 2.584 1.008A3.804 3.804 0 0 1 8.537 3.2a1.375 1.375 0 0 1 1.005 1.323v1.508c0 .652-.457 1.2-1.068 1.338a2.329 2.329 0 0 1-1.313 1.433c-.13.544-.696.955-1.374.955-.772 0-1.4-.534-1.4-1.19 0-.657.628-1.19 1.4-1.19.51 0 .956.232 1.202.578.27-.152.488-.385.621-.67a1.375 1.375 0 0 1-.814-1.254V4.524c0-.59.374-1.095.897-1.288a3.002 3.002 0 0 0-2.922-2.4 2.969 2.969 0 0 0-2.923 2.4c.524.193.898.697.898 1.288v1.508c0 .757-.616 1.373-1.373 1.373A1.375 1.375 0 0 1 0 6.032V4.524c0-.63.426-1.162 1.005-1.323A3.802 3.802 0 0 1 4.77 0zm1.016 8.214c-.333 0-.564.186-.564.354 0 .167.231.354.564.354.333 0 .565-.187.565-.354 0-.168-.232-.354-.565-.354zM1.373 3.987a.537.537 0 0 0-.537.537v1.508a.537.537 0 0 0 1.074 0V4.524a.537.537 0 0 0-.537-.537zm6.796 0a.537.537 0 0 0-.537.537v1.508a.537.537 0 0 0 1.074 0V4.524a.537.537 0 0 0-.537-.537z"/>
        </clipPath>
        <clipPath id="hwyi1ff7gh">
            <path d="M3.75 0a.418.418 0 1 1 0 .836H.417a.418.418 0 1 1 0-.836z"/>
        </clipPath>
        <clipPath id="twkeji6jli">
            <path d="M2.987 0a.418.418 0 1 1 0 .836H.418a.418.418 0 1 1 0-.836z"/>
        </clipPath>
        <clipPath id="s22bq37enj">
            <path d="M.623 0a.623.623 0 1 1 0 1.247.623.623 0 0 1 0-1.247z"/>
        </clipPath>
        <clipPath id="4t747fefok">
            <path d="M.623 0a.623.623 0 1 1 0 1.247.623.623 0 0 1 0-1.247z"/>
        </clipPath>
        <clipPath id="8j0wcuatdl">
            <path d="M.623 0a.623.623 0 1 1 0 1.247.623.623 0 0 1 0-1.247z"/>
        </clipPath>
    </defs>
    <g clip-path="url(#4h7fo2slla)" transform="translate(-414 -981)">
        <g clip-path="url(#eh2eo05pkb)" transform="translate(414 991.56)">
            <path fill="#F1BB0B" d="M0 0h35.52v37.44H0V0z"/>
        </g>
        <g clip-path="url(#9uzqyapnic)" transform="translate(426.48 981)">
            <path fill="#F1BB0B" d="M0 0h35.52v37.44H0V0z"/>
        </g>
        <g clip-path="url(#5tj02w0zcd)" transform="translate(450.48 1019.4)">
            <path fill="#FFF" d="M0 0h5.76v5.76H0V0z"/>
        </g>
        <g clip-path="url(#vbo3oob33e)" transform="translate(419.76 984.84)">
            <path fill="#FFF" d="M0 0h5.76v5.76H0V0z"/>
        </g>
        <g clip-path="url(#t34bne2jzf)" transform="translate(424 993)">
            <path fill="#FFF" d="M0 0h28v24.398H0V0z"/>
        </g>
        <g clip-path="url(#uxxqflav8g)" transform="translate(433.26 1002.066)">
            <path fill="#FFF" d="M0 0h9.542v9.758H0V0z"/>
        </g>
        <g clip-path="url(#hwyi1ff7gh)" transform="translate(443.471 1003.6)">
            <path fill="#FFF" d="M0 0h4.167v.836H0V0z"/>
        </g>
        <g clip-path="url(#twkeji6jli)" transform="translate(443.471 1005.472)">
            <path fill="#FFF" d="M0 0h3.405v.836H0V0z"/>
        </g>
        <g clip-path="url(#s22bq37enj)" transform="translate(427.49 997.847)">
            <path fill="#FFF" d="M0 0h1.247v1.247H0V0z"/>
        </g>
        <g clip-path="url(#4t747fefok)" transform="translate(429.38 997.847)">
            <path fill="#FFF" d="M0 0h1.247v1.247H0V0z"/>
        </g>
        <g clip-path="url(#8j0wcuatdl)" transform="translate(431.256 997.847)">
            <path fill="#FFF" d="M0 0h1.247v1.247H0V0z"/>
        </g>
    </g>
</svg>
