<svg width="44" height="44" viewBox="0 0 44 44" xmlns="http://www.w3.org/2000/svg">
    <defs>
        <clipPath id="s21zzetwla">
            <path d="M1920 0v4776H0V0h1920z"/>
        </clipPath>
        <clipPath id="bd9g9v06vb">
            <path d="M4.986 0c.332.067.531.266.531.532v1.595A3.321 3.321 0 0 1 8.51 4.853v.066c0 .266-.2.465-.466.465H6.98a.5.5 0 0 1-.466-.332c-.332-.997-.997-1.396-2.193-1.396-1.33 0-1.994.598-1.994 1.529 0 .93.398 1.462 2.393 1.728 2.792.333 4.188 1.13 4.188 3.457 0 1.795-1.33 3.19-3.324 3.523v1.596c-.067.332-.266.531-.532.531h-.997c-.332-.066-.532-.266-.532-.531v-1.596C1.33 13.561.266 12.364 0 10.703v-.067c0-.266.2-.465.465-.465h1.13c.2 0 .4.133.466.398.199.998.797 1.729 2.526 1.729 1.263 0 2.193-.731 2.193-1.795s-.598-1.462-2.46-1.795C1.53 8.376.2 7.512.2 5.318c0-1.662 1.262-2.991 3.257-3.257V.53C3.523.2 3.723 0 3.988 0z"/>
        </clipPath>
        <clipPath id="rebb6uklfc">
            <path d="M15.056.332c.066-.266.332-.399.598-.266a12.056 12.056 0 0 1 7.777 7.844c1.995 6.315-1.462 13.03-7.777 15.024-.067.066-.2.066-.266.066-.266-.066-.399-.266-.399-.532v-.93c0-.333.133-.532.399-.665 2.725-.997 4.92-3.124 5.916-5.916 1.928-5.119-.731-10.902-5.916-12.763-.2-.133-.399-.4-.399-.665V.526c.003-.087.013-.14.067-.194zM8.608 0c.266.066.398.266.398.532v.93c0 .333-.132.532-.398.665-2.726.997-4.92 3.124-5.917 5.916-1.927 5.119.732 10.902 5.917 12.763.2.133.398.4.398.599v.93c0 .133 0 .2-.066.266-.066.266-.332.399-.598.266A11.959 11.959 0 0 1 .564 15.09C-1.43 8.775 2.027 2.06 8.342.066 8.408 0 8.542 0 8.608 0z"/>
        </clipPath>
        <clipPath id="8w1ljx3fbd">
            <path d="M18 0a2 2 0 0 1 2 2v16a2 2 0 0 1-2 2H2a2 2 0 0 1-2-2V2a2 2 0 0 1 2-2h16z"/>
        </clipPath>
        <clipPath id="czsh3xyp7e">
            <path d="M8.127 7.377 4.062 13 0 7.377l4.062 2.358 4.065-2.358zM4.062 0l4.061 6.62-4.06 2.36L0 6.62 4.062 0z"/>
        </clipPath>
    </defs>
    <g clip-path="url(#s21zzetwla)" transform="translate(-743 -2939)">
        <path d="M765 2982c-11.598 0-21-9.402-21-21s9.402-21 21-21 21 9.402 21 21-9.402 21-21 21z" stroke="#F1BB0B" fill="none" stroke-miterlimit="10"/>
        <g clip-path="url(#bd9g9v06vb)" transform="translate(760.957 2953.373)">
            <path fill="#FFF" d="M0 0h8.908v16.02H0V0z"/>
        </g>
        <g clip-path="url(#rebb6uklfc)" transform="translate(753.48 2949.917)">
            <path fill="#FFF" d="M0 0h23.996v23H0V0z"/>
        </g>
        <g clip-path="url(#8w1ljx3fbd)" transform="translate(765 2962)">
            <path fill="#F1BB0B" d="M0 0h20v20H0V0z"/>
        </g>
        <g>
            <g clip-path="url(#czsh3xyp7e)" transform="translate(771 2965)">
                <path fill="#151618" d="M0 0h8.127v13H0V0z"/>
            </g>
        </g>
    </g>
</svg>
