<svg width="44" height="44" viewBox="0 0 44 44" xmlns="http://www.w3.org/2000/svg">
    <defs>
        <clipPath id="0n4j1jejoa">
            <path d="M1920 0v4776H0V0h1920z"/>
        </clipPath>
        <clipPath id="bpq8x30o7b">
            <path d="M18 0a2 2 0 0 1 2 2v16a2 2 0 0 1-2 2H2a2 2 0 0 1-2-2V2a2 2 0 0 1 2-2h16z"/>
        </clipPath>
        <clipPath id="lcigi9031c">
            <path d="M8.127 7.377 4.062 13 0 7.377l4.062 2.358 4.065-2.358zM4.062 0l4.061 6.62-4.06 2.36L0 6.62 4.062 0z"/>
        </clipPath>
    </defs>
    <g clip-path="url(#0n4j1jejoa)" transform="translate(-899 -2939)">
        <path d="M921 2982c-11.598 0-21-9.402-21-21s9.402-21 21-21 21 9.402 21 21-9.402 21-21 21z" stroke="#F1BB0B" fill="none" stroke-miterlimit="10"/>
        <path d="M912 2957.053v7.894c0 .671.475 1.476 1.063 1.806l7.224 4.015c.547.31 1.455.31 2.002 0l7.224-4.015c.588-.32 1.063-1.135 1.063-1.806v-7.894c0-.671-.475-1.476-1.063-1.806l-7.224-4.015c-.547-.31-1.455-.31-2.002 0l-7.224 4.015c-.588.32-1.063 1.135-1.063 1.806z" stroke="#FFF" stroke-width="1.5" fill="none" stroke-linecap="round" stroke-linejoin="round"/>
        <g clip-path="url(#bpq8x30o7b)" transform="translate(921 2962)">
            <path fill="#F1BB0B" d="M0 0h20v20H0V0z"/>
            <g clip-path="url(#lcigi9031c)" transform="translate(6 3)">
                <path fill="#151618" d="M0 0h8.127v13H0V0z"/>
            </g>
        </g>
    </g>
</svg>
