<?xml version="1.0" encoding="utf-8"?>
<svg width="37px" height="37px" viewBox="0 0 37 37" version="1.1" xmlns:xlink="http://www.w3.org/1999/xlink" xmlns="http://www.w3.org/2000/svg">
  <g id="data-security-copy-2">
    <path d="M18.92 37C21.9968 36.9995 25.0273 36.2565 27.75 34.8349L27.179 33.7642C20.0906 37.4705 11.3764 35.9918 5.93295 30.1592C0.489483 24.3265 -0.325863 15.5942 3.94505 8.86902L2.91275 8.22222C-0.760438 14.0055 -0.97416 21.3122 2.35481 27.2971C5.68378 33.2819 12.0292 36.9986 18.92 37L18.92 37Z" id="Path" fill="#F1BB0C" stroke="none" />
    <path d="M18.0804 1.21148C24.5267 1.21266 30.4628 4.68934 33.5772 10.2877C36.6916 15.886 36.4919 22.721 33.0559 28.131L34.0882 28.7778C38.653 21.5887 37.7809 12.2548 31.9619 6.02017C26.1429 -0.214417 16.8277 -1.79531 9.25 2.1657L9.821 3.23638C12.3677 1.90668 15.2024 1.21172 18.0804 1.21148Z" id="Path" fill="#F1BB0C" stroke="none" />
    <path d="M29.2917 33.9167L32.375 33.9167C32.5113 33.9167 32.642 33.8626 32.7384 33.7662C32.8348 33.6698 32.8889 33.5391 32.8889 33.4028L32.8889 30.3194C32.8889 30.1831 32.8348 30.0524 32.7384 29.956C32.642 29.8596 32.5113 29.8055 32.375 29.8056L29.2917 29.8056C29.1554 29.8055 29.0246 29.8596 28.9283 29.956C28.8319 30.0524 28.7777 30.1831 28.7778 30.3194L28.7778 33.4028C28.7777 33.5391 28.8319 33.6698 28.9283 33.7662C29.0246 33.8626 29.1554 33.9167 29.2917 33.9167L29.2917 33.9167ZM29.8056 30.8333L31.8611 30.8333L31.8611 32.8889L29.8056 32.8889L29.8056 30.8333Z" id="Shape" fill="#FFFFFF" stroke="none" />
    <path d="M4.625 7.19444L7.70833 7.19444C7.84464 7.19448 7.97537 7.14035 8.07175 7.04397C8.16813 6.94759 8.22226 6.81686 8.22222 6.68056L8.22222 3.59722C8.22226 3.46092 8.16813 3.33019 8.07175 3.23381C7.97537 3.13743 7.84464 3.0833 7.70833 3.08333L4.625 3.08333C4.4887 3.0833 4.35797 3.13743 4.26159 3.23381C4.16521 3.33019 4.11108 3.46092 4.11111 3.59722L4.11111 6.68056C4.11108 6.81686 4.16521 6.94759 4.26159 7.04397C4.35797 7.14035 4.4887 7.19448 4.625 7.19444L4.625 7.19444ZM5.13889 4.11111L7.19444 4.11111L7.19444 6.16667L5.13889 6.16667L5.13889 4.11111Z" id="Shape" fill="#FFFFFF" stroke="none" />
    <path d="M24.6619 18.671L19.0122 9.25L13.3612 18.6716L19.0122 22.028L24.6619 18.671ZM24.6667 19.7483L19.0122 23.103L13.3611 19.7483L19.0122 27.75L24.6667 19.7483Z" id="Shape" fill="#FFFFFF" stroke="none" />
  </g>
</svg>