<svg width="48" height="48" viewBox="0 0 48 48" xmlns="http://www.w3.org/2000/svg">
    <g fill-rule="nonzero" fill="none">
        <path d="M24.218 48c3.938 0 7.817-.967 11.302-2.817l-.73-1.393c-9.074 4.822-20.228 2.898-27.196-4.69C.627 31.512-.417 20.151 5.05 11.401l-1.322-.841a24.595 24.595 0 0 0-.714 24.816C7.275 43.163 15.397 47.998 24.218 48zM23.783 1.576c8.251.002 15.85 4.525 19.836 11.808a23.006 23.006 0 0 1-.667 23.215l1.321.841C50.116 28.087 49 15.943 41.551 7.832 34.103-.279 22.18-2.336 12.48 2.818l.73 1.393a22.553 22.553 0 0 1 10.573-2.635z" fill="#F1BB0C"/>
        <path d="M37.2 44.16h4.32a.72.72 0 0 0 .72-.72v-4.32a.72.72 0 0 0-.72-.72H37.2a.72.72 0 0 0-.72.72v4.32a.72.72 0 0 0 .72.72zm.72-4.32h2.88v2.88h-2.88v-2.88zM6.48 9.6h4.32a.72.72 0 0 0 .72-.72V4.56a.72.72 0 0 0-.72-.72H6.48a.72.72 0 0 0-.72.72v4.32a.72.72 0 0 0 .72.72zm.72-4.32h2.88v2.88H7.2V5.28z" fill="#FFF"/>
        <g fill="#FFF">
            <path d="M20.832 16.84h-.399v-.798h-.798v.798h-.4v-.798h-.798v.798H17.24v.799h.798v3.992h-.798v.798h1.197v.799h.799v-.799h.399v.799h.798v-.799h.4c.66 0 1.197-.536 1.197-1.197v-.799a1.19 1.19 0 0 0-.311-.798c.2-.218.31-.503.311-.799v-.798c0-.661-.536-1.198-1.198-1.198zm.4 4.392a.4.4 0 0 1-.4.399h-1.996v-1.597h1.996a.4.4 0 0 1 .4.4v.798zm0-2.396a.4.4 0 0 1-.4.4h-1.996v-1.597h1.996a.4.4 0 0 1 .4.399v.798z"/>
            <path d="M23.714 24.548c.07-.058.134-.122.2-.183.08-.071.16-.14.237-.215.056-.057.108-.12.162-.179a6.386 6.386 0 0 0 1.172-1.778 6.32 6.32 0 0 0 .537-2.558 6.384 6.384 0 1 0-5.077 6.252c.02-.004.04-.011.06-.016a6.172 6.172 0 0 0 2.585-1.23c.04-.032.085-.06.124-.093zm-1.84.207a5.589 5.589 0 1 1-4.477-10.24 5.589 5.589 0 0 1 4.476 10.24z"/>
            <path d="M29.736 20.947a7.585 7.585 0 0 0-1.318-.115 7.578 7.578 0 0 0-1.318.12 7.609 7.609 0 1 0-6.148 6.148 7.583 7.583 0 1 0 8.784-6.153zm-16.662.426a6.787 6.787 0 1 1 12.33 1.83 6.856 6.856 0 0 1-2.655 2.46 6.785 6.785 0 0 1-9.674-4.29zm15.344 1.456a5.589 5.589 0 1 1-5.174 3.476c.075-.04.146-.087.22-.13l.203-.12c.098-.06.192-.127.287-.193.06-.042.122-.082.182-.126.102-.076.2-.157.299-.24.048-.04.097-.075.144-.116a7.883 7.883 0 0 0 .801-.8l.12-.15c.08-.096.16-.193.233-.294.046-.061.087-.125.131-.188.064-.092.13-.184.189-.28.044-.069.083-.14.125-.21.041-.07.086-.141.126-.214a5.524 5.524 0 0 1 2.114-.415zm1.52 12.204a6.784 6.784 0 0 1-8.135-8.129l.051-.018c.137-.041.272-.086.406-.136a6.326 6.326 0 0 0-.23 1.668 6.388 6.388 0 1 0 6.388-6.388 6.326 6.326 0 0 0-1.668.23c.05-.133.095-.269.136-.406l.018-.051a6.787 6.787 0 1 1 3.033 13.23z"/>
            <path d="M28.418 28.817a1.198 1.198 0 1 1-1.198 1.197h-.798a2 2 0 0 0 1.596 1.957v.838h.799v-.838a1.996 1.996 0 0 0-.4-3.953 1.198 1.198 0 1 1 1.198-1.197h.799a2 2 0 0 0-1.597-1.956v-.839h-.799v.839a1.996 1.996 0 0 0 .4 3.952zM28.15 14.612c2.333.007 3.94 1.792 4.56 3.813l-1.126-.563a.533.533 0 0 0-.477.952l2.13 1.064c.006.004.014.002.021.005a.522.522 0 0 0 .286.047.529.529 0 0 0 .204-.072l.011-.01a.523.523 0 0 0 .168-.182c.006-.01.018-.015.024-.026l1.064-2.129a.532.532 0 1 0-.952-.476l-.413.826c-.798-2.312-2.73-4.305-5.497-4.314h-.001a.532.532 0 0 0-.002 1.065zM20.575 33.904c-2.333-.008-3.94-1.793-4.56-3.813l1.126.563a.533.533 0 0 0 .477-.953l-2.13-1.064c-.012-.006-.026-.006-.039-.01a.496.496 0 0 0-.213-.039c-.019.001-.036-.006-.055-.003-.017.003-.031.013-.048.017a.514.514 0 0 0-.261.148.511.511 0 0 0-.067.086c-.01.014-.023.024-.03.039l-1.065 2.129a.532.532 0 1 0 .952.476l.413-.825c.798 2.311 2.73 4.305 5.497 4.313h.001a.532.532 0 0 0 .002-1.064z"/>
        </g>
    </g>
</svg>
