<?xml version="1.0" encoding="utf-8"?>
<svg width="50px" height="50px" viewBox="0 0 50 50" version="1.1" xmlns:xlink="http://www.w3.org/1999/xlink" xmlns="http://www.w3.org/2000/svg">
  <g id="2-ic-copy-9">
    <g id="2-ic-copy-8">
      <path d="M25.119 50C29.2039 49.9994 33.2273 48.9801 36.8421 47.0303L36.084 45.5616C26.6732 50.6453 15.1038 48.6171 7.87684 40.6166C0.649858 32.6161 -0.43263 20.6383 5.23763 11.4135L3.86709 10.5263C-1.00959 18.4591 -1.29334 28.4815 3.12635 36.6907C7.54604 44.8999 15.9705 49.9981 25.119 50L25.119 50Z" id="Path" fill="#F1BB0C" fill-rule="evenodd" stroke="none" />
      <path d="M24.8815 1.66175C33.4399 1.66337 41.321 6.43224 45.4558 14.1113C49.5906 21.7904 49.3255 31.1657 44.7636 38.5865L46.1342 39.4737C52.1946 29.6126 51.0368 16.8095 43.3112 8.25771C35.5856 -0.29411 23.2184 -2.46257 13.1579 2.97063L13.916 4.43925C17.2971 2.61534 21.0605 1.66208 24.8815 1.66175Z" id="Path" fill="#F1BB0C" fill-rule="evenodd" stroke="none" />
      <path d="M38.9803 46.0526L43.9145 46.0526C44.1326 46.0527 44.3418 45.9661 44.496 45.8118C44.6503 45.6576 44.7369 45.4484 44.7368 45.2303L44.7368 40.2961C44.7369 40.0779 44.6503 39.8687 44.496 39.7145C44.3418 39.5602 44.1326 39.4736 43.9145 39.4737L38.9803 39.4737C38.7621 39.4736 38.5529 39.5602 38.3987 39.7145C38.2445 39.8687 38.1578 40.0779 38.1579 40.2961L38.1579 45.2303C38.1578 45.4484 38.2445 45.6576 38.3987 45.8118C38.5529 45.9661 38.7621 46.0527 38.9803 46.0526L38.9803 46.0526ZM39.8026 41.1184L43.0921 41.1184L43.0921 44.4079L39.8026 44.4079L39.8026 41.1184Z" id="Shape" fill="#FFFFFF" stroke="none" />
      <path d="M6.08553 10.5263L11.0197 10.5263C11.2379 10.5264 11.4471 10.4397 11.6013 10.2855C11.7555 10.1313 11.8422 9.92207 11.8421 9.70395L11.8421 4.76974C11.8422 4.55161 11.7555 4.34241 11.6013 4.18817C11.4471 4.03394 11.2379 3.94731 11.0197 3.94737L6.08553 3.94737C5.8674 3.94731 5.6582 4.03394 5.50396 4.18817C5.34973 4.34241 5.2631 4.55161 5.26316 4.76974L5.26316 9.70395C5.2631 9.92207 5.34973 10.1313 5.50396 10.2855C5.6582 10.4397 5.8674 10.5264 6.08553 10.5263L6.08553 10.5263ZM6.90789 5.59211L10.1974 5.59211L10.1974 8.88158L6.90789 8.88158L6.90789 5.59211Z" id="Shape" fill="#FFFFFF" stroke="none" />
    </g>
  </g>
</svg>