<?xml version="1.0" encoding="utf-8"?>
<svg width="197.44263px" height="54px" viewBox="0 0 197.44263 54" version="1.1" xmlns:xlink="http://www.w3.org/1999/xlink" xmlns="http://www.w3.org/2000/svg">
  <g id="logotype">
    <g id="logo-svg">
      <path d="M69.9696 34.9346C69.9696 35.3436 69.8894 35.7332 69.7285 36.1031C69.5678 36.4635 69.3467 36.78 69.0653 37.0525C68.7839 37.3253 68.4523 37.5395 68.0705 37.6952C67.6986 37.8511 67.3018 37.929 66.8798 37.929L54.5349 37.929C54.1128 37.929 53.7108 37.8511 53.329 37.6952C52.9571 37.5395 52.6306 37.3253 52.3493 37.0525C52.0679 36.78 51.8468 36.4635 51.6861 36.1031C51.5253 35.7332 51.4448 35.3436 51.4448 34.9346L51.4448 19.9775C51.4448 19.5685 51.5253 19.1838 51.6861 18.8236C51.8468 18.4535 52.0679 18.137 52.3493 17.874C52.6306 17.6015 52.9571 17.3873 53.329 17.2314C53.7108 17.0659 54.1128 16.9831 54.5349 16.9831L66.8798 16.9831C67.3018 16.9831 67.6986 17.0659 68.0705 17.2314C68.4523 17.3873 68.7839 17.6015 69.0653 17.874C69.3467 18.137 69.5678 18.4535 69.7285 18.8236C69.8894 19.1838 69.9696 19.5685 69.9696 19.9775L69.9696 34.9346ZM54.5349 19.9775L54.5349 34.9346L66.8798 34.9346L66.8798 19.9775L54.5349 19.9775ZM78.6217 37.929L75.5316 37.929L75.5316 16.9831L78.6217 16.9831L83.4122 22.9718L79.6499 22.9718L78.6217 21.6864L78.6217 37.929ZM81.2451 24.9662L91.6145 37.929L94.7046 37.929L94.7046 16.9831L91.6145 16.9831L91.6145 33.2257L85.0076 24.9662L81.2451 24.9662ZM116.003 16.9831L100.252 16.9831L100.252 37.929L116.003 37.929L116.003 34.9346L103.341 34.9346L103.341 28.9606L114.149 28.9606L114.149 25.9662L103.341 25.9662L103.341 19.9775L116.003 19.9775L116.003 16.9831ZM124.956 37.929L118.776 16.9831L121.866 16.9831L126.66 33.6493L131.438 16.9831L134.528 16.9831L139.306 33.6493L144.099 16.9831L147.189 16.9831L141.009 37.929L137.618 37.929L132.99 22.2269L128.348 37.929L124.956 37.929ZM153.987 37.929L153.987 16.9831L150.897 16.9831L150.897 37.929L153.987 37.929ZM159.549 16.9831L175.3 16.9831L175.3 19.9775L162.639 19.9775L162.639 25.9662L173.446 25.9662L173.446 28.9606L162.639 28.9606L162.639 34.9346L175.3 34.9346L175.3 37.929L159.549 37.929L159.549 16.9831ZM187.736 24.8268L181.963 16.9831L178.24 16.9831L185.897 27.3683L178.075 37.929L181.812 37.929L187.736 29.8806L193.705 37.929L197.443 37.929L189.62 27.3683L197.277 16.9831L193.538 16.9831L187.736 24.8268Z" id="Shape" fill="#FFFFFF" fill-rule="evenodd" stroke="none" />
      <path d="M75.5316 37.929L78.6217 37.929L78.6217 21.6864L79.6499 22.9718L83.4122 22.9718L78.6217 16.9831L75.5316 16.9831L75.5316 37.929Z" id="Path" fill="#F1BB0C" fill-rule="evenodd" stroke="none" />
      <path d="M44.9579 12.3619C44.2057 12.2859 43.4624 12.1427 42.7378 11.9335C42.6852 11.7315 42.583 11.5446 42.44 11.3891C42.2969 11.2336 42.1173 11.1139 41.9161 11.04C41.7151 10.9662 41.4985 10.9407 41.2851 10.9655C41.0716 10.9904 40.8675 11.0649 40.6901 11.1826C38.7323 10.3052 36.9281 9.04762 35.4416 7.69439C35.2922 7.55779 35.1425 7.42132 34.9937 7.28391C35.0203 7.02856 34.9909 6.77063 34.9075 6.52707C34.8239 6.2835 34.6881 6.05981 34.5091 5.87071C34.33 5.68158 34.1117 5.5313 33.8685 5.42975C33.6252 5.32819 33.3625 5.27766 33.0978 5.28144C32.724 4.76418 32.3939 4.10841 32.6772 3.48762C33.2418 2.24973 35.5254 2.73031 36.5514 2.93947C39.0085 3.44184 41.5877 4.49566 43.8321 5.57584C44.7321 6.00921 45.6249 6.46982 46.4969 6.95769C43.677 4.44673 40.3358 2.54878 36.6972 1.39096C32.0185 -0.103669 26.8219 -0.415945 21.996 0.5618C21.2903 0.704644 20.5955 0.871808 19.9119 1.06331C19.7007 0.853338 19.4323 0.705886 19.138 0.638146C18.8436 0.570423 18.5354 0.585202 18.2495 0.680774C17.9634 0.776345 17.7113 0.948765 17.5226 1.17791C17.3339 1.40707 17.2163 1.68351 17.1836 1.97497C11.3864 4.23858 6.61467 8.30306 3.5612 13.6969C3.69978 13.4354 3.84154 13.1741 3.98959 12.9149C3.91116 13.0415 3.83206 13.1673 3.75541 13.296C-3.97646 26.2735 0.613995 42.8684 14.0055 50.3605C25.9521 57.0445 40.8695 54.2267 49.4397 44.3278C44.6209 48.3117 39.0061 51.2204 32.6094 52.0197L32.6103 52.0181C30.1129 52.4357 27.5679 52.5162 25.0476 52.2573C23.9412 52.1 22.8502 51.8933 21.7932 51.6429C20.3187 51.293 18.7748 50.8381 17.4249 50.1616C16.9794 49.9385 16.5196 49.6755 16.1537 49.3414C15.7879 49.0073 15.4351 48.5135 15.7899 48.0113C15.9653 47.7634 16.1646 47.5196 16.3989 47.3214C16.476 47.3126 16.5527 47.2998 16.6285 47.2831L16.6818 47.471L17.3281 47.3006L17.2577 47.0514C17.3602 46.9963 17.4583 46.9337 17.551 46.864C18.3723 46.8541 19.3678 47.3637 20.0713 47.6701C21.0715 48.1054 22.0516 48.4651 23.0764 48.7288C22.3789 48.4219 21.6663 48.1448 20.9611 47.8568C19.9758 47.4545 18.8649 46.8658 18.2584 45.9834C18.428 45.6059 18.4878 45.1908 18.4315 44.7827C18.3753 44.3746 18.2047 43.9893 17.9385 43.6683C18.0806 43.1751 18.3186 42.7013 18.569 42.2646C18.789 41.881 19.0292 41.509 19.2623 41.133C19.4861 40.7711 19.7048 40.4172 20.0072 40.1099C20.2496 39.8648 20.441 39.5978 20.6316 39.3137C20.8257 39.0221 21.0356 38.7406 21.2608 38.4707L21.3018 38.4936C21.7386 38.738 22.2206 38.8966 22.7205 38.9604C23.2206 39.0243 23.7285 38.992 24.2156 38.8655C24.7028 38.7389 25.1594 38.5208 25.5594 38.2232C25.9595 37.9258 26.2952 37.5548 26.5473 37.1316C26.6142 37.0191 26.6753 36.9033 26.7299 36.7847C27.1286 36.8623 27.5231 36.9586 27.9125 37.066C28.571 37.2488 29.2309 37.4507 29.887 37.6677C28.9799 37.0698 28.076 36.4549 27.2274 35.7937C27.1681 35.7476 27.1052 35.6984 27.0413 35.647C27.0951 35.1255 27.0349 34.5987 26.865 34.1012L30.0258 32.1667C30.1978 32.3296 30.4213 32.4315 30.6604 32.456C30.8992 32.4805 31.1398 32.4263 31.3432 32.3019C31.5465 32.1777 31.7006 31.9906 31.7805 31.771C31.8606 31.5512 31.8619 31.312 31.7842 31.0914L38.5872 26.9314C38.8235 27.1482 39.0999 27.3203 39.4016 27.4384C39.3914 27.6681 39.3667 27.897 39.3278 28.1239C39.0548 29.7739 38.1295 31.2841 37.8709 32.6617C37.8709 32.6617 38.1904 32.692 38.1631 32.748C38.7027 31.6535 39.9431 28.6191 40.6423 27.6078C41.1327 27.5579 41.5983 27.3739 41.9847 27.0772C42.3712 26.7806 42.6625 26.3835 42.8249 25.9323C43.2033 25.8475 44.2848 25.9314 44.6712 25.8943C44.6712 25.8943 44.4574 25.7269 44.6954 25.6988C44.0935 25.5993 43.4814 25.4583 42.9668 25.2126C42.9871 24.7532 42.8769 24.2972 42.6484 23.8944C42.4199 23.4913 42.082 23.1566 41.6709 22.9269C41.6347 22.9066 41.3484 22.7759 41.3105 22.7568C41.3048 19.8823 41.5061 16.9154 41.5992 13.5335C41.9221 13.4964 42.2198 13.3461 42.4366 13.1111C42.6534 12.8762 42.7742 12.5727 42.7764 12.2575C42.9345 12.2415 43.0939 12.24 43.2523 12.2534C43.5815 12.2766 43.9079 12.3189 44.2386 12.3392C44.5048 12.3544 44.7422 12.3634 44.9558 12.3628L44.9579 12.3619ZM13.8608 48.614C10.8497 46.8703 8.21347 44.5809 6.09605 41.8709C5.62805 41.2223 5.24314 40.7504 5.33222 39.8385C5.35124 39.6442 5.39915 39.4158 5.49283 39.2448L5.73992 38.7917L6.26567 38.8459C6.81502 38.902 7.5203 39.5281 7.90952 39.9074C8.69479 40.6738 9.47185 41.4563 10.3314 42.1452C11.028 42.7031 11.738 43.2448 12.4616 43.7702C12.9126 44.0953 13.369 44.4138 13.8227 44.7353C13.7506 45.185 13.8206 45.6451 14.0235 46.0556C14.2264 46.4658 14.5526 46.8073 14.9592 47.0347C14.9902 47.0519 15.0209 47.0692 15.0528 47.0842C14.9964 47.2033 14.9354 47.3177 14.879 47.423C14.6395 47.873 14.3999 48.455 13.8606 48.6141L13.8608 48.614ZM29.7061 31.4556L26.5456 33.4126C26.2191 32.8626 25.7522 32.4032 25.1901 32.0781C25.3954 30.9473 26.0608 29.8029 26.614 28.9163C26.7466 28.7037 26.8767 28.4886 27.0054 28.2733L29.8439 30.9152C29.7482 31.0792 29.7007 31.2653 29.7063 31.4536L29.7061 31.4556ZM30.2351 30.5319L27.2926 27.7905C27.6892 27.1136 28.078 26.4319 28.4945 25.7662C29.4759 26.0949 30.5446 26.0823 31.5173 25.7305C32.4902 25.3786 33.306 24.7097 33.8251 23.8382C33.8366 23.8189 33.8483 23.7993 33.8598 23.7802C35.154 24.2252 36.4917 24.5458 37.7828 25.0061C37.7661 25.4461 37.8679 25.8826 38.0782 26.2729L31.2511 30.4985C31.0924 30.4218 30.9163 30.3847 30.7391 30.3903C30.5619 30.396 30.3888 30.4445 30.2355 30.531L30.2351 30.5319ZM23.0826 23.8697C23.1727 23.6432 23.2095 23.4002 23.1907 23.1581C23.1717 22.916 23.0974 22.681 22.9733 22.4702C22.8493 22.2594 22.6782 22.078 22.4727 21.9392C22.2672 21.8002 22.0326 21.7073 21.7856 21.6674L22.2241 16.9221C22.4333 16.8505 22.6315 16.7522 22.8136 16.6298C22.9797 16.7192 23.1415 16.8186 23.2988 16.9221C24.3049 17.5884 25.3636 18.3754 26.2319 19.28C26.1808 19.3545 26.1314 19.4305 26.0847 19.5088C25.5039 20.4843 25.338 21.6407 25.6224 22.7327C25.9068 23.8247 26.619 24.7664 27.6082 25.3579C27.3402 25.989 26.9868 26.5926 26.6205 27.1654L23.0826 23.8697L23.0826 23.8697ZM26.3346 27.6492C26.0091 28.2708 25.6499 28.8763 25.2889 29.4787C24.9731 30.0085 24.6529 30.5359 24.317 31.0538C24.1944 31.2432 24.0694 31.4315 23.9404 31.6166C23.5217 31.5393 23.0926 31.5303 22.6707 31.5896L21.8879 24.8727C22.2386 24.795 22.5544 24.6103 22.7889 24.3458L26.3348 27.6483L26.3346 27.6492ZM12.1313 28.3851C12.5602 28.2763 12.9665 28.0965 13.3321 27.8535C13.5686 28.0256 13.7926 28.2131 14.0027 28.4149C14.4227 28.8166 14.8542 29.2034 15.2973 29.5755C15.1858 29.8187 15.1684 30.0927 15.2479 30.3474L12.8381 31.856L12.1317 28.3831L12.1313 28.3851ZM12.991 32.6147L15.6735 30.9301C15.7052 30.9525 15.7383 30.9732 15.7721 30.9923C15.9675 31.1015 16.1918 31.1527 16.4169 31.1395C16.6421 31.1262 16.8581 31.049 17.0383 30.9174C17.726 31.4203 18.4143 31.9206 19.0806 32.4511C19.4144 32.7143 19.6931 33.0373 19.9015 33.4021L19.8954 33.4126C19.6067 33.8954 19.4343 34.4351 19.3908 34.9915L15.0108 36.189C14.8791 35.9562 14.6659 35.7769 14.4097 35.6831C14.1535 35.5894 13.8712 35.5872 13.6137 35.6774L12.9919 32.6151L12.991 32.6147ZM13.1138 36.0189C12.9778 36.1798 12.8911 36.3744 12.8634 36.5809C12.8357 36.7872 12.8682 36.9969 12.9572 37.1861C13.0462 37.3755 13.1881 37.537 13.3668 37.6522C13.5457 37.7674 13.7541 37.8316 13.9687 37.838L15.4043 42.9378C14.9928 43.0666 14.6267 43.3044 14.3477 43.6246C13.5086 43.5301 12.667 43.1648 12.005 42.6846C11.0986 42.0277 10.2441 41.324 9.46906 40.5236C8.90564 39.9427 8.38772 39.3233 7.87664 38.6997C7.43862 38.164 7.00965 37.6066 6.75888 36.9611C6.71343 36.8435 6.67486 36.7235 6.64334 36.6016L12.4865 32.9303L13.114 36.0174L13.1138 36.0189ZM12.3323 32.1737L6.52991 35.8063C6.49485 34.7206 6.90306 33.6162 7.33301 32.6326C7.84866 31.4524 8.4076 30.2862 9.04366 29.162C9.22571 28.8304 9.43693 28.5147 9.67508 28.2182C10.276 28.4628 10.9316 28.5545 11.5796 28.4841L12.3288 32.1744L12.3323 32.1737ZM4.65829 26.9237C4.89483 26.8258 5.09468 26.66 5.2309 26.4484C5.36712 26.2371 5.43318 25.9903 5.42016 25.7413L7.33344 25.1242C7.42029 26.0409 7.85427 26.894 8.55175 27.5188C7.98212 28.4565 7.50009 29.4349 7.07145 30.4441C6.73178 31.2409 6.47046 32.0646 6.22107 32.8911C6.0951 33.3084 5.84889 33.9143 5.4713 34.1955L4.65915 26.9242L4.65829 26.9237ZM4.8248 34.3874L4.59443 34.2585C4.17248 34.0225 3.78588 33.3166 3.57006 32.8895C3.34831 32.4495 3.16364 31.994 2.95069 31.5507C2.18123 29.9519 1.77403 28.8389 1.80762 27.0418C1.86639 23.8187 2.08029 22.7478 3.89771 20.004C4.2361 19.4933 4.84023 18.5806 5.30537 18.211L5.56359 18.0055L4.09453 24.5863C3.78174 24.6038 3.48693 24.734 3.26787 24.9511C3.04883 25.1682 2.92134 25.4567 2.91036 25.7601C2.89938 26.0636 3.0057 26.3601 3.2085 26.5916C3.4113 26.8229 3.69599 26.9726 4.00676 27.0114L4.82602 34.3867L4.8248 34.3874ZM6.23775 18.058L6.45623 18.3838C6.68471 18.7243 6.85474 19.1577 7.02808 19.5309C7.32549 20.1732 7.57895 20.8456 7.92117 21.4666C8.06373 21.726 8.20753 21.9849 8.35261 22.2434C7.7727 22.8467 7.41483 23.6186 7.33454 24.4394L5.21028 25.1241C5.1038 24.9691 4.9618 24.8398 4.79535 24.7466C4.78044 24.7383 4.76552 24.73 4.7509 24.7217L6.23775 18.058ZM11.5898 21.0863C11.0386 21.0265 10.4807 21.0827 9.95392 21.2508C9.4726 20.548 9.07357 19.7973 8.64426 19.0643L8.61677 19.0173L8.59634 18.9673C8.28765 18.2026 7.96726 17.4359 7.75476 16.64C7.59849 16.0524 7.50875 15.4406 7.66004 14.8424C7.80068 14.2915 8.1225 13.837 8.52482 13.4363C9.01988 12.9434 9.53966 12.4732 10.0652 12.0103C10.7629 11.3963 11.4781 10.8006 12.211 10.2237C12.8231 9.74482 13.4482 9.28038 14.0954 8.84725C14.5611 8.53655 15.0965 8.2919 15.6735 8.29748C15.9204 8.30054 16.1643 8.34933 16.3922 8.44078L13.5039 13.9063C13.2121 13.8525 12.91 13.9005 12.6512 14.0418C12.3925 14.1831 12.1937 14.4087 12.09 14.6784C11.9866 14.9482 11.9847 15.2447 12.0852 15.5156C12.1855 15.7866 12.3817 16.0143 12.6388 16.1585C12.6537 16.1668 12.6685 16.175 12.6836 16.1835L12.6087 16.5167L11.5879 21.0888L11.5898 21.0863ZM16.951 8.75131C17.7065 9.30072 18.2658 10.2415 18.6463 10.9718C18.9223 11.4588 19.2138 11.9365 19.4468 12.4453C19.5205 12.603 19.5827 12.7657 19.6327 12.932C19.4772 13.0822 19.3431 13.2514 19.2333 13.4355C19.2229 13.453 19.2127 13.4701 19.2021 13.4879L14.335 14.4561C14.257 14.3354 14.1576 14.229 14.0417 14.1417L16.951 8.75059L16.951 8.75131ZM18.9361 14.2233C18.8876 14.4854 18.8844 14.7536 18.9264 15.0168C18.8458 15.1075 18.765 15.1939 18.686 15.2775C18.3004 15.6863 17.8936 16.0762 17.488 16.4668C16.9097 17.024 16.329 17.579 15.7552 18.1408C15.2553 18.6305 14.7818 19.145 14.3211 19.6697C13.9442 20.0989 13.5754 20.5246 13.1777 20.9385C13.0536 21.0675 12.9018 21.2283 12.7324 21.3927C12.5743 21.3232 12.4116 21.2645 12.2452 21.217L13.3389 16.3198C13.6522 16.3023 13.9473 16.172 14.1667 15.9547C14.3861 15.7372 14.5137 15.4481 14.5245 15.1443L18.9353 14.2251L18.9361 14.2233ZM24.755 5.62156C25.1832 5.55859 25.5718 5.3438 25.8457 5.01883L31.2767 6.78793C31.2149 7.13758 31.2593 7.49716 31.4047 7.82271L31.3824 7.83495C31.2047 7.93502 31.0213 8.02067 30.8368 8.10792C30.6631 8.19613 30.4816 8.26904 30.2946 8.32575C30.1733 8.36013 30.0548 8.40315 29.94 8.45446C28.8443 8.92484 27.7899 9.49154 26.7509 10.0678C25.8343 10.577 24.928 11.1043 24.0278 11.6406C23.7041 11.833 23.2412 12.1281 22.7744 12.3223L24.7554 5.62313L24.755 5.62156ZM22.0759 12.3218C21.8064 12.2471 21.5257 12.217 21.2459 12.2332C20.8736 11.9293 20.5504 11.4444 20.3113 11.1175C19.8157 10.446 19.6002 9.76462 19.3126 9.00513C19.0474 8.3045 18.8088 7.41468 19.2515 6.73378C19.6818 6.07459 20.707 5.745 21.4369 5.4933C21.9849 5.30489 22.5348 5.12408 23.0895 4.95609C23.3304 5.26997 23.6755 5.49375 24.0668 5.58972L22.0759 12.3218L22.0759 12.3218ZM26.1637 4.43716C26.1878 4.35944 26.2061 4.28016 26.2183 4.19989C26.8206 4.09174 27.4256 3.99973 28.0331 3.92386C28.6247 3.84882 29.3095 3.76569 29.8777 3.98179C30.3198 4.14924 30.6429 4.47573 30.9063 4.84812C31.1614 5.20887 31.4233 5.56551 31.7097 5.90383C31.6336 5.98871 31.5656 6.08032 31.5071 6.17746L26.163 4.4371L26.1637 4.43716ZM25.3647 2.48438C25.0818 2.32615 24.7587 2.248 24.4324 2.25884C24.106 2.26968 23.7892 2.36907 23.5182 2.5457C23.247 2.72231 23.0326 2.9691 22.899 3.25797C22.7655 3.54686 22.7183 3.86625 22.7629 4.17982C22.4194 4.25658 22.0774 4.33964 21.7393 4.43546C21.4319 4.52221 21.1296 4.62833 20.8242 4.7231C20.4523 4.83741 20.0459 4.97818 19.6628 5.03573L18.6524 5.18932L18.765 4.20452C18.7882 4.02778 18.8248 3.85296 18.8748 3.68152C19.0886 3.66776 19.2974 3.61234 19.4887 3.51856C19.6799 3.42479 19.8497 3.29461 19.9879 3.13578C20.1259 2.97695 20.2296 2.79275 20.2926 2.59421C20.3555 2.39567 20.3765 2.18687 20.3542 1.9803C20.4417 1.95944 20.5264 1.93812 20.611 1.91569C23.4669 1.14601 26.4258 0.8708 29.3814 1.05921L30.6529 1.14079L30.0016 2.2023C29.9195 2.33621 29.8742 2.48833 29.8701 2.64406L29.8562 3.09606L29.4391 3.29885C29.25 3.39081 29.0113 3.41133 28.8016 3.39023C28.619 3.37243 28.4343 3.39383 28.2515 3.39984C27.5633 3.42587 26.8769 3.48546 26.1949 3.57833C26.1421 3.35046 26.0411 3.13569 25.8984 2.9476C25.7556 2.75952 25.5739 2.60222 25.3651 2.48568L25.3647 2.48438ZM19.4007 35.661C19.4631 36.2297 19.6591 36.7767 19.9736 37.2606C19.4131 38.9566 18.3452 40.6498 17.6132 41.9027C17.3972 42.284 17.1165 42.6273 16.7831 42.9184C16.5512 42.852 16.3101 42.821 16.0684 42.8268L14.6159 37.6657C14.7651 37.5744 14.8907 37.4511 14.9828 37.3053C15.0751 37.1595 15.1314 36.9951 15.1476 36.8248L19.4018 35.6617L19.4007 35.661ZM22.0161 31.7379C21.3652 31.9447 20.7837 32.3174 20.3323 32.8165C19.5943 32.3699 18.9249 31.7993 18.267 31.2508C17.9712 31.0043 17.6758 30.7584 17.3814 30.5103C17.4893 30.2938 17.522 30.0493 17.4747 29.8131C17.4273 29.5771 17.3023 29.3624 17.1184 29.2009C16.9345 29.0394 16.7017 28.9399 16.4546 28.9172C16.2076 28.8947 15.9596 28.9501 15.7478 29.0756C15.5408 28.8823 15.3369 28.6852 15.1361 28.4843C14.7326 28.0862 14.396 27.6295 14.1381 27.1307C14.2661 26.9777 14.3817 26.8151 14.4833 26.6445C14.8409 26.0466 15.0185 25.3637 14.996 24.6729L20.0304 24.0666C20.1523 24.2808 20.3221 24.4659 20.5274 24.6083C20.7326 24.7505 20.9682 24.8466 21.2167 24.8895L22.0168 31.7379L22.0161 31.7379ZM14.9051 23.9692C14.7894 23.4702 14.5691 22.9997 14.2579 22.5865C14.5674 21.9466 14.954 21.3441 15.4093 20.7918C15.6038 20.5527 15.8085 20.3225 16.0238 20.1009C16.5564 19.5507 17.0964 19.0076 17.6439 18.4713C18.2764 17.8505 19.0061 17.0091 19.8365 16.5338C20.2838 16.8782 20.8393 17.0641 21.4105 17.0609L21.0743 21.7001C20.7146 21.7934 20.397 21.9993 20.1703 22.2857C19.9439 22.5721 19.8214 22.923 19.822 23.2837L14.9051 23.9692L14.9051 23.9692ZM30.3966 17.3633C29.7585 17.3027 29.1144 17.3754 28.5079 17.5765C27.9014 17.7777 27.3463 18.1027 26.8804 18.5295C26.1082 17.9081 25.3612 17.2551 24.6451 16.5756C24.3683 16.3117 23.9928 15.9585 23.6943 15.5682C23.8353 15.2379 23.899 14.8814 23.8806 14.5245C23.8622 14.1673 23.7623 13.8188 23.588 13.5036C23.8327 13.208 24.1466 12.9439 24.3954 12.7232C25.3487 11.8784 26.4416 11.1621 27.5441 10.5135C28.6855 9.84545 29.8608 9.23357 31.0655 8.68002C31.2829 8.57957 31.5225 8.4631 31.7707 8.35743C31.9709 8.55923 32.2163 8.71404 32.4881 8.80963L30.3966 17.3633ZM33.0265 8.91494C33.2876 8.92844 33.5488 8.88884 33.7933 8.79883C34.0376 8.709 34.2601 8.57057 34.4461 8.39253C34.6014 8.4793 34.7493 8.57615 34.8932 8.67318C35.5395 9.10738 36.0758 9.67965 36.1507 10.4728C36.256 11.5887 35.3658 12.8508 34.8104 13.7867C33.9776 15.1909 33.0735 16.5509 32.176 17.9156C31.7794 17.6953 31.3503 17.5351 30.9035 17.4409L33.0265 8.91494L33.0265 8.91494ZM37.9335 24.245C36.681 23.8555 35.4461 23.4189 34.2282 22.9352C34.4858 22.1143 34.4862 21.238 34.2295 20.417C33.9728 19.5959 33.4704 18.867 32.7859 18.323L36.3862 11.8825C36.8425 11.0339 37.6565 10.3904 38.6864 10.8157C39.1541 11.0091 39.8179 11.2586 40.2897 11.6015C40.1134 11.8984 40.0659 12.2508 40.1577 12.5815C40.2494 12.9122 40.4727 13.1943 40.7789 13.3653C40.8977 13.4319 41.0263 13.4804 41.16 13.5093C40.9789 16.9698 41.1125 19.9554 40.7588 22.662C40.6644 22.6548 40.3594 22.5838 40.2663 22.5863C39.3981 22.6128 38.5877 23.0697 38.1283 23.8456C37.6188 24.7046 37.987 24.1088 37.9361 24.2447L37.9335 24.245ZM17.71 3.29479L17.4474 4.33743C17.3613 4.6768 17.251 5.01192 17.1408 5.34468C16.9138 6.03247 16.0131 6.55486 15.3881 6.89221C14.8834 7.16521 14.3445 7.40236 13.8608 7.70956C12.7939 8.38479 11.7545 9.1045 10.7603 9.87911C10.5799 10.0201 10.4025 10.1907 10.2354 10.3466C9.97602 10.5882 9.71911 10.8323 9.45903 11.073C9.17834 11.3326 8.89356 11.5909 8.59726 11.8332L7.16019 13.0071L7.31403 11.1909C7.31769 11.1482 7.32146 11.1059 7.32569 11.0636L7.34665 10.8521L7.47808 10.6825C9.64257 7.87626 12.3717 5.54151 15.5583 3.87882C15.8197 3.74227 16.0768 3.60226 16.3445 3.4761L17.4223 2.96739C17.5022 3.08881 17.5989 3.199 17.71 3.29479L17.71 3.29479Z" id="Shape" fill="#F1BB0C" fill-rule="evenodd" stroke="none" />
    </g>
  </g>
</svg>