<svg width="33" height="36" viewBox="0 0 33 36" xmlns="http://www.w3.org/2000/svg">
    <path d="M29.135 8.241a7.888 7.888 0 0 1-1.434-.285.862.862 0 0 0-1.323-.501c-1.265-.585-2.43-1.423-3.391-2.325l-.29-.274a1.213 1.213 0 0 0-1.224-1.335c-.242-.345-.455-.782-.272-1.196.365-.825 1.84-.505 2.503-.365 1.587.335 3.254 1.037 4.704 1.757.581.29 1.158.596 1.721.921A17.363 17.363 0 0 0 23.8.928C20.775-.07 17.418-.278 14.3.374c-.456.095-.905.206-1.347.334a1.03 1.03 0 0 0-1.762.608 17.38 17.38 0 0 0-8.8 7.814c.089-.174.18-.348.276-.521-.05.084-.102.168-.151.254-4.995 8.652-2.03 19.715 6.621 24.71 7.718 4.456 17.356 2.577 22.892-4.022-3.113 2.656-6.74 4.595-10.873 5.128l.001-.001a17.747 17.747 0 0 1-4.886.16 22.825 22.825 0 0 1-2.102-.41c-.953-.234-1.95-.537-2.822-.988-.288-.149-.585-.324-.822-.547-.236-.222-.464-.552-.235-.887.114-.165.242-.327.394-.46.05-.005.1-.014.148-.025l.035.125.417-.113-.045-.166c.066-.037.13-.079.19-.125.53-.007 1.173.333 1.627.537.646.29 1.28.53 1.942.706-.45-.205-.911-.39-1.367-.582-.636-.268-1.354-.66-1.746-1.248a1.504 1.504 0 0 0-.207-1.544c.092-.329.246-.645.408-.936.142-.255.297-.503.448-.754.144-.241.286-.477.48-.682.158-.164.281-.342.404-.53.126-.195.261-.383.407-.563l.026.015a2.48 2.48 0 0 0 3.507-1.139c.258.052.512.116.764.188.425.121.852.256 1.275.4a26.73 26.73 0 0 1-1.718-1.249l-.12-.097a2.49 2.49 0 0 0-.114-1.031l2.042-1.29a.69.69 0 0 0 1.136-.716l4.395-2.774c.153.145.331.26.526.338a3.802 3.802 0 0 1-.047.457c-.177 1.1-.774 2.107-.942 3.025 0 0 .207.02.19.058.348-.73 1.15-2.753 1.6-3.427a1.678 1.678 0 0 0 1.41-1.117c.245-.056.944 0 1.194-.025 0 0-.139-.112.015-.13-.389-.067-.784-.16-1.116-.325a1.677 1.677 0 0 0-.838-1.523c-.023-.014-.208-.101-.232-.114-.004-1.916.126-3.894.186-6.149a.862.862 0 0 0 .76-.85c.103-.011.206-.012.308-.003.213.015.423.044.637.057.172.01.325.016.463.016h.002zM9.045 32.41a17.648 17.648 0 0 1-5.016-4.495c-.303-.432-.551-.747-.494-1.355.013-.13.044-.282.104-.396l.16-.302.34.036c.354.038.81.455 1.061.708.508.51 1.01 1.033 1.565 1.492.45.372.909.733 1.376 1.083.292.217.586.43.88.643a1.504 1.504 0 0 0 .794 1.566c-.036.08-.076.156-.112.226-.155.3-.31.688-.658.794zM19.282 20.97l-2.042 1.305a2.473 2.473 0 0 0-.876-.89c.133-.753.563-1.516.92-2.107.086-.142.17-.286.253-.43l1.834 1.762a.689.689 0 0 0-.09.359v.001zm.341-.615-1.9-1.828c.256-.451.507-.906.776-1.35a2.887 2.887 0 0 0 3.444-1.285l.022-.039c.836.297 1.7.51 2.534.818-.01.293.055.584.191.844l-4.41 2.817a.69.69 0 0 0-.656.022zm-4.62-4.442a1.092 1.092 0 0 0-.838-1.468l.283-3.164a1.61 1.61 0 0 0 .38-.195c.108.06.213.126.314.195.65.445 1.334.97 1.895 1.572a2.887 2.887 0 0 0 .89 4.052c-.174.421-.402.823-.639 1.205l-2.285-2.197zm2.1 2.52c-.21.414-.442.818-.675 1.22-.204.353-.41.704-.628 1.05-.08.126-.16.251-.243.375a2.48 2.48 0 0 0-.82-.018l-.506-4.478c.226-.052.43-.175.582-.351l2.29 2.201zm-9.175.49c.277-.072.54-.192.775-.354.153.115.298.24.434.374.271.268.55.526.836.774a.74.74 0 0 0-.032.515l-1.557 1.005-.456-2.315v.001zm.555 2.82 1.733-1.123a.743.743 0 0 0 .882-.008c.444.335.889.668 1.32 1.022.215.176.395.39.53.634l-.004.007a2.47 2.47 0 0 0-.326 1.053l-2.83.798a.742.742 0 0 0-.903-.341l-.401-2.042zm.08 2.27a.743.743 0 0 0 .552 1.212l.927 3.4a1.494 1.494 0 0 0-.682.458c-.543-.063-1.086-.306-1.514-.627a12.432 12.432 0 0 1-1.638-1.44c-.364-.388-.699-.8-1.029-1.216-.283-.357-.56-.729-.722-1.16a2.226 2.226 0 0 1-.075-.239l3.775-2.448.406 2.059zm-.505-2.564-3.749 2.422c-.023-.724.241-1.46.519-2.116.333-.787.694-1.564 1.105-2.314.118-.22.254-.431.408-.629.388.163.812.224 1.23.177l.484 2.46h.003zM3.1 17.95a.813.813 0 0 0 .492-.788l1.236-.412c.056.612.337 1.18.787 1.597-.368.625-.68 1.277-.956 1.95-.22.531-.388 1.08-.55 1.631-.08.279-.24.683-.484.87L3.1 17.949zm.107 4.976-.148-.086c-.273-.157-.523-.628-.662-.913-.143-.293-.263-.597-.4-.892-.497-1.066-.76-1.808-.739-3.006.038-2.149.176-2.863 1.35-4.692.22-.34.61-.949.91-1.195l.167-.137-.95 4.387a.812.812 0 0 0-.056 1.617l.53 4.916h-.002zm.913-10.886.141.217c.148.227.258.516.37.765.192.428.356.876.577 1.29.092.173.185.346.279.518a2.493 2.493 0 0 0-.658 1.464l-1.372.456a.807.807 0 0 0-.297-.268l.96-4.442zm3.458 2.018a2.491 2.491 0 0 0-1.057.11c-.31-.468-.569-.969-.846-1.457l-.018-.032-.013-.033c-.2-.51-.406-1.021-.544-1.552-.1-.391-.159-.8-.06-1.198.09-.367.298-.67.558-.938.32-.328.655-.642.995-.95.45-.41.913-.807 1.386-1.191.396-.32.8-.63 1.218-.918.3-.207.646-.37 1.02-.366.159.002.316.034.463.095L8.814 9.271a.813.813 0 0 0-.558 1.501l.028.017-.048.222-.66 3.048.002-.002zm3.463-8.223c.488.366.85.994 1.096 1.48.178.325.366.644.517.983.047.105.088.213.12.324-.1.1-.187.213-.258.336l-.02.035-3.145.645a.808.808 0 0 0-.19-.21l1.88-3.593zm1.283 3.648a1.607 1.607 0 0 0-.006.53c-.052.06-.105.117-.156.173-.249.273-.512.532-.774.793-.373.371-.748.741-1.12 1.116-.322.326-.628.67-.926 1.02-.243.285-.481.569-.738.845-.08.086-.178.193-.288.303a2.422 2.422 0 0 0-.315-.117l.707-3.265a.813.813 0 0 0 .766-.784l2.85-.613zm3.76-5.734c.276-.042.527-.185.704-.402l3.508 1.18c-.04.232-.01.472.083.69l-.014.007c-.115.067-.234.124-.353.182a2.12 2.12 0 0 1-.35.145 1.662 1.662 0 0 0-.23.086c-.707.314-1.388.692-2.06 1.076-.592.34-1.177.69-1.759 1.048-.209.129-.508.325-.81.455l1.28-4.466v-.001zm-1.732 4.467a1.604 1.604 0 0 0-.536-.06c-.24-.202-.45-.525-.604-.743-.32-.448-.46-.902-.645-1.409-.171-.467-.325-1.06-.04-1.514.279-.44.941-.659 1.412-.827.355-.125.71-.246 1.068-.358.156.21.379.359.631.422l-1.286 4.489zm2.641-5.257a1.12 1.12 0 0 0 .035-.158c.39-.072.78-.134 1.173-.184.382-.05.824-.106 1.191.039.286.111.495.329.665.577.165.24.334.478.52.704-.05.056-.094.118-.132.182l-3.452-1.16zm-.516-1.302a1.128 1.128 0 0 0-1.68 1.13c-.223.052-.444.107-.662.171-.199.058-.394.129-.591.192-.24.076-.503.17-.75.208l-.653.103.072-.657c.015-.118.039-.234.071-.349a1.03 1.03 0 0 0 .956-1.134l.166-.043a16.958 16.958 0 0 1 5.666-.57l.821.054-.42.707a.606.606 0 0 0-.085.295l-.01.301-.269.135a.77.77 0 0 1-.412.061c-.118-.012-.237.003-.355.007-.445.017-.888.057-1.329.119a1.125 1.125 0 0 0-.536-.729zm-3.853 22.118c.04.38.167.744.37 1.066-.362 1.131-1.052 2.26-1.525 3.095-.14.254-.32.483-.536.677a1.5 1.5 0 0 0-.462-.06l-.938-3.442a.744.744 0 0 0 .343-.56l2.749-.776zm1.69-2.615a2.47 2.47 0 0 0-1.088.719c-.477-.298-.91-.679-1.334-1.044-.191-.165-.382-.328-.573-.494a.742.742 0 0 0-1.055-.956c-.134-.13-.265-.26-.395-.394a3.57 3.57 0 0 1-.645-.903 2.492 2.492 0 0 0 .554-1.638l3.253-.405a1.094 1.094 0 0 0 .766.549l.517 4.566zm-4.594-5.18a2.486 2.486 0 0 0-.418-.921c.2-.427.45-.829.744-1.197.125-.16.257-.313.397-.46.344-.367.692-.73 1.046-1.087.409-.414.88-.975 1.417-1.291.289.23.647.353 1.016.35l-.217 3.094a1.091 1.091 0 0 0-.809 1.056l-3.176.456zm10.008-4.403a2.894 2.894 0 0 0-2.272.777c-.499-.414-.981-.85-1.444-1.303-.179-.176-.421-.411-.614-.671a1.61 1.61 0 0 0-.069-1.377c.158-.197.361-.373.522-.52.616-.563 1.322-1.04 2.034-1.473a25.732 25.732 0 0 1 2.275-1.222c.14-.067.295-.145.455-.215.13.134.288.237.464.301l-1.351 5.703zm1.699-5.633a1.214 1.214 0 0 0 .917-.348c.1.058.196.122.289.187.417.29.764.671.812 1.2.068.744-.507 1.585-.866 2.21-.538.935-1.122 1.842-1.702 2.752a2.888 2.888 0 0 0-.822-.317l1.372-5.684zm3.17 10.22c-.81-.26-1.607-.55-2.394-.873a2.89 2.89 0 0 0-.932-3.075l2.326-4.293c.295-.566.82-.995 1.486-.711.302.128.731.295 1.036.523a.861.861 0 0 0 .562 1.272c-.117 2.307-.03 4.298-.259 6.102-.06-.005-.258-.052-.318-.05a1.65 1.65 0 0 0-1.381.84c-.33.572-.092.175-.125.265h-.001zM11.532 2.197l-.17.695c-.055.226-.127.45-.198.671-.147.459-.729.807-1.132 1.032-.326.182-.674.34-.987.545-.69.45-1.36.93-2.003 1.446-.116.094-.231.208-.34.312-.167.16-.333.323-.5.484-.182.173-.366.345-.557.507l-.929.782.1-1.21.007-.085.014-.141.085-.113c1.398-1.871 3.161-3.428 5.22-4.536.169-.091.335-.185.508-.269l.696-.339c.052.081.114.155.186.219z" fill="#070708" fill-rule="evenodd"/>
</svg>
