<?xml version="1.0" encoding="UTF-8"?>
<svg width="48px" height="48px" viewBox="0 0 48 48" version="1.1" xmlns="http://www.w3.org/2000/svg" xmlns:xlink="http://www.w3.org/1999/xlink">
    <title>78EB5B8F-5826-41AA-A9A2-B83A3E8A01D9</title>
    <g id="Account" stroke="none" stroke-width="1" fill="none" fill-rule="evenodd">
        <g id="03.acc-pin-accept" transform="translate(-622.000000, -390.000000)" fill-rule="nonzero">
            <g id="--form-copy" transform="translate(594.000000, 362.000000)">
                <g id="pin-code-ic" transform="translate(28.000000, 28.000000)">
                    <path d="M24.2175988,48 C28.1559155,47.9994009 32.0349488,47.0326807 35.52,45.183252 L34.7891446,43.7902568 C25.715985,48.6120995 14.5618075,46.688382 7.59417265,39.1000462 C0.626537797,31.5117104 -0.417104953,20.1509836 5.04966991,11.4014871 L3.72831945,10.56 C-0.973360714,18.0840711 -1.24692495,27.5901623 3.01415771,35.3764261 C7.27524038,43.16269 15.3973544,47.9982309 24.2175988,48 L24.2175988,48 Z" id="Path" fill="#F1BB0C"></path>
                    <path d="M23.7828566,1.57614093 C32.0341602,1.57767496 39.6324482,6.10084662 43.6188726,13.3842884 C47.605297,20.6677302 47.3496786,29.5600661 42.9515576,36.5985329 L44.2729613,37.44 C50.1158916,28.086922 48.9995977,15.9434946 41.5512479,7.83226854 C34.1028981,-0.278957538 22.1795062,-2.33570104 12.48,2.81757972 L13.2108849,4.21054181 C16.4706503,2.48060084 20.0990446,1.57645111 23.7828566,1.57614093 Z" id="Path" fill="#F1BB0C"></path>
                    <path d="M37.2,44.16 L41.52,44.16 C41.7109711,44.16 41.8941348,44.0842087 42.0291718,43.9491718 C42.1642087,43.8141348 42.24,43.6309711 42.24,43.44 L42.24,39.12 C42.24,38.9290289 42.1642087,38.7458652 42.0291718,38.6108283 C41.8941348,38.4757913 41.7109711,38.4 41.52,38.4 L37.2,38.4 C37.0090289,38.4 36.8258652,38.4757913 36.6908283,38.6108283 C36.5557913,38.7458652 36.48,38.9290289 36.48,39.12 L36.48,43.44 C36.48,43.6309711 36.5557913,43.8141348 36.6908283,43.9491718 C36.8258652,44.0842087 37.0090289,44.16 37.2,44.16 L37.2,44.16 Z M37.92,39.84 L40.8,39.84 L40.8,42.72 L37.92,42.72 L37.92,39.84 Z" id="Shape" fill="#FFFFFF"></path>
                    <path d="M6.48000002,9.60000005 L10.8,9.60000005 C10.9909711,9.60000005 11.1741348,9.52420872 11.3091718,9.38917176 C11.4442087,9.2541348 11.52,9.07097112 11.52,8.88000002 L11.52,4.56000002 C11.52,4.36902893 11.4442087,4.18586525 11.3091718,4.05082829 C11.1741348,3.91579133 10.9909711,3.84 10.8,3.84 L6.48000002,3.84 C6.28902893,3.84 6.10586525,3.91579133 5.97082829,4.05082829 C5.83579133,4.18586525 5.76,4.36902893 5.76,4.56000002 L5.76,8.88000002 C5.76,9.07097112 5.83579133,9.2541348 5.97082829,9.38917176 C6.10586525,9.52420872 6.28902893,9.60000005 6.48000002,9.60000005 L6.48000002,9.60000005 Z M7.20000002,5.28000002 L10.08,5.28000002 L10.08,8.16000002 L7.20000002,8.16000002 L7.20000002,5.28000002 Z" id="Shape" fill="#FFFFFF"></path>
                    <g id="padlock" transform="translate(16.000000, 12.000000)" fill="#FFFFFF">
                        <path d="M8.13871371,0 C5.44777512,0.00354379498 3.26731796,2.18427873 3.26411694,4.87521774 L3.26411694,7.58645161 L1.67297581,7.58645161 C0.749553651,7.58774645 0.0012948329,8.33600526 1.26064034e-15,9.25942742 L1.26064034e-15,20.3272903 C0.00117328161,21.2507198 0.749546131,21.9989736 1.67297581,22 L14.6044516,22 C15.527864,21.9989737 16.2762297,21.2507469 16.2774274,20.3273347 L16.2774274,9.25947177 C16.2761326,8.33604962 15.5278738,7.5877908 14.6044516,7.58649597 L13.0137097,7.58649597 L13.0137097,4.8752621 C13.0105082,2.18416026 10.8298154,0.0033483421 8.13871371,0 L8.13871371,0 Z M4.41689919,4.87521774 C4.41229833,3.5424729 5.12066847,2.30899264 6.27409866,1.64128853 C7.42752885,0.973584422 8.84994293,0.973584422 10.0033731,1.64128853 C11.1568033,2.30899264 11.8651734,3.5424729 11.8605949,4.87521774 L11.8605949,7.58645161 L4.41672177,7.58645161 L4.41672177,4.8752621 L4.41689919,4.87521774 Z M2.62984274,15.2613468 L3.09783065,14.7933589 L2.62984274,14.325371 C2.40459742,14.1002236 2.40451798,13.7351082 2.62966532,13.5098629 C2.85481266,13.2846176 3.21992806,13.2845381 3.44517339,13.5096855 L3.91316129,13.9783387 L4.38185887,13.5098629 C4.60805673,13.2907574 4.96820801,13.2936596 5.19084553,13.5163819 C5.41348305,13.7391042 5.41624808,14.0992566 5.19705645,14.325371 L4.72906855,14.7933589 L5.19705645,15.2613468 C5.3427884,15.4069678 5.39976238,15.6192742 5.34651685,15.8182923 C5.29327132,16.0173104 5.13789554,16.1728045 4.93891806,16.2262016 C4.73994058,16.2795986 4.52759082,16.2227863 4.38185887,16.0771653 L3.91338306,15.6086895 L3.44539516,16.0773427 C3.22002735,16.3024901 2.85481267,16.3023113 2.62966533,16.0769435 C2.40451799,15.8515757 2.40469671,15.4863611 2.63006452,15.2612137 L2.62984274,15.2613468 Z M11.0804597,15.2613468 L11.5484032,14.7933589 L11.0804597,14.325371 C10.9301646,14.1807168 10.8697158,13.9661677 10.9223867,13.7643282 C10.9750577,13.5624887 11.1326347,13.4048345 11.3344484,13.3520647 C11.5362622,13.2992949 11.7508408,13.3596387 11.8955685,13.5098629 L12.3642218,13.9785161 L12.8318548,13.5095081 C13.0572227,13.2844587 13.4223579,13.2847169 13.6474072,13.5100847 C13.8724566,13.7354525 13.8721984,14.1005877 13.6468306,14.3256371 L13.1797298,14.7934476 L13.6468306,15.2612581 C13.8722597,15.4863074 13.8725675,15.8514923 13.6475181,16.0769214 C13.4224688,16.3023504 13.0572839,16.3026582 12.8318548,16.0776089 L12.3643992,15.6084677 L11.8955685,16.0771653 C11.7498366,16.2227864 11.5374868,16.2795987 11.3385094,16.2262016 C11.1395319,16.1728046 10.9841561,16.0173104 10.9309106,15.8182923 C10.877665,15.6192742 10.934639,15.4069678 11.080371,15.2613468 L11.0804597,15.2613468 Z M6.85548387,15.2613468 L7.32258468,14.7933589 L6.85548387,14.3255927 C6.70969646,14.1800113 6.65265009,13.9677119 6.70583359,13.7686656 C6.75901708,13.5696193 6.91435059,13.414066 7.11332149,13.3606011 C7.31229239,13.3071362 7.52467227,13.3638823 7.67045968,13.5094637 L8.13827016,13.9786935 L8.6066129,13.5096411 C8.752329,13.3639963 8.96467681,13.3071536 9.16366695,13.3605251 C9.36265709,13.4138965 9.51805823,13.5693737 9.57133227,13.76839 C9.62460631,13.9674062 9.56765965,14.1797262 9.42194355,14.325371 L8.954,14.7933145 L9.42194355,15.2613024 C9.64731136,15.4864498 9.64749008,15.8516644 9.42234274,16.0770323 C9.1971954,16.3024001 8.83198071,16.3025788 8.6066129,16.0774315 L8.13835887,15.6084677 L7.67054839,16.0776976 C7.52471344,16.223279 7.31228963,16.2799997 7.11329496,16.2264937 C6.91430029,16.1729876 6.75896678,16.0173836 6.70580706,15.8182961 C6.65264734,15.6192086 6.70973763,15.4068838 6.85557258,15.2613024 L6.85548387,15.2613468 Z" id="Shape"></path>
                    </g>
                </g>
            </g>
        </g>
    </g>
</svg>