<svg width="16" height="18" viewBox="0 0 16 18" xmlns="http://www.w3.org/2000/svg">
    <g fill-rule="nonzero" fill="none">
        <path d="M14.063 2.25h-1.688V.422A.423.423 0 0 0 11.953 0h-.281a.423.423 0 0 0-.422.422V2.25H4.5V.422A.423.423 0 0 0 4.078 0h-.281a.423.423 0 0 0-.422.422V2.25H1.687C.756 2.25 0 3.006 0 3.938v12.374C0 17.244.756 18 1.688 18h12.374c.932 0 1.688-.756 1.688-1.688V3.938c0-.931-.756-1.687-1.688-1.687zM1.687 3.375h12.376c.309 0 .562.253.562.563v1.687h-13.5V3.937c0-.309.253-.562.563-.562zm12.376 13.5H1.687a.564.564 0 0 1-.562-.563V6.75h13.5v9.563c0 .309-.253.562-.563.562z" fill="#A9AAB3"/>
        <path d="M10.828 12.375H4.922a.423.423 0 0 1-.422-.422v-.281c0-.232.19-.422.422-.422h5.906c.232 0 .422.19.422.422v.281c0 .232-.19.422-.422.422z" fill="#F1BB0C"/>
    </g>
</svg>
