<?xml version="1.0" encoding="utf-8"?>
<svg width="36px" height="36px" viewBox="0 0 36 36" version="1.1" xmlns:xlink="http://www.w3.org/1999/xlink" xmlns="http://www.w3.org/2000/svg">
  <defs>
    <path d="M18 36C27.9411 36 36 27.9411 36 18C36 8.05887 27.9411 0 18 0C8.05887 0 0 8.05887 0 18C0 27.9411 8.05887 36 18 36Z" id="path_1" />
    <clipPath id="clip_1">
      <use xlink:href="#path_1" />
    </clipPath>
  </defs>
  <g id="no-avatar">
    <g id="Oval">
      <use stroke="none" fill="#070708" xlink:href="#path_1" fill-rule="evenodd" />
      <g clip-path="url(#clip_1)">
        <use xlink:href="#path_1" fill="none" stroke="#4D4E53" stroke-width="2" />
      </g>
    </g>
    <path d="M25.5552 12.474C25.2801 12.4453 25.0082 12.3912 24.7431 12.3122C24.7238 12.236 24.6865 12.1654 24.6341 12.1067C24.5818 12.048 24.5161 12.0028 24.4425 11.975C24.3689 11.9471 24.2897 11.9374 24.2116 11.9468C24.1335 11.9562 24.0589 11.9843 23.994 12.0288C23.2777 11.6976 22.6177 11.2228 22.0739 10.7119C22.0193 10.6604 21.9645 10.6089 21.9101 10.557C21.9198 10.4606 21.9091 10.3632 21.8785 10.2713C21.848 10.1793 21.7983 10.0949 21.7328 10.0235C21.6673 9.95208 21.5874 9.89535 21.4985 9.85702C21.4094 9.81867 21.3133 9.7996 21.2165 9.80103C21.0798 9.60575 20.959 9.3582 21.0626 9.12384C21.2692 8.65653 22.1046 8.83795 22.4799 8.91691C23.3788 9.10656 24.3223 9.50439 25.1434 9.91216C25.4727 10.0758 25.7993 10.2497 26.1183 10.4338C25.0867 9.48592 23.8644 8.76942 22.5333 8.33233C20.8217 7.76809 18.9206 7.65021 17.1552 8.01931C16.897 8.07324 16.6428 8.13634 16.3927 8.20864C16.3155 8.12937 16.2173 8.07371 16.1096 8.04814C16.0019 8.02257 15.8892 8.02815 15.7846 8.06423C15.6799 8.10031 15.5877 8.1654 15.5187 8.2519C15.4496 8.33841 15.4066 8.44277 15.3946 8.5528C13.2739 9.40734 11.5283 10.9417 10.4112 12.978C10.4619 12.8792 10.5138 12.7806 10.5679 12.6827C10.5392 12.7305 10.5103 12.778 10.4823 12.8266C7.65374 17.7257 9.33305 23.9905 14.232 26.8188C18.6024 29.3421 24.0596 28.2784 27.1948 24.5414C25.432 26.0454 23.3779 27.1435 21.0378 27.4452L21.0382 27.4446C20.1245 27.6022 19.1935 27.6326 18.2715 27.5349C17.8668 27.4755 17.4676 27.3975 17.081 27.303C16.5416 27.1708 15.9768 26.9991 15.4829 26.7437C15.32 26.6595 15.1518 26.5602 15.0179 26.4341C14.8841 26.308 14.755 26.1216 14.8848 25.932C14.949 25.8384 15.0219 25.7464 15.1076 25.6715C15.1358 25.6682 15.1639 25.6634 15.1916 25.6571L15.2111 25.728L15.4475 25.6637L15.4218 25.5696C15.4593 25.5488 15.4952 25.5252 15.5291 25.4989C15.8295 25.4951 16.1937 25.6875 16.4511 25.8032C16.8169 25.9675 17.1755 26.1033 17.5504 26.2028C17.2952 26.087 17.0345 25.9824 16.7766 25.8737C16.4161 25.7218 16.0097 25.4995 15.7879 25.1664C15.8499 25.0239 15.8718 24.8672 15.8512 24.7131C15.8306 24.5591 15.7682 24.4136 15.6708 24.2925C15.7228 24.1063 15.8099 23.9274 15.9015 23.7625C15.9819 23.6177 16.0698 23.4773 16.1551 23.3353C16.237 23.1987 16.317 23.0651 16.4276 22.9491C16.5163 22.8566 16.5863 22.7558 16.656 22.6486C16.727 22.5385 16.8038 22.4322 16.8862 22.3303L16.9012 22.3389C17.061 22.4312 17.2373 22.4911 17.4202 22.5152C17.6032 22.5393 17.789 22.5271 17.9671 22.4793C18.1454 22.4316 18.3124 22.3492 18.4587 22.2369C18.6051 22.1246 18.7279 21.9845 18.8202 21.8248C18.8446 21.7823 18.867 21.7386 18.887 21.6938C19.0328 21.7231 19.1771 21.7595 19.3196 21.8C19.5605 21.869 19.8019 21.9453 20.0419 22.0271C19.7101 21.8015 19.3794 21.5693 19.0689 21.3197C19.0473 21.3023 19.0242 21.2838 19.0009 21.2643C19.0206 21.0674 18.9985 20.8686 18.9364 20.6808L20.0927 19.9505C20.1556 20.012 20.2374 20.0504 20.3248 20.0597C20.4122 20.0689 20.5002 20.0485 20.5746 20.0015C20.649 19.9546 20.7054 19.884 20.7346 19.8011C20.7639 19.7181 20.7644 19.6278 20.736 19.5446L23.2247 17.9741C23.3111 18.0559 23.4122 18.1209 23.5226 18.1655C23.5189 18.2522 23.5098 18.3386 23.4956 18.4243C23.3957 19.0472 23.0572 19.6173 22.9626 20.1374C22.9626 20.1374 23.0795 20.1488 23.0695 20.1699C23.2669 19.7567 23.7207 18.6112 23.9765 18.2294C24.1559 18.2106 24.3262 18.1412 24.4676 18.0292C24.609 17.9172 24.7155 17.7672 24.7749 17.5969C24.9134 17.5649 25.309 17.5966 25.4504 17.5826C25.4504 17.5826 25.3722 17.5194 25.4592 17.5088C25.239 17.4712 25.0151 17.418 24.8269 17.3252C24.8343 17.1518 24.794 16.9797 24.7104 16.8276C24.6268 16.6754 24.5032 16.5491 24.3528 16.4624C24.3395 16.4547 24.2348 16.4054 24.2209 16.3982C24.2188 15.313 24.2925 14.193 24.3265 12.9162C24.4447 12.9022 24.5536 12.8455 24.6329 12.7568C24.7122 12.6681 24.7564 12.5536 24.7572 12.4346C24.815 12.4285 24.8733 12.428 24.9313 12.433C25.0517 12.4418 25.1711 12.4577 25.2921 12.4654C25.3895 12.4711 25.4763 12.4745 25.5545 12.4743L25.5552 12.474ZM14.1791 26.1595C13.0775 25.5012 12.1131 24.637 11.3385 23.6139C11.1673 23.3691 11.0265 23.1909 11.0591 22.8467C11.0661 22.7733 11.0836 22.6871 11.1179 22.6225L11.2083 22.4515L11.4006 22.4719C11.6016 22.4931 11.8596 22.7295 12.0019 22.8727C12.2892 23.162 12.5735 23.4574 12.8879 23.7175C13.1428 23.9281 13.4025 24.1326 13.6672 24.3309C13.8322 24.4537 13.9992 24.5739 14.1651 24.6953C14.1388 24.865 14.1644 25.0387 14.2386 25.1937C14.3128 25.3485 14.4322 25.4775 14.5809 25.5633C14.5923 25.5698 14.6035 25.5763 14.6152 25.582C14.5945 25.627 14.5722 25.6701 14.5516 25.7099C14.464 25.8798 14.3763 26.0995 14.179 26.1596L14.1791 26.1595ZM19.9757 19.682L18.8195 20.4208C18.7001 20.2132 18.5293 20.0398 18.3237 19.917C18.3987 19.4901 18.6422 19.0581 18.8446 18.7234C18.8931 18.6432 18.9406 18.562 18.9877 18.4807L20.0261 19.478C19.9911 19.5399 19.9737 19.6102 19.9758 19.6813L19.9757 19.682ZM20.1693 19.3333L19.0928 18.2984C19.2379 18.0429 19.3801 17.7855 19.5325 17.5342C19.8915 17.6583 20.2825 17.6536 20.6383 17.5208C20.9942 17.3879 21.2927 17.1354 21.4826 16.8064C21.4868 16.7991 21.4911 16.7917 21.4953 16.7845C21.9687 16.9525 22.4581 17.0735 22.9304 17.2473C22.9243 17.4134 22.9615 17.5782 23.0385 17.7255L20.5409 19.3207C20.4829 19.2918 20.4185 19.2778 20.3536 19.2799C20.2888 19.282 20.2255 19.3003 20.1694 19.333L20.1693 19.3333ZM17.5527 16.8183C17.5856 16.7328 17.5991 16.641 17.5922 16.5496C17.5853 16.4582 17.5581 16.3695 17.5127 16.29C17.4673 16.2104 17.4047 16.1419 17.3296 16.0895C17.2544 16.037 17.1686 16.002 17.0782 15.9869L17.2386 14.1955C17.3151 14.1684 17.3877 14.1313 17.4543 14.0851C17.515 14.1189 17.5742 14.1564 17.6318 14.1955C17.9998 14.447 18.3871 14.7441 18.7048 15.0856C18.6861 15.1137 18.668 15.1424 18.6509 15.172C18.4384 15.5403 18.3777 15.9768 18.4818 16.3891C18.5858 16.8013 18.8464 17.1568 19.2083 17.3801C19.1102 17.6184 18.9809 17.8462 18.8469 18.0625L17.5527 16.8183L17.5527 16.8183ZM18.7423 18.2451C18.6233 18.4797 18.4918 18.7083 18.3598 18.9357C18.2443 19.1357 18.1271 19.3348 18.0042 19.5304C17.9594 19.6019 17.9137 19.6729 17.8665 19.7428C17.7133 19.7136 17.5563 19.7102 17.402 19.7326L17.1156 17.1969C17.2439 17.1676 17.3595 17.0979 17.4452 16.998L18.7424 18.2447L18.7423 18.2451ZM13.5464 18.5229C13.7033 18.4818 13.8519 18.4139 13.9857 18.3222C14.0722 18.3872 14.1541 18.458 14.231 18.5342C14.3846 18.6858 14.5425 18.8318 14.7046 18.9723C14.6638 19.0641 14.6574 19.1675 14.6865 19.2637L13.805 19.8332L13.5465 18.5221L13.5464 18.5229ZM13.8609 20.1196L14.8422 19.4837C14.8538 19.4921 14.8659 19.4999 14.8783 19.5071C14.9498 19.5484 15.0318 19.5677 15.1142 19.5627C15.1965 19.5577 15.2756 19.5285 15.3415 19.4788C15.5931 19.6687 15.8449 19.8576 16.0886 20.0579C16.2108 20.1572 16.3127 20.2791 16.3889 20.4169L16.3867 20.4208C16.2811 20.6031 16.218 20.8068 16.2021 21.0169L14.5998 21.4689C14.5516 21.3811 14.4736 21.3134 14.3799 21.278C14.2862 21.2426 14.1829 21.2418 14.0887 21.2758L13.8612 20.1198L13.8609 20.1196ZM13.9058 21.4047C13.8561 21.4655 13.8243 21.5389 13.8142 21.6169C13.8041 21.6948 13.816 21.7739 13.8485 21.8454C13.8811 21.9169 13.933 21.9778 13.9984 22.0213C14.0638 22.0648 14.1401 22.0891 14.2186 22.0914L14.7437 24.0167C14.5932 24.0653 14.4593 24.1551 14.3572 24.276C14.0502 24.2403 13.7424 24.1024 13.5002 23.9211C13.1686 23.6731 12.856 23.4074 12.5725 23.1053C12.3664 22.886 12.1769 22.6522 11.9899 22.4168C11.8297 22.2145 11.6728 22.0041 11.581 21.7604C11.5644 21.716 11.5503 21.6707 11.5387 21.6247L13.6763 20.2388L13.9059 21.4042L13.9058 21.4047ZM13.6199 19.9531L11.4972 21.3245C11.4844 20.9146 11.6338 20.4977 11.791 20.1264C11.9797 19.6808 12.1842 19.2406 12.4168 18.8162C12.4834 18.691 12.5607 18.5718 12.6478 18.4599C12.8677 18.5522 13.1075 18.5868 13.3445 18.5603L13.6186 19.9534L13.6199 19.9531ZM10.8126 17.9712C10.8991 17.9342 10.9722 17.8716 11.022 17.7918C11.0719 17.712 11.096 17.6188 11.0913 17.5248L11.7912 17.2919C11.823 17.6379 11.9817 17.96 12.2369 18.1959C12.0285 18.5499 11.8522 18.9192 11.6954 19.3002C11.5711 19.601 11.4755 19.9119 11.3843 20.2239C11.3382 20.3815 11.2481 20.6102 11.11 20.7164L10.8129 17.9714L10.8126 17.9712ZM10.8735 20.7888L10.7892 20.7402C10.6348 20.6511 10.4934 20.3846 10.4145 20.2233C10.3333 20.0572 10.2658 19.8853 10.1879 19.7179C9.90639 19.1144 9.75742 18.6942 9.76971 18.0158C9.79121 16.799 9.86946 16.3948 10.5343 15.3589C10.6581 15.1661 10.8791 14.8216 11.0493 14.6821L11.1437 14.6045L10.6063 17.0888C10.4919 17.0954 10.384 17.1445 10.3039 17.2265C10.2238 17.3085 10.1771 17.4174 10.1731 17.5319C10.1691 17.6465 10.208 17.7584 10.2822 17.8458C10.3564 17.9331 10.4605 17.9897 10.5742 18.0043L10.8739 20.7885L10.8735 20.7888ZM11.3904 14.6243L11.4703 14.7473C11.5539 14.8758 11.6161 15.0395 11.6795 15.1803C11.7883 15.4228 11.881 15.6766 12.0062 15.9111C12.0584 16.009 12.111 16.1068 12.164 16.2043C11.9519 16.4321 11.821 16.7235 11.7916 17.0334L11.0145 17.2918C10.9755 17.2333 10.9236 17.1845 10.8627 17.1493C10.8572 17.1462 10.8518 17.1431 10.8464 17.1399L11.3904 14.6243ZM13.3483 15.7675C13.1467 15.7449 12.9426 15.7661 12.7498 15.8296C12.5738 15.5643 12.4278 15.2809 12.2707 15.0042L12.2607 14.9865L12.2532 14.9676C12.1403 14.6789 12.0231 14.3894 11.9453 14.089C11.8882 13.8672 11.8553 13.6362 11.9107 13.4104C11.9621 13.2024 12.0799 13.0308 12.227 12.8796C12.4081 12.6935 12.5983 12.516 12.7906 12.3413C13.0458 12.1094 13.3074 11.8846 13.5755 11.6668C13.7995 11.486 14.0281 11.3107 14.2649 11.1472C14.4353 11.0299 14.6311 10.9375 14.8422 10.9396C14.9325 10.9408 15.0218 10.9592 15.1051 10.9937L14.0485 13.057C13.9418 13.0367 13.8313 13.0548 13.7366 13.1082C13.6419 13.1615 13.5692 13.2467 13.5313 13.3485C13.4934 13.4503 13.4928 13.5623 13.5295 13.6645C13.5662 13.7668 13.638 13.8528 13.732 13.9072C13.7375 13.9103 13.7429 13.9135 13.7484 13.9167L13.721 14.0425L13.3476 15.7685L13.3483 15.7675ZM15.3096 11.1109C15.5859 11.3183 15.7906 11.6735 15.9297 11.9492C16.0307 12.133 16.1374 12.3134 16.2226 12.5054C16.2496 12.565 16.2723 12.6264 16.2906 12.6892C16.2337 12.7459 16.1847 12.8098 16.1445 12.8793C16.1407 12.8859 16.137 12.8923 16.1331 12.8991L14.3526 13.2645C14.324 13.219 14.2877 13.1788 14.2453 13.1459L15.3096 11.1107L15.3096 11.1109ZM16.0358 13.1767C16.018 13.2756 16.0169 13.3769 16.0322 13.4762C16.0027 13.5105 15.9732 13.5431 15.9443 13.5746C15.8032 13.729 15.6544 13.8762 15.506 14.0236C15.2945 14.234 15.082 14.4435 14.8721 14.6556C14.6892 14.8404 14.516 15.0346 14.3475 15.2327C14.2096 15.3948 14.0747 15.5555 13.9292 15.7117C13.8838 15.7604 13.8283 15.8211 13.7663 15.8832C13.7085 15.8569 13.6489 15.8348 13.588 15.8168L13.9882 13.9681C14.1028 13.9615 14.2107 13.9123 14.291 13.8303C14.3713 13.7482 14.4179 13.6391 14.4219 13.5243L16.0355 13.1773L16.0358 13.1767ZM18.1645 9.92943C18.3211 9.90565 18.4633 9.82457 18.5635 9.70189L20.5503 10.3697C20.5277 10.5017 20.5439 10.6375 20.5971 10.7604L20.589 10.765C20.5239 10.8028 20.4569 10.8351 20.3894 10.8681C20.3258 10.9014 20.2594 10.9289 20.191 10.9503C20.1466 10.9633 20.1033 10.9795 20.0613 10.9989C19.6605 11.1764 19.2747 11.3904 18.8946 11.6079C18.5593 11.8002 18.2278 11.9992 17.8984 12.2017C17.7801 12.2743 17.6107 12.3857 17.4399 12.459L18.1646 9.93002L18.1645 9.92943ZM17.1844 12.4588C17.0858 12.4306 16.9831 12.4193 16.8808 12.4254C16.7446 12.3107 16.6263 12.1276 16.5389 12.0042C16.3575 11.7507 16.2787 11.4935 16.1735 11.2068C16.0765 10.9423 15.9892 10.6063 16.1512 10.3493C16.3085 10.1004 16.6836 9.97602 16.9506 9.88101C17.1511 9.80988 17.3523 9.74162 17.5552 9.6782C17.6433 9.7967 17.7696 9.88118 17.9127 9.9174L17.1844 12.4588L17.1844 12.4588ZM18.6798 9.4823C18.6887 9.45296 18.6953 9.42303 18.6998 9.39273C18.9201 9.3519 19.1415 9.31717 19.3637 9.28852C19.5801 9.2602 19.8306 9.22882 20.0385 9.31039C20.2003 9.37361 20.3184 9.49686 20.4148 9.63744C20.5081 9.77363 20.6039 9.90826 20.7087 10.036C20.6809 10.068 20.656 10.1026 20.6346 10.1393L18.6795 9.48228L18.6798 9.4823ZM18.3875 8.74511C18.284 8.68537 18.1658 8.65587 18.0464 8.65996C17.927 8.66405 17.8112 8.70158 17.712 8.76826C17.6128 8.83493 17.5344 8.92809 17.4855 9.03715C17.4367 9.14621 17.4194 9.26678 17.4357 9.38515C17.3101 9.41413 17.1849 9.44549 17.0613 9.48166C16.9488 9.51441 16.8382 9.55447 16.7265 9.59025C16.5904 9.6334 16.4417 9.68654 16.3016 9.70827L15.932 9.76625L15.9732 9.39448C15.9817 9.32776 15.9951 9.26176 16.0133 9.19704C16.0916 9.19185 16.1679 9.17092 16.2379 9.13552C16.3079 9.10012 16.37 9.05098 16.4205 8.99102C16.471 8.93106 16.509 8.86152 16.532 8.78657C16.555 8.71162 16.5627 8.63279 16.5546 8.55481C16.5866 8.54694 16.6176 8.53889 16.6485 8.53042C17.6933 8.23986 18.7757 8.13596 19.8569 8.20709L20.3221 8.23789L20.0838 8.63862C20.0538 8.68917 20.0372 8.7466 20.0357 8.80539L20.0306 8.97602L19.8781 9.05258C19.8089 9.08729 19.7215 9.09504 19.6448 9.08708C19.578 9.08035 19.5105 9.08843 19.4436 9.0907C19.1918 9.10053 18.9407 9.12302 18.6912 9.15808C18.6719 9.07206 18.635 8.99098 18.5828 8.91998C18.5305 8.84898 18.4641 8.78959 18.3877 8.7456L18.3875 8.74511ZM16.2057 21.2696C16.2286 21.4843 16.3003 21.6908 16.4153 21.8735C16.2103 22.5137 15.8196 23.1529 15.5518 23.6259C15.4728 23.7699 15.3701 23.8995 15.2481 24.0094C15.1633 23.9843 15.0751 23.9726 14.9867 23.9748L14.4553 22.0264C14.5099 21.9919 14.5558 21.9454 14.5895 21.8903C14.6233 21.8353 14.6439 21.7733 14.6498 21.709L16.2061 21.2699L16.2057 21.2696ZM17.1625 19.7886C16.9244 19.8667 16.7117 20.0074 16.5465 20.1958C16.2765 20.0272 16.0317 19.8118 15.791 19.6047C15.6828 19.5117 15.5747 19.4188 15.467 19.3252C15.5065 19.2434 15.5185 19.1512 15.5011 19.062C15.4838 18.9729 15.4381 18.8918 15.3708 18.8309C15.3035 18.7699 15.2184 18.7323 15.128 18.7238C15.0376 18.7153 14.9469 18.7362 14.8694 18.7836C14.7937 18.7106 14.7191 18.6362 14.6456 18.5603C14.498 18.4101 14.3749 18.2377 14.2805 18.0493C14.3274 17.9916 14.3696 17.9302 14.4068 17.8658C14.5376 17.6401 14.6026 17.3823 14.5944 17.1215L16.4361 16.8926C16.4807 16.9735 16.5428 17.0434 16.6179 17.0971C16.693 17.1508 16.7792 17.1871 16.8701 17.2033L17.1628 19.7886L17.1625 19.7886ZM14.5611 16.8559C14.5188 16.6675 14.4382 16.4898 14.3244 16.3339C14.4376 16.0923 14.579 15.8648 14.7456 15.6563C14.8167 15.5661 14.8916 15.4792 14.9704 15.3955C15.1652 15.1878 15.3628 14.9828 15.563 14.7803C15.7944 14.546 16.0614 14.2283 16.3652 14.0489C16.5288 14.1789 16.732 14.2491 16.941 14.2479L16.818 15.9992C16.6864 16.0344 16.5702 16.1122 16.4873 16.2203C16.4044 16.3284 16.3597 16.4609 16.3599 16.5971L14.5611 16.8559L14.5611 16.8559ZM20.2283 14.3621C19.9949 14.3392 19.7593 14.3666 19.5374 14.4425C19.3155 14.5185 19.1124 14.6412 18.942 14.8023C18.6595 14.5677 18.3862 14.3212 18.1243 14.0647C18.023 13.965 17.8857 13.8317 17.7764 13.6844C17.828 13.5597 17.8513 13.4251 17.8446 13.2904C17.8379 13.1555 17.8013 13.024 17.7376 12.905C17.8271 12.7934 17.9419 12.6937 18.0329 12.6104C18.3817 12.2914 18.7815 12.021 19.1848 11.7762C19.6024 11.524 20.0323 11.293 20.473 11.084C20.5525 11.0461 20.6402 11.0021 20.731 10.9622C20.8043 11.0384 20.894 11.0969 20.9935 11.133L20.2283 14.3621ZM21.1904 11.1727C21.286 11.1778 21.3815 11.1629 21.4709 11.1289C21.5603 11.095 21.6417 11.0427 21.7097 10.9755C21.7666 11.0083 21.8206 11.0448 21.8733 11.0814C22.1097 11.2454 22.3059 11.4614 22.3333 11.7608C22.3719 12.1821 22.0462 12.6586 21.843 13.0119C21.5383 13.5419 21.2076 14.0554 20.8793 14.5706C20.7342 14.4874 20.5772 14.4269 20.4138 14.3914L21.1904 11.1727L21.1904 11.1727ZM22.9855 16.96C22.5273 16.8129 22.0756 16.6481 21.63 16.4655C21.7243 16.1556 21.7244 15.8248 21.6305 15.5148C21.5366 15.2049 21.3528 14.9297 21.1024 14.7243L22.4195 12.293C22.5864 11.9726 22.8842 11.7297 23.261 11.8903C23.4321 11.9633 23.6749 12.0575 23.8475 12.1869C23.783 12.299 23.7656 12.432 23.7992 12.5569C23.8328 12.6817 23.9144 12.7882 24.0264 12.8528C24.0699 12.8779 24.117 12.8962 24.1659 12.9071C24.0996 14.2135 24.1485 15.3406 24.0191 16.3623C23.9846 16.3596 23.873 16.3329 23.8389 16.3338C23.5213 16.3438 23.2249 16.5163 23.0568 16.8092C22.8704 17.1335 23.0051 16.9085 22.9865 16.9598L22.9855 16.96ZM15.5872 9.05104L15.4911 9.44465C15.4597 9.57277 15.4193 9.69928 15.379 9.8249C15.296 10.0845 14.9664 10.2818 14.7378 10.4091C14.5532 10.5122 14.356 10.6017 14.1791 10.7177C13.7888 10.9726 13.4086 11.2443 13.0449 11.5367C12.9789 11.5899 12.914 11.6543 12.8528 11.7132C12.7579 11.8044 12.6639 11.8965 12.5688 11.9874C12.4661 12.0854 12.3619 12.1829 12.2535 12.2744L11.7278 12.7175L11.7841 12.0319C11.7854 12.0158 11.7868 11.9998 11.7884 11.9839L11.796 11.904L11.8441 11.84C12.6359 10.7806 13.6343 9.8992 14.8001 9.27152C14.8957 9.21997 14.9897 9.16712 15.0877 9.11949L15.482 8.92745C15.5112 8.97329 15.5466 9.01488 15.5872 9.05104L15.5872 9.05104Z" id="Shape" fill="#A9AAB3" fill-rule="evenodd" stroke="none" />
  </g>
</svg>