<svg width="910" height="910" viewBox="0 0 910 910" xmlns="http://www.w3.org/2000/svg">
    <defs>
        <clipPath id="jj7qg4t0ua">
            <path d="M1920 0v3876H0V0h1920z"/>
        </clipPath>
        <clipPath id="htp1ej95pb">
            <path d="M59 0c32.585 0 59 26.415 59 59s-26.415 59-59 59S0 91.585 0 59 26.415 0 59 0z"/>
        </clipPath>
        <clipPath id="c9avshqpac">
            <path d="m6.883 48-.297.561c-.112.212-.17.495-.192.735-.107 1.128.355 1.712.916 2.515a32.75 32.75 0 0 0 9.31 8.344c.647-.197.934-.917 1.221-1.474.068-.13.141-.272.209-.42-.038-.018-.075-.04-.112-.06a2.791 2.791 0 0 1-1.363-2.846c-.544-.398-1.091-.792-1.632-1.194a68.431 68.431 0 0 1-2.555-2.01c-1.03-.853-1.962-1.822-2.904-2.77-.466-.47-1.312-1.244-1.97-1.313L6.882 48zm8.09-7.252L7.966 45.29c.038.15.084.299.139.444.3.8.815 1.489 1.34 2.152.613.771 1.234 1.538 1.91 2.257.929.99 1.953 1.86 3.04 2.674.794.594 1.803 1.046 2.81 1.163.334-.396.773-.69 1.266-.85l-1.721-6.31a1.38 1.38 0 0 1-1.025-2.251l-.752-3.822zm8.29 3.379-5.1 1.44a1.378 1.378 0 0 1-.637 1.04l1.742 6.387c.29-.008.579.03.857.113.4-.36.736-.785.995-1.257.878-1.55 2.158-3.645 2.83-5.744a4.633 4.633 0 0 1-.687-1.98v.001zm-2.832-5.87a1.377 1.377 0 0 1-1.637.016l-3.216 2.084.746 3.79A1.377 1.377 0 0 1 18 44.78l5.253-1.482a4.588 4.588 0 0 1 .605-1.953l.007-.013a4.038 4.038 0 0 0-.984-1.177c-.8-.657-1.625-1.276-2.45-1.898zm-8.83-3.34a8.08 8.08 0 0 0-.757 1.168 47.174 47.174 0 0 0-2.051 4.294c-.516 1.217-1.005 2.584-.963 3.927l6.958-4.494-.903-4.566a4.579 4.579 0 0 1-2.284-.329zM6.671 22.28l-.31.254c-.557.458-1.281 1.587-1.687 2.219-2.18 3.395-2.436 4.72-2.506 8.708-.04 2.224.448 3.601 1.37 5.58.256.548.477 1.112.743 1.656.259.529.722 1.402 1.228 1.694l.276.16-.98-9.127a1.508 1.508 0 0 1 .105-3.001L6.67 22.28zm2.123 8.809-2.295.763a1.508 1.508 0 0 1-.913 1.463l.975 8.998c.452-.348.748-1.097.899-1.614.299-1.022.612-2.042 1.02-3.028a28.44 28.44 0 0 1 1.774-3.62 4.61 4.61 0 0 1-1.46-2.962zm23.588 3.896c-.154.267-.31.533-.47.796-.663 1.097-1.46 2.513-1.707 3.912.674.403 1.234.971 1.626 1.652l3.79-2.422c-.007-.235.05-.466.165-.669zm-8.364-5.205-6.036.75a4.577 4.577 0 0 1-1.029 3.041c.31.618.713 1.183 1.197 1.675.24.249.485.493.733.732a1.378 1.378 0 0 1 1.959 1.775c.353.307.707.612 1.062.917.789.678 1.591 1.384 2.476 1.937a4.584 4.584 0 0 1 2.02-1.335l-.959-8.474a2.034 2.034 0 0 1-1.423-1.018zm-8.032 4.686c-.438.3-.925.523-1.44.658l.001-.001.847 4.295 2.89-1.866a1.374 1.374 0 0 1 .059-.955c-.531-.46-1.049-.94-1.552-1.437a7.772 7.772 0 0 0-.805-.694zm11.34-4.34c-.281.327-.66.555-1.08.651l.938 8.312a4.609 4.609 0 0 1 1.523.033c.155-.229.304-.462.451-.696.403-.641.787-1.294 1.166-1.95.433-.745.864-1.494 1.254-2.263zm13.275-.7-.041.071a5.358 5.358 0 0 1-6.392 2.386c-.5.824-.966 1.667-1.441 2.505l3.528 3.392a1.277 1.277 0 0 1 1.218-.041l8.187-5.229a3.137 3.137 0 0 1-.355-1.568c-1.548-.57-3.152-.966-4.704-1.516zm-13.245-8.848a2.984 2.984 0 0 1-.707.361l-.526 5.872a2.02 2.02 0 0 1 1.424.994 2.027 2.027 0 0 1 .131 1.731l4.243 4.078c.439-.708.863-1.455 1.184-2.236a5.358 5.358 0 0 1-1.65-7.521c-1.042-1.12-2.311-2.093-3.517-2.918a7.718 7.718 0 0 0-.582-.361zM7.48 22.345 5.697 30.59l.053.03c.2.116.37.276.498.467l2.547-.847a4.627 4.627 0 0 1 1.22-2.717c-.173-.32-.346-.64-.517-.961-.41-.769-.714-1.6-1.07-2.396-.208-.461-.412-.998-.686-1.419l-.262-.403zm16.306-1.886c-.996.588-1.87 1.629-2.63 2.397-.656.664-1.303 1.336-1.942 2.017-.258.274-.503.559-.737.855a11.116 11.116 0 0 0-1.38 2.22c.373.512.637 1.094.776 1.711l5.896-.848a2.025 2.025 0 0 1 1.501-1.96l.403-5.74a3.006 3.006 0 0 1-1.887-.652zm-1.08-2.86-5.29 1.14a1.509 1.509 0 0 1-1.421 1.455l-1.312 6.06c.2.059.395.131.584.217.204-.203.386-.402.534-.562.477-.512.92-1.039 1.371-1.57.553-.65 1.12-1.286 1.72-1.892.688-.695 1.384-1.382 2.078-2.071.486-.483.974-.966 1.436-1.472.095-.103.192-.21.289-.322a2.983 2.983 0 0 1 .011-.982zm15.39-7.258c-.297.131-.585.275-.845.4a47.675 47.675 0 0 0-4.223 2.268c-1.322.803-2.632 1.69-3.776 2.735-.298.273-.674.6-.968.965a2.99 2.99 0 0 1 .128 2.555c.358.483.808.92 1.14 1.247a44.12 44.12 0 0 0 2.68 2.417 5.376 5.376 0 0 1 4.217-1.443l2.507-10.584a2.266 2.266 0 0 1-.86-.56zm3.208.044a2.25 2.25 0 0 1-1.702.646l-2.546 10.55c.536.117 1.05.315 1.526.588 1.076-1.689 2.16-3.372 3.16-5.11.665-1.157 1.733-2.72 1.606-4.1-.09-.981-.733-1.69-1.508-2.227-.172-.12-.35-.24-.536-.347zm-20.978.443-3.489 6.67c.14.109.259.24.352.39l5.836-1.198.038-.065c.131-.228.292-.437.479-.623a4.521 4.521 0 0 0-.223-.602c-.28-.63-.63-1.221-.96-1.824-.456-.903-1.127-2.067-2.033-2.747zm.565-7.156-1.292.63c-.321.155-.63.329-.943.498-3.821 2.057-7.094 4.946-9.689 8.418l-.158.21-.025.262-.014.158-.184 2.247 1.723-1.453c.355-.3.697-.62 1.033-.94.312-.298.62-.6.931-.9.2-.192.413-.403.63-.578A46.544 46.544 0 0 1 16.62 9.54c.58-.38 1.227-.674 1.832-1.012.75-.417 1.83-1.063 2.102-1.915.132-.411.264-.826.367-1.246l.315-1.29a1.933 1.933 0 0 1-.345-.405zm10.1 2.538a2.094 2.094 0 0 1-1.307.746l-2.375 8.292c.56-.24 1.115-.606 1.503-.844 1.08-.664 2.166-1.316 3.265-1.946 1.246-.713 2.51-1.414 3.824-1.997a3.08 3.08 0 0 1 .425-.159c.225-.07.442-.16.65-.27.222-.107.441-.213.655-.337l.026-.015a2.261 2.261 0 0 1-.153-1.28zm-3.304-.077c-.666.208-1.325.431-1.982.664-.875.312-2.105.72-2.62 1.535-.531.843-.245 1.944.073 2.81.345.94.603 1.784 1.197 2.615.287.404.675 1.004 1.121 1.38.335-.02.672.017.995.11l2.387-8.33a2.104 2.104 0 0 1-1.171-.784zm8.14-1.206c-.682-.267-1.503-.164-2.213-.072-.728.094-1.453.208-2.176.342-.014.1-.036.197-.065.294l6.407 2.153c.07-.12.152-.234.243-.339-.343-.418-.657-.86-.963-1.306-.316-.46-.703-.865-1.234-1.072zm-.596-3.616a31.478 31.478 0 0 0-10.516 1.06c-.102.027-.203.054-.308.08a1.91 1.91 0 0 1-1.774 2.104c-.06.213-.104.429-.132.648l-.135 1.218 1.212-.19c.459-.071.946-.245 1.392-.387l.73-.242.368-.114c.405-.118.815-.22 1.227-.316a2.092 2.092 0 0 1 3.76-1.525c.17.233.292.499.355.78a24.62 24.62 0 0 1 2.466-.22c.22-.007.441-.034.66-.012.251.026.538 0 .764-.113l.5-.25.017-.56c.005-.193.06-.381.158-.547l.78-1.313zM4.277 16.935l.252-.45c3.67-6.444 9.286-11.305 16.076-14.041a1.912 1.912 0 0 1 3.271-1.128c.82-.237 1.653-.444 2.5-.62 5.786-1.21 12.017-.824 17.628 1.025a32.227 32.227 0 0 1 11.75 6.888A58.14 58.14 0 0 0 52.56 6.9c-2.691-1.336-5.784-2.64-8.73-3.262-1.23-.259-3.969-.853-4.646.679-.34.768.056 1.58.505 2.22a2.253 2.253 0 0 1 2.273 2.477c.178.17.358.339.537.508 1.782 1.674 3.946 3.23 6.293 4.316a1.6 1.6 0 0 1 2.456.93c.869.258 1.76.436 2.662.53-.259.001-.543-.01-.863-.029-.396-.025-.787-.077-1.182-.106a2.997 2.997 0 0 0-.57.005 1.6 1.6 0 0 1-1.412 1.58c-.112 4.184-.353 7.855-.347 11.412.046.024.39.185.433.21a3.11 3.11 0 0 1 1.553 2.829c.618.304 1.351.478 2.073.602-.285.034-.029.242-.029.242-.463.045-1.76-.058-2.214.047a3.116 3.116 0 0 1-2.617 2.073c-.838 1.251-2.326 5.006-2.973 6.36.033-.07-.35-.107-.35-.107.31-1.704 1.42-3.573 1.747-5.615.047-.28.076-.564.088-.848a3.122 3.122 0 0 1-.976-.627l-8.158 5.147a1.282 1.282 0 0 1-2.108 1.33l-3.79 2.395c.204.615.276 1.267.211 1.912l.223.182c1.018.818 2.102 1.579 3.19 2.319a49.793 49.793 0 0 0-2.368-.745c-.467-.133-.94-.252-1.418-.348a4.6 4.6 0 0 1-4.808 2.692 4.6 4.6 0 0 1-1.701-.577l-.05-.029c-.27.334-.52.683-.754 1.044-.228.351-.458.681-.748.985-.363.38-.625.818-.894 1.266-.28.465-.567.925-.83 1.4-.301.54-.587 1.127-.757 1.737a2.791 2.791 0 0 1 .384 2.865c.727 1.091 2.059 1.82 3.24 2.318.846.356 1.7.699 2.537 1.079-1.229-.327-2.404-.772-3.604-1.31-.843-.38-2.037-1.01-3.022-.998a2.748 2.748 0 0 1-.351.232l.084.308-.775.211-.064-.232c-.09.02-.183.036-.275.047a4.51 4.51 0 0 0-.73.854c-.426.621-.003 1.232.436 1.646.439.413.99.739 1.524 1.015 1.619.837 3.47 1.4 5.238 1.833 1.268.31 2.576.565 3.903.76 3.022.32 6.073.22 9.068-.296 7.67-.987 14.402-4.586 20.18-9.516C49.007 67.1 31.12 70.587 16.794 62.316.736 53.045-4.768 32.51 4.504 16.452c.091-.159.186-.315.28-.471-.178.32-.348.644-.514.967l.007-.013zm41.169 13.052.008-.015.266-.466a3.06 3.06 0 0 1 2.563-1.558c.112-.003.478.085.59.094.425-3.35.265-7.044.482-11.326a1.598 1.598 0 0 1-1.044-2.36c-.565-.425-1.361-.733-1.922-.973-1.235-.526-2.211.27-2.758 1.32l-4.317 7.97a5.361 5.361 0 0 1 1.729 5.707A60.323 60.323 0 0 0 45.486 30l-.04-.013zm-31.55-3.895 1.223-5.654.09-.413-.054-.03a1.507 1.507 0 0 1 1.038-2.787l3.463-6.763a2.334 2.334 0 0 0-.862-.178c-.692-.007-1.334.296-1.892.68a37.857 37.857 0 0 0-2.26 1.704 61.644 61.644 0 0 0-2.573 2.21 41.729 41.729 0 0 0-1.847 1.765c-.482.496-.868 1.058-1.037 1.74-.181.74-.074 1.497.114 2.224.255.985.639 1.934 1.009 2.88l.024.062.033.058c.515.907.994 1.836 1.57 2.706a4.626 4.626 0 0 1 1.962-.204h-.001z"/>
        </clipPath>
        <clipPath id="mmm6nkjlkd">
            <path d="M96 0c53.02 0 96 42.98 96 96s-42.98 96-96 96S0 149.02 0 96 42.98 0 96 0z"/>
        </clipPath>
        <clipPath id="5pkp2hmqfe">
            <path d="M142 0c78.424 0 142 63.576 142 142s-63.576 142-142 142S0 220.424 0 142 63.576 0 142 0z"/>
        </clipPath>
        <clipPath id="px9ct5w64f">
            <path d="M190 0c104.934 0 190 85.066 190 190s-85.066 190-190 190S0 294.934 0 190 85.066 0 190 0z"/>
        </clipPath>
        <clipPath id="y5y8j49rgg">
            <path d="M237 0c130.891 0 237 106.109 237 237 0 130.891-106.109 237-237 237C106.109 474 0 367.891 0 237 0 106.109 106.109 0 237 0z"/>
        </clipPath>
        <clipPath id="1aimncrh3h">
            <path d="M292 0c161.267 0 292 130.733 292 292S453.267 584 292 584 0 453.267 0 292 130.733 0 292 0z"/>
        </clipPath>
        <clipPath id="xbfqo3rmsi">
            <path d="M345 0c190.538 0 345 154.462 345 345S535.538 690 345 690 0 535.538 0 345 154.462 0 345 0z"/>
        </clipPath>
        <clipPath id="9f1bpkkozj">
            <path d="M398 0c219.81 0 398 178.19 398 398S617.81 796 398 796 0 617.81 0 398 178.19 0 398 0z"/>
        </clipPath>
        <clipPath id="mh9bk04ibk">
            <path d="M455 0c251.29 0 455 203.71 455 455S706.29 910 455 910 0 706.29 0 455 203.71 0 455 0z"/>
        </clipPath>
        <clipPath id="k7zxlm2dnl">
            <path d="M22 0c12.15 0 22 9.85 22 22s-9.85 22-22 22S0 34.15 0 22 9.85 0 22 0z"/>
        </clipPath>
        <clipPath id="byrpq09k5m">
            <path d="M12.574 12.503s1.89 1.33 4.218 1.922c1.736.442 1.818 2.446 1.754 3.434l-.004.053c-.02.253-.108 1.36-.196 1.883 0 0-3.39 2.205-9.065 2.205-5.676-.005-9.065-2.205-9.065-2.205-.088-.522-.177-1.63-.196-1.883l-.004-.053c-.069-.988.013-2.992 1.749-3.434 2.328-.592 4.218-1.922 4.218-1.922l1.48 4.669.278.879.005-.014.241.747.78-2.21c-1.87-2.606.282-2.64.502-2.637h.024c.22-.004 2.371.03.503 2.638l.779 2.21.24-.748.005.014.278-.88 1.476-4.668zM11.344.518c.834.46 1.153 1.07 1.153 1.07l.025.004.042.007.06.014c.417.113 1.683.726 1.14 3.993-.037.2-.092.41-.165.615.383-.036.834.187.41 1.685-.31 1.098-.597 1.403-.815 1.422-.205 1.298-1.244 2.951-2.87 3.539a3.135 3.135 0 0 1-2.1.005c-1.653-.584-2.66-2.242-2.86-3.544-.22-.019-.506-.324-.82-1.417-.424-1.499.027-1.722.41-1.685a3.84 3.84 0 0 1-.164-.615l-.047-.261c-.096-.603-.106-1.17.037-1.716.196-.834.647-1.503 1.153-2.023A5.444 5.444 0 0 1 6.999.728c.314-.219.66-.406 1.038-.533l.226-.067c.229-.06.468-.1.717-.111 1.025-.087 1.804.169 2.364.501z"/>
        </clipPath>
    </defs>
    <g clip-path="url(#jj7qg4t0ua)" transform="translate(-505 -1243)">
        <g clip-path="url(#htp1ej95pb)" transform="translate(901 1639)">
            <path fill="#070707" d="M0 0h118v118H0V0z"/>
            <path d="M59 118c32.585 0 59-26.415 59-59S91.585 0 59 0 0 26.415 0 59s26.415 59 59 59z" stroke="#4D4D52" stroke-width="2" fill="none" stroke-miterlimit="5"/>
        </g>
        <g clip-path="url(#c9avshqpac)" transform="translate(928.855 1664.59)">
            <path fill="#F1BB0B" d="M0 0h59.283v66.82H0V0z"/>
        </g>
        <g clip-path="url(#mmm6nkjlkd)" transform="translate(864 1602)">
            <path d="M96 192c53.02 0 96-42.98 96-96S149.02 0 96 0 0 42.98 0 96s42.98 96 96 96z" stroke="#969696" stroke-width="2" fill="none" stroke-miterlimit="5"/>
        </g>
        <g clip-path="url(#5pkp2hmqfe)" transform="translate(818 1556)">
            <path d="M142 284c78.424 0 142-63.576 142-142S220.424 0 142 0 0 63.576 0 142s63.576 142 142 142z" stroke="#969696" stroke-width="2" fill="none" stroke-miterlimit="5"/>
        </g>
        <g clip-path="url(#px9ct5w64f)" transform="translate(770 1508)">
            <path d="M190 380c104.934 0 190-85.066 190-190S294.934 0 190 0 0 85.066 0 190s85.066 190 190 190z" stroke="#969696" stroke-width="2" fill="none" stroke-miterlimit="5"/>
        </g>
        <g clip-path="url(#y5y8j49rgg)" transform="translate(723 1461)">
            <path d="M237 474c130.891 0 237-106.109 237-237C474 106.109 367.891 0 237 0 106.109 0 0 106.109 0 237c0 130.891 106.109 237 237 237z" stroke="#65666B" stroke-width="2" fill="none" stroke-miterlimit="5"/>
        </g>
        <g clip-path="url(#1aimncrh3h)" transform="translate(668 1406)">
            <path d="M292 584c161.267 0 292-130.733 292-292S453.267 0 292 0 0 130.733 0 292s130.733 292 292 292z" stroke="#65666B" stroke-width="2" fill="none" stroke-miterlimit="5"/>
        </g>
        <g clip-path="url(#xbfqo3rmsi)" transform="translate(615 1353)">
            <path d="M345 690c190.538 0 345-154.462 345-345S535.538 0 345 0 0 154.462 0 345s154.462 345 345 345z" stroke="#4D4D52" stroke-width="2" fill="none" stroke-miterlimit="5"/>
        </g>
        <g clip-path="url(#9f1bpkkozj)" transform="translate(562 1300)">
            <path d="M398 796c219.81 0 398-178.19 398-398S617.81 0 398 0 0 178.19 0 398s178.19 398 398 398z" stroke="#2A2B34" stroke-width="2" fill="none" stroke-miterlimit="5"/>
        </g>
        <g clip-path="url(#mh9bk04ibk)" transform="translate(505 1243)">
            <path d="M455 910c251.29 0 455-203.71 455-455S706.29 0 455 0 0 203.71 0 455s203.71 455 455 455z" stroke="#2A2B34" stroke-width="2" fill="none" stroke-miterlimit="5"/>
        </g>
        <g clip-path="url(#k7zxlm2dnl)" transform="translate(987 1594)">
            <path fill="#4D4D52" d="M0 0h44v44H0V0z"/>
        </g>
        <g clip-path="url(#byrpq09k5m)" transform="translate(999 1604)">
            <path fill="#A8AAB2" d="M0 0h18.56v22H0V0z"/>
        </g>
        <g clip-path="url(#k7zxlm2dnl)" transform="translate(1068 1728)">
            <path fill="#4D4D52" d="M0 0h44v44H0V0z"/>
        </g>
        <g clip-path="url(#byrpq09k5m)" transform="translate(1080 1738)">
            <path fill="#A8AAB2" d="M0 0h18.56v22H0V0z"/>
        </g>
        <g clip-path="url(#k7zxlm2dnl)" transform="translate(1009 1851)">
            <path fill="#4D4D52" d="M0 0h44v44H0V0z"/>
        </g>
        <g clip-path="url(#byrpq09k5m)" transform="translate(1021 1861)">
            <path fill="#A8AAB2" d="M0 0h18.56v22H0V0z"/>
        </g>
        <g clip-path="url(#k7zxlm2dnl)" transform="translate(857 1895)">
            <path fill="#4D4D52" d="M0 0h44v44H0V0z"/>
        </g>
        <g clip-path="url(#byrpq09k5m)" transform="translate(869 1905)">
            <path fill="#A8AAB2" d="M0 0h18.56v22H0V0z"/>
        </g>
        <g clip-path="url(#k7zxlm2dnl)" transform="translate(723 1866)">
            <path fill="#4D4D52" d="M0 0h44v44H0V0z"/>
        </g>
        <g clip-path="url(#byrpq09k5m)" transform="translate(735 1876)">
            <path fill="#A8AAB2" d="M0 0h18.56v22H0V0z"/>
        </g>
        <g clip-path="url(#k7zxlm2dnl)" transform="translate(610 1793)">
            <path fill="#4D4D52" d="M0 0h44v44H0V0z"/>
        </g>
        <g clip-path="url(#byrpq09k5m)" transform="translate(622 1803)">
            <path fill="#A8AAB2" d="M0 0h18.56v22H0V0z"/>
        </g>
        <g clip-path="url(#k7zxlm2dnl)" transform="translate(540 1660)">
            <path fill="#4D4D52" d="M0 0h44v44H0V0z"/>
        </g>
        <g clip-path="url(#byrpq09k5m)" transform="translate(552 1670)">
            <path fill="#A8AAB2" d="M0 0h18.56v22H0V0z"/>
        </g>
        <g clip-path="url(#k7zxlm2dnl)" transform="translate(529 1473)">
            <path fill="#4D4D52" d="M0 0h44v44H0V0z"/>
        </g>
        <g clip-path="url(#byrpq09k5m)" transform="translate(541 1483)">
            <path fill="#A8AAB2" d="M0 0h18.56v22H0V0z"/>
        </g>
        <g clip-path="url(#k7zxlm2dnl)" transform="translate(661 1390)">
            <path fill="#4D4D52" d="M0 0h44v44H0V0z"/>
        </g>
        <g clip-path="url(#byrpq09k5m)" transform="translate(673 1400)">
            <path fill="#A8AAB2" d="M0 0h18.56v22H0V0z"/>
        </g>
        <g>
            <g clip-path="url(#k7zxlm2dnl)" transform="translate(820 1353)">
                <path fill="#4D4D52" d="M0 0h44v44H0V0z"/>
            </g>
            <g clip-path="url(#byrpq09k5m)" transform="translate(832 1363)">
                <path fill="#A8AAB2" d="M0 0h18.56v22H0V0z"/>
            </g>
        </g>
        <g>
            <g clip-path="url(#k7zxlm2dnl)" transform="translate(1009 1390)">
                <path fill="#4D4D52" d="M0 0h44v44H0V0z"/>
            </g>
            <g clip-path="url(#byrpq09k5m)" transform="translate(1021 1400)">
                <path fill="#A8AAB2" d="M0 0h18.56v22H0V0z"/>
            </g>
        </g>
        <g>
            <g clip-path="url(#k7zxlm2dnl)" transform="translate(1134 1540)">
                <path fill="#4D4D52" d="M0 0h44v44H0V0z"/>
            </g>
            <g clip-path="url(#byrpq09k5m)" transform="translate(1146 1550)">
                <path fill="#A8AAB2" d="M0 0h18.56v22H0V0z"/>
            </g>
        </g>
        <g>
            <g clip-path="url(#k7zxlm2dnl)" transform="translate(1261 1794)">
                <path fill="#4D4D52" d="M0 0h44v44H0V0z"/>
            </g>
            <g clip-path="url(#byrpq09k5m)" transform="translate(1273 1804)">
                <path fill="#A8AAB2" d="M0 0h18.56v22H0V0z"/>
            </g>
        </g>
        <g>
            <g clip-path="url(#k7zxlm2dnl)" transform="translate(997 2063)">
                <path fill="#4D4D52" d="M0 0h44v44H0V0z"/>
            </g>
            <g clip-path="url(#byrpq09k5m)" transform="translate(1009 2073)">
                <path fill="#A8AAB2" d="M0 0h18.56v22H0V0z"/>
            </g>
        </g>
        <g>
            <g clip-path="url(#k7zxlm2dnl)" transform="translate(705 2070)">
                <path fill="#4D4D52" d="M0 0h44v44H0V0z"/>
            </g>
            <g clip-path="url(#byrpq09k5m)" transform="translate(717 2080)">
                <path fill="#A8AAB2" d="M0 0h18.56v22H0V0z"/>
            </g>
        </g>
        <g>
            <g clip-path="url(#k7zxlm2dnl)" transform="translate(1266 1990)">
                <path fill="#4D4D52" d="M0 0h44v44H0V0z"/>
            </g>
            <g clip-path="url(#byrpq09k5m)" transform="translate(1278 2000)">
                <path fill="#A8AAB2" d="M0 0h18.56v22H0V0z"/>
            </g>
        </g>
        <g>
            <g clip-path="url(#k7zxlm2dnl)" transform="translate(723 1572)">
                <path fill="#4D4D52" d="M0 0h44v44H0V0z"/>
            </g>
            <g clip-path="url(#byrpq09k5m)" transform="translate(735 1582)">
                <path fill="#A8AAB2" d="M0 0h18.56v22H0V0z"/>
            </g>
        </g>
        <g>
            <g clip-path="url(#k7zxlm2dnl)" transform="translate(1314 1550)">
                <path fill="#4D4D52" d="M0 0h44v44H0V0z"/>
            </g>
            <g clip-path="url(#byrpq09k5m)" transform="translate(1326 1560)">
                <path fill="#A8AAB2" d="M0 0h18.56v22H0V0z"/>
            </g>
        </g>
        <g>
            <g clip-path="url(#k7zxlm2dnl)" transform="translate(1261 1353)">
                <path fill="#4D4D52" d="M0 0h44v44H0V0z"/>
            </g>
            <g clip-path="url(#byrpq09k5m)" transform="translate(1273 1363)">
                <path fill="#A8AAB2" d="M0 0h18.56v22H0V0z"/>
            </g>
        </g>
    </g>
</svg>
