<?xml version="1.0" encoding="utf-8"?>
<svg width="43px" height="43px" viewBox="0 0 43 43" version="1.1" xmlns:xlink="http://www.w3.org/1999/xlink" xmlns="http://www.w3.org/2000/svg">
  <g id="sol" transform="translate(0.5 0.5)">
    <path d="M21 42C9.40202 42 0 32.598 0 21C0 9.40202 9.40202 0 21 0C32.598 0 42 9.40202 42 21C42 32.598 32.598 42 21 42Z" id="Path" fill="none" stroke="#F1BB0C" stroke-width="1" />
    <path d="M14.4243 14.2448C14.4456 14.2228 14.4749 14.2102 14.5056 14.2099L29.253 14.2099C29.2968 14.2095 29.3368 14.2352 29.3545 14.2754C29.3722 14.3156 29.3642 14.3624 29.3343 14.3945L26.1796 17.7699C26.1589 17.7921 26.1299 17.8047 26.0995 17.8048L11.3509 17.8048C11.3073 17.804 11.2681 17.7778 11.2509 17.7377C11.2336 17.6976 11.2414 17.6511 11.2709 17.6189L14.4243 14.2448ZM29.253 23.0067L14.5056 23.0067C14.4749 23.0064 14.4456 22.9939 14.4243 22.9719L11.2709 19.6042C11.2411 19.5722 11.233 19.5257 11.2504 19.4857C11.2678 19.4456 11.3072 19.4196 11.3509 19.4196L26.0995 19.4196C26.13 19.419 26.1592 19.4317 26.1796 19.4544L29.3343 22.8286C29.3601 22.8609 29.3656 22.905 29.3484 22.9426C29.3312 22.9803 29.2943 23.005 29.253 23.0067ZM14.5676 24.6499C14.5884 24.6278 14.6173 24.6152 14.6476 24.615L29.3962 24.615C29.4399 24.6151 29.4793 24.6411 29.4967 24.6811C29.5141 24.7212 29.506 24.7677 29.4763 24.7996L26.3228 28.1751C26.302 28.1971 26.2731 28.2097 26.2428 28.2099L11.4942 28.2099C11.45 28.2103 11.4098 28.1842 11.3923 28.1436C11.3749 28.103 11.3835 28.0558 11.4141 28.024L14.5676 24.6499Z" id="Combined-Shape" fill="#FFFFFF" fill-rule="evenodd" stroke="none" />
  </g>
</svg>