<?xml version="1.0" encoding="utf-8"?><svg xmlns="http://www.w3.org/2000/svg" xmlns:xlink="http://www.w3.org/1999/xlink"><symbol viewBox="0 0 12 7" id="arrow" xmlns="http://www.w3.org/2000/svg"><path d="M10.847.089a.3.3 0 0 1 .426 0l.636.636a.288.288 0 0 1 0 .42L6.396 6.658a.45.45 0 0 1-.318.132h-.156a.45.45 0 0 1-.318-.132L.091 1.145a.288.288 0 0 1 0-.42L.727.089a.3.3 0 0 1 .426 0L6 4.936 10.847.089z"/></symbol><symbol viewBox="0 0 26 19" id="arrow-2" xmlns="http://www.w3.org/2000/svg"><path d="M17.508.275a.918.918 0 0 0-1.31 0 .924.924 0 0 0 0 1.297l6.644 6.644H.917A.913.913 0 0 0 0 9.134c0 .511.406.93.917.93h21.925l-6.644 6.632a.94.94 0 0 0 0 1.31.918.918 0 0 0 1.31 0l8.217-8.216a.902.902 0 0 0 0-1.297L17.508.275z"/></symbol><symbol viewBox="0 0 788 788" id="bch" xmlns="http://www.w3.org/2000/svg"><title>12-bitcoin-cash-square-crop</title><circle class="accls-1" cx="394" cy="394" r="394"/><path class="accls-2" d="M551.124 407.914l-.187-.346-.031-.058c-.113-.348-.2-.713-.326-1.089l-.016-.03-.016-.029-.016-.029-.016-.029-.016-.029-.016-.029-.032-.058a68.435 68.435 0 0 0-22.372-33.478l-.015-.029c-.315-.24-.646-.51-.962-.747l-.435-.324-.315-.239-.135-.114-.3-.211-.135-.113-.3-.211-.135-.113-.315-.239-.165-.1-.315-.239-.165-.1-.34-.224-.165-.1-.2-.3-.18-.127-.34-.224-.179-.127-.341-.225-.179-.126-.34-.225-.18-.127-.36-.255-.179-.127-.388-.238-.18-.126-.387-.239-.18-.126-.388-.239-.179-.126-.388-.239-.209-.11-.388-.238-.208-.111-.418-.222-.208-.11-.433-.251-.208-.11-.433-.25-.209-.111-.433-.25-.224-.139-.433-.251-.225-.139-.461-.236-.224-.139-.462-.236-.312-.17-.016-.029c-.224-.139-.461-.236-.686-.376a95.508 95.508 0 0 0-30.588-9.665 85.552 85.552 0 0 0 8.195-10.293l.393-.584.029-.016.182-.284.238-.388.127-.18.238-.387.126-.18.239-.388.126-.179.239-.388.126-.18.238-.388.126-.179.209-.374.127-.179.208-.374.1-.165.208-.373.1-.165.208-.373.1-.165.18-.358.1-.165.179-.357.1-.165.179-.357.1-.165.195-.329.1-.165.2-.328.1-.165.171-.312.1-.165.17-.313.069-.148.171-.313.068-.149.171-.312.068-.149.171-.312.069-.149.137-.3.069-.149.138-.3.069-.149.138-.3.069-.148.151-.341.207-.445c.151-.341.273-.668.425-1.01l.029-.016a60.785 60.785 0 0 0 3.088-35.684l-.016-.029-.032-.058-.016-.029-.015-.029-.016-.029-.016-.029-.017-.029-.015-.028a11.288 11.288 0 0 0-.235-.992v-.073l-.016-.029-.016-.029-.016-.028.016.028-.14-.259c-.1-.466-.2-.936-.35-1.411-.1-.466-.248-.946-.379-1.4l-.171-.317-.031-.058c-.1-.319-.195-.64-.293-.959l-.017-.029-.016-.029-.016-.029-.015-.029-.016-.028-.017-.029-.015-.029a60.8 60.8 0 0 0-19.9-29.784l-.017-.03c-.27-.227-.57-.438-.841-.663l-.374-.283-.3-.22-.135-.113-.256-.2-.135-.114-.255-.2-.135-.113-.284-.182-.136-.113-.3-.211-.135-.113-.3-.211-.136-.113-.3-.211-.165-.1-.3-.211-.165-.1-.3-.211-.165-.1-.328-.195-.165-.1-.328-.195-.165-.1-.329-.195-.165-.1-.328-.2-.165-.1-.34-.225-.165-.1-.345-.224-.165-.1-.373-.209-.165-.1-.373-.209-.18-.127-.373-.208-.179-.127-.373-.208-.18-.127-.387-.238-.209-.111-.388-.238-.208-.11-.418-.223-.208-.11-.418-.222-.3-.138-.016-.029-.626-.332c-18.294-9.508-41.536-12.371-64.92-6.372l-6.083 1.562-15.415-59.862-35.652 9.14 15.3 59.681-28.521 7.316-15.348-59.486L280.027 210l15.335 59.676-73.529 18.924 9.783 38.025 29.627-7.609a18.335 18.335 0 0 1 22.332 13.178l.008.034 41.128 160.01a12.249 12.249 0 0 1-8.8 14.9l-25.96 6.678 1.525 45.223 73.435-18.874 15.537 59.568 35.636-9.169-15.35-59.706 28.521-7.316 15.35 59.7 35.636-9.169-15.4-59.938a6704.9 6704.9 0 0 1 14.827-3.85c26.353-6.779 47.663-22.232 60.558-41.494l.436-.643.029-.016.211-.3.28-.448.139-.225.28-.448.14-.225.25-.433.139-.224.25-.433.111-.209.25-.433.111-.208.25-.433.11-.209.222-.417.111-.209.222-.417.11-.209.239-.388.11-.208.238-.388.111-.208.208-.374.111-.208.208-.373.111-.208.208-.373.085-.193.209-.373.085-.193.179-.357.1-.165.18-.357.1-.165.179-.358.1-.165.179-.357.1-.165.18-.357.1-.165.18-.358.1-.165.151-.34.1-.165.151-.34.069-.149.165-.386.221-.491c.165-.386.344-.744.479-1.114l.014-.045a68.5 68.5 0 0 0 3.482-40.138l-.016-.029-.016-.029-.016-.029-.016-.029-.016-.029-.016-.029-.016-.029-.016-.029-.255-1.092v-.073l-.015-.029-.016-.029-.017-.029-.016-.029-.015-.029-.016-.029-.016-.029-.016-.029-.016-.028-.016-.029-.016-.029-.015-.029-.016-.029-.063-.115c-.132-.523-.237-1.062-.4-1.572-.025-.318-.101-.874-.133-1.489zM341.641 300.876c6.083-1.561 31.233-7.878 39.526-10.037 13.185-3.375 26.172-2.065 36.323 2.82l.341.151.148.069.209.11.1.056.208.11.1.056.208.11.1.056.209.11.1.055.209.111.1.055.209.111.1.055.208.111.1.055.208.111.1.055.208.111.1.055.18.127.1.055.179.127.1.055.179.127.1.055.165.1.1.055.165.1.1.055.165.1.1.055.165.1.1.055.165.1.076.072.165.1.06.041.165.1.059.042.165.1.06.041.165.1.059.042.136.113.059.042.165.1.225.14c.165.1.315.241.48.34a30.749 30.749 0 0 1 10.9 15.612l.046.085c.048.16.113.348.161.51l.016.03.094.17c.066.262.146.48.214.741a4.436 4.436 0 0 1 .142.817l.093.17.016.029a2.557 2.557 0 0 0 .133.523l.046.085a30.857 30.857 0 0 1-2.029 18.931l-.234.535-.124.255-.1.165-.027.089-.069.149-.027.089-.1.165-.027.086-.1.165-.027.089-.1.165-.027.085-.1.165-.027.089-.1.165-.028.09-.1.165-.056.1-.1.165-.056.1-.1.165-.055.1-.1.165-.055.1-.127.179-.055.1-.127.18-.055.1-.127.179-.055.1-.127.179-.055.1-.127.18-.055.1-.127.18-.055.1-.127.179-.055.1-.127.179-.055.1-.156.195-.055.1-.156.195-.055.1-.156.195-.055.1-.156.195-.113.135-.211.3c-6.557 9.188-17.3 16.609-30.485 19.983-8.309 2.127-33.393 8.706-39.471 10.268zM481 423.55l.094.17.016.029c.035.2.085.364.12.568l.016.03.016.029.017.029.016.029a31.694 31.694 0 0 1-2.867 20.675l-.319.581-.153.269-.111.208-.055.1-.1.165-.055.1-.1.165-.055.1-.127.179-.055.1-.127.179-.055.1-.127.18-.055.1-.127.179-.055.1-.127.179-.055.1-.127.18-.055.1-.127.18-.055.1-.127.179-.055.1-.127.179-.055.1-.156.195-.055.1-.156.195-.055.1-.14.225-.055.1-.141.224-.055.1-.139.225-.086.12-.139.224-.085.12-.17.239-.085.12-.17.239-.086.12-.17.239-.085.12-.17.239-.085.12-.17.239-.142.152-.269.33c-7.964 10.169-20.807 18.533-36.409 22.537-9.836 2.54-39.562 10.314-46.794 12.16l-20.237-78.739c7.217-1.872 37.025-9.357 46.861-11.9 15.6-4 30.914-2.869 42.754 2.186l.386.165.193.085.283.108.132.039.256.124.132.039.256.125.132.039.255.124.1.055.255.124.1.056.255.124.1.055.255.124.1.056.209.11.1.056.209.11.1.056.208.11.1.055.208.111.1.055.208.111.1.055.209.111.1.055.209.111.1.055.208.111.1.055.208.11.1.056.179.126.1.056.18.127.1.055.18.127.1.055.179.127.1.055.18.127.1.055.165.1.1.055.18.127.239.17c.179.127.388.238.569.364a31.789 31.789 0 0 1 12.547 16.799l.062.115c.064.188.113.349.177.537l.016.028.093.171c.067.262.133.523.216.815.147.063.17.385.125.782z"/></symbol><symbol id="bch-logo" viewBox="0 0 55.2 70.3" xmlns="http://www.w3.org/2000/svg"><style>.adst0{fill:#363635}</style><title>Artboard 51</title><path class="adst0" d="M54.9 30.5c1.7-7.3-3.6-11.7-11.1-14.9L47 5.8l-5.9-2-3.1 9.6c-1.6-.5-3.2-1-4.7-1.6l3.2-9.5-6-2-3.2 9.8c-1.3-.4-2.6-.8-3.8-1.3l-8.2-2.7-2.1 6.3s4.4 1.4 4.3 1.4c2.4.8 2.7 2.5 2.6 3.7l-3.7 11.1c.2.1.4.1.6.2l-.7-.2L11 44.4c-.5 1.1-1.8 1.6-2.9 1.2.1.1-4.3-1.4-4.3-1.4L.2 50.9 8 53.4l4.3 1.4L9 64.7l6 2 3.2-9.8c1.6.5 3.2 1.1 4.7 1.6l-3.2 9.7 6 2 3.3-9.9c10.2 2.9 18 2.7 22-6.4 3.2-7.4.8-11.9-4.5-15.2 3.9-.5 7.1-2.9 8.4-8.2zM39.6 48.9c-2.4 7.4-14.8 2.3-18.9 1L25 36.7c4.1 1.4 17.1 4.5 14.6 12.2zm3.3-19.4c-2.2 6.7-12.5 2.4-15.9 1.3l4-11.9c3.4 1.1 14.3 3.6 11.9 10.6z"/></symbol><symbol viewBox="0 0 2500.01 2500" id="bnb-icon" xmlns="http://www.w3.org/2000/svg"><defs><style>.aecls-1{fill:#f3ba2f}</style></defs><title>bi</title><g id="aeLayer_2" data-name="Layer 2"><g id="aeLayer_1-2" data-name="Layer 1"><path class="aecls-1" d="M764.48 1050.52L1250 565l485.75 485.73 282.5-282.5L1250 0 482 768l282.49 282.5M0 1250l282.51-282.55L565 1249.94l-282.51 282.51zm764.48 199.51L1250 1935l485.74-485.72 282.65 282.35-.14.15L1250 2500l-768-768-.4-.4 282.91-282.12M1935 1250.12l282.51-282.51L2500 1250.1l-282.5 282.51z"/><path class="aecls-1" d="M1536.52 1249.85h.12L1250 963.19 1038.13 1175l-24.34 24.35-50.2 50.21-.4.39.4.41L1250 1536.81l286.66-286.66.14-.16-.26-.14"/></g></g></symbol><symbol viewBox="0 0 2500.01 2500" id="bnb-logo" xmlns="http://www.w3.org/2000/svg"><defs><style>.afcls-1{fill:#f3ba2f}</style></defs><title>bi</title><g id="afLayer_2" data-name="Layer 2"><g id="afLayer_1-2" data-name="Layer 1"><path class="afcls-1" d="M764.48 1050.52L1250 565l485.75 485.73 282.5-282.5L1250 0 482 768l282.49 282.5M0 1250l282.51-282.55L565 1249.94l-282.51 282.51zm764.48 199.51L1250 1935l485.74-485.72 282.65 282.35-.14.15L1250 2500l-768-768-.4-.4 282.91-282.12M1935 1250.12l282.51-282.51L2500 1250.1l-282.5 282.51z"/><path class="afcls-1" d="M1536.52 1249.85h.12L1250 963.19 1038.13 1175l-24.34 24.35-50.2 50.21-.4.39.4.41L1250 1536.81l286.66-286.66.14-.16-.26-.14"/></g></g></symbol><symbol viewBox="0 0 15.071533 19.94983" id="btc-icon" xmlns="http://www.w3.org/2000/svg"><path d="M15.032 8.02c.314-2.096-1.282-3.223-3.465-3.975l.708-2.84-1.728-.43-.69 2.765c-.454-.114-.92-.22-1.384-.326L9.167.43 7.439 0l-.708 2.839c-.376-.086-.746-.17-1.104-.26l.002-.009-2.384-.595-.46 1.846s1.283.294 1.256.312c.7.175.826.638.805 1.006L4.04 8.374c.048.012.11.03.18.057l-.183-.045-1.13 4.532c-.086.212-.303.531-.793.41.018.025-1.256-.313-1.256-.313L0 14.993l2.25.561c.418.105.828.215 1.232.318l-.716 2.872 1.727.43.708-2.84c.472.127.93.245 1.378.357l-.706 2.828 1.728.43.716-2.866c2.947.558 5.163.333 6.096-2.333.752-2.146-.037-3.385-1.588-4.192 1.13-.26 1.98-1.003 2.207-2.538zm-3.95 5.538c-.533 2.147-4.147.986-5.32.695l.95-3.805c1.172.293 4.93.872 4.37 3.11zm.535-5.569c-.487 1.953-3.495.96-4.47.717l.86-3.45c.976.243 4.118.696 3.61 2.733z"/></symbol><symbol id="btc-logo" viewBox="0 0 49.14 68.03" xmlns="http://www.w3.org/2000/svg"><defs><style>.ahcls-1{fill:#363635}</style></defs><path class="ahcls-1" d="M45.49 21c-.7-7.42-7.1-9.93-15.19-10.66V.04h-6.25v10h-5V0h-6.27v10.3H.14L.1 17s4.63-.08 4.55 0c2.54 0 3.37 1.48 3.6 2.75v11.74a5.92 5.92 0 0 1 .67 0h-.69L8.18 48a2.21 2.21 0 0 1-2.36 2c.08.07-4.56 0-4.56 0L0 57.5h12.64v10.42h6.27v-10.3c1.72 0 3.38.06 5 .06v10.26h6.27v-10.4C40.72 57.06 48.1 54.42 49 44.53c.76-8-3-11.54-9-13 3.64-1.85 5.92-5.1 5.4-10.54zm-8.83 22.25c0 7.79-13.34 6.87-17.59 6.86v-13.8c4.25 0 17.58-1.17 17.56 6.94zm-2.87-19.47c0 7.08-11.13 6.22-14.67 6.22V17.48c3.57.01 14.69-1.09 14.67 6.3z"/></symbol><symbol viewBox="0 0 19.94043 20" id="busd-icon" xmlns="http://www.w3.org/2000/svg"><path d="M17.47 7.5l2.47 2.53L9.97 20 7.5 17.53 17.47 7.5zm-3.75-3.75l2.47 2.53-9.97 9.97-2.47-2.47 9.97-10.03zM2.47 7.5l2.47 2.53-2.47 2.47L0 10.03 2.47 7.5zM9.97 0l2.47 2.53-6.22 6.22-2.47-2.47L9.97 0z"/></symbol><symbol viewBox="0 0 18 18" id="cancel" xmlns="http://www.w3.org/2000/svg"><path d="M14.245 0H3.755C1.685 0 0 1.692 0 3.772v10.456C0 16.308 1.684 18 3.755 18h10.49C16.315 18 18 16.308 18 14.228V3.772C18 1.692 16.316 0 14.245 0zm2.38 14.228a2.388 2.388 0 0 1-2.38 2.39H3.755a2.388 2.388 0 0 1-2.38-2.39V3.772a2.388 2.388 0 0 1 2.38-2.39h10.49a2.388 2.388 0 0 1 2.38 2.39v10.456z"/><path d="M12.234 5.588a.569.569 0 0 0-.805-.003L8.9 8.103 6.373 5.567a.569.569 0 0 0-.806 0 .572.572 0 0 0 0 .808l2.526 2.533-2.506 2.496a.572.572 0 0 0 .402.977c.145 0 .29-.055.401-.166L8.9 9.716l2.51 2.517a.567.567 0 0 0 .805 0 .572.572 0 0 0 0-.808L9.707 8.91l2.525-2.515a.572.572 0 0 0 .002-.808z"/></symbol><symbol viewBox="0 0 417.065 417.065" id="check" xmlns="http://www.w3.org/2000/svg"><path d="M401.56 47.087c-17.452-14.176-42.561-12.128-56.095 4.536L167.042 271.598 73.913 150.58c-13.892-18.037-39.781-21.411-57.819-7.535-18.054 13.884-21.427 39.781-7.535 57.843L133.56 363.321c13.892 18.037 39.789 21.419 57.835 7.535 5.145-3.959 8.95-8.958 11.648-14.42l205.645-253.514c13.527-16.688 10.332-41.675-7.128-55.835z"/></symbol><symbol viewBox="0 0 9.291016 9.290314" id="close" xmlns="http://www.w3.org/2000/svg"><path d="M9.29.939L8.351 0 4.645 3.706.94 0 0 .939l3.706 3.706L0 8.351l.939.94 3.706-3.707L8.351 9.29l.94-.939-3.707-3.706L9.29.94z" fill-rule="evenodd"/></symbol><symbol viewBox="0 0 19 22" id="copy" xmlns="http://www.w3.org/2000/svg"><path d="M14 0H2a2 2 0 0 0-2 2v14h2V2h12V0zm3 4H6a2 2 0 0 0-2 2v14a2 2 0 0 0 2 2h11a2 2 0 0 0 2-2V6a2 2 0 0 0-2-2zm0 16H6V6h11v14z"/></symbol><symbol viewBox="0 0 11.773926 10" id="dai-icon" xmlns="http://www.w3.org/2000/svg"><path d="M5.452 10H1.974a.657.657 0 0 1-.653-.652V.652c0-.356.296-.652.653-.652h3.478c2.756 0 5 2.243 5 5s-2.244 5-5 5zM2.626 8.696h2.826A3.704 3.704 0 0 0 9.147 5a3.704 3.704 0 0 0-3.695-3.696H2.626v7.392z"/><path d="M11.122 3.913H.652A.657.657 0 0 1 0 3.261c0-.357.296-.652.652-.652h10.47c.356 0 .652.295.652.652a.657.657 0 0 1-.652.652zm0 3.478H.652A.657.657 0 0 1 0 6.74c0-.356.296-.652.652-.652h10.47c.356 0 .652.296.652.652a.657.657 0 0 1-.652.652z" fill-rule="evenodd"/></symbol><symbol viewBox="0 0 256 256" id="dash" xmlns="http://www.w3.org/2000/svg"><path d="M128 256c70.692 0 128-57.308 128-128C256 57.308 198.692 0 128 0 57.308 0 0 57.308 0 128c0 70.692 57.308 128 128 128zM71.519 103.269c.12-.432.217-.86.355-1.273 2.469-7.398 4.942-14.794 7.416-22.19.43-1.288.433-1.291 1.816-1.291l73.246-.001c13.361 0 26.722.011 40.083-.007 3.812-.006 7.342.988 10.646 2.822 1.776.985 3.177 2.383 4.25 4.121 1.79 2.898 2.648 6.058 3.033 9.427.388 3.411-.23 6.586-1.363 9.786-1.548 4.37-2.85 8.827-4.257 13.247-3.595 11.294-7.17 22.595-10.8 33.878-.76 2.36-2.012 4.515-3.188 6.695-2.382 4.414-5.868 7.847-9.642 11.047-2.749 2.331-5.876 4.063-8.97 5.866-2.835 1.652-5.938 2.332-9.125 2.719-1.566.19-3.158.222-4.738.223-37.19.011-74.382.01-111.573.007-.541 0-1.082-.035-1.775-.058.098-.475.134-.838.247-1.175a16777.6 16777.6 0 0 1 7.59-22.684c.345-1.031.359-1.031 1.576-1.031 14.98-.002 29.96-.001 44.94-.001h56.509c1.132-.007 1.138-.005 1.5-1.112 2.603-7.97 5.2-15.941 7.805-23.91 2.54-7.774 5.086-15.546 7.625-23.32.136-.415.235-.843.388-1.399-.54-.031-.97-.079-1.402-.079-7.06-.004-14.12-.003-21.179-.003-26.378 0-52.756 0-79.134-.005-.604 0-1.239.115-1.88-.3m-28.282 36.294c.15-.537.24-.96.386-1.363 2.311-6.417 4.63-12.831 6.947-19.246.21-.58.42-1.16.626-1.742.144-.404.415-.608.856-.587.274.013.549-.002.824-.002 19.402 0 38.804 0 58.207.003.47 0 .94.039 1.558.066-.126.505-.196.897-.32 1.271-2.265 6.8-4.536 13.596-6.808 20.393-.436 1.303-.442 1.305-1.803 1.305H47.46c-1.03 0-2.06.007-3.09-.004-.33-.004-.661-.053-1.133-.094" fill-rule="evenodd"/></symbol><symbol id="dash-logo" viewBox="0 0 72.2 42.52" xmlns="http://www.w3.org/2000/svg"><defs><style>.apcls-1{fill:#363635}</style></defs><path class="apcls-1" d="M72.1 6.74a7.76 7.76 0 0 0-1.1-3.5A5 5 0 0 0 68.36.83 7.93 7.93 0 0 0 64.59 0h-49l-3.47 10.52h44.36l-7 21.48H5.13L1.62 42.52h49.19a13.34 13.34 0 0 0 4.29-.83A28.68 28.68 0 0 0 59.39 39a20.45 20.45 0 0 0 3.51-3.5 22.8 22.8 0 0 0 2.16-4.05L71.56 11a7.57 7.57 0 0 0 .54-4.28z"/><path class="apcls-1" d="M29.61 16.39H3.51L0 26.1h26.37z"/></symbol><symbol viewBox="0 0 2000 2000" id="doge" xmlns="http://www.w3.org/2000/svg"><path d="M1024 659H881.12v281.69h224.79v117.94H881.12v281.67H1031c38.51 0 316.16 4.35 315.73-327.72S1077.44 659 1024 659z"/><path d="M1000 0C447.71 0 0 447.71 0 1000s447.71 1000 1000 1000 1000-447.71 1000-1000S1552.29 0 1000 0zm39.29 1540.1H677.14v-481.46H549.48V940.7h127.65V459.21h310.82c73.53 0 560.56-15.27 560.56 549.48 0 574.09-509.21 531.41-509.21 531.41z"/></symbol><symbol id="doge-logo" viewBox="0 0 44.51 48.19" xmlns="http://www.w3.org/2000/svg"><defs><style>.arcls-1{fill:#363635}</style></defs><path class="arcls-1" d="M21.82 48.16s22.69 1.9 22.69-23.68C44.51-.68 22.81 0 19.53 0H5.69v21.45H0v5.26h5.69v21.45zm-7-21.45h10v-5.26h-10V8.9h6.36c2.38 0 14.36 1 14.38 15.76s-12.35 14.6-14.07 14.6h-6.71z"/></symbol><symbol viewBox="0 0 13.75293 22" id="eth-icon" xmlns="http://www.w3.org/2000/svg"><path d="M13.747 11.203L6.875 0 0 11.204l6.874 3.991 6.873-3.992zm.006 1.282l-6.878 3.989L0 12.484 6.874 22l6.879-9.515z"/></symbol><symbol id="eth-logo" viewBox="0 0 42.32 68.03" xmlns="http://www.w3.org/2000/svg"><defs><style>.atcls-1{fill:#363635}</style></defs><path class="atcls-1" d="M21.65 47.38l20.67-12.22-20.67-9.4v21.62zm0-22.69l20.49 9.32L21.65 0v24.69zM.67 39.85l20 28.18V51.67l-20-11.82zm40.99 0L21.65 51.67v16.36l20.01-28.18zm-20.99 7.53V25.76L0 35.16l20.67 12.22zm0-47.38L.18 34.01l20.49-9.32V0z"/></symbol><symbol viewBox="0 0 9 17.681152" id="fb" xmlns="http://www.w3.org/2000/svg"><path d="M9 6.315H5.762V4.737s-.181-1.5.868-1.5h2.133V0H5.132s-3.04-.013-3.04 3.039c0 .656-.002 1.85-.007 3.276H0v2.606h2.08l-.027 8.76h3.71v-8.76H8.21L9 6.315z" fill-rule="evenodd"/></symbol><symbol viewBox="0 0 16 16" id="in" xmlns="http://www.w3.org/2000/svg"><path d="M0 1.92a1.92 1.92 0 0 1 3.84 0c0 1.06-.86 1.94-1.92 1.94S0 2.98 0 1.92zm12.02 3.14c3.36 0 3.98 2.2 3.98 5.08v5.84h-3.32v-5.2c0-1.24-.02-2.82-1.72-2.82-1.72 0-1.98 1.34-1.98 2.74V16H5.66V5.32h3.18v1.46h.04c.44-.84 1.52-1.72 3.14-1.72zM.26 16V5.32h3.32V16H.26z" fill-rule="evenodd"/></symbol><symbol viewBox="0 0 18 18" id="inst" xmlns="http://www.w3.org/2000/svg"><path d="M13.5 0h-9A4.513 4.513 0 0 0 0 4.5v9C0 15.975 2.025 18 4.5 18h9c2.475 0 4.5-2.025 4.5-4.5v-9C18 2.024 15.975 0 13.5 0zM9 12.75a3.75 3.75 0 1 1 0-7.5 3.75 3.75 0 0 1 0 7.5zm4.875-7.5a1.125 1.125 0 1 1 0-2.25 1.125 1.125 0 0 1 0 2.25z"/></symbol><symbol viewBox="0 0 24 24" id="link-icon" xmlns="http://www.w3.org/2000/svg"><path d="M12 0L9.798 1.266l-6 3.468L1.596 6v12l2.202 1.266 6.055 3.468L12.055 24l2.202-1.266 5.945-3.468L22.404 18V6l-2.202-1.266-6-3.468zM6 15.468V8.532l6-3.468 6 3.468v6.936l-6 3.468z"/></symbol><symbol viewBox="0 0 22 24" id="logout" xmlns="http://www.w3.org/2000/svg"><path d="M16.128 13.938a.75.75 0 0 0-.75.75v2.927c0 .565-.46 1.025-1.025 1.025H10.42V6.925c0-.926-.46-1.723-1.263-2.187L3.548 1.5h10.805c.565 0 1.025.46 1.025 1.025v3.34a.75.75 0 0 0 1.5 0v-3.34A2.528 2.528 0 0 0 14.353 0H2.525A2.528 2.528 0 0 0 0 2.525v15.84c0 .927.46 1.724 1.263 2.187l5.37 3.1c.401.232.832.348 1.262.348.431 0 .862-.116 1.263-.347a2.468 2.468 0 0 0 1.262-2.187V20.14h3.933a2.528 2.528 0 0 0 2.525-2.525v-2.927a.75.75 0 0 0-.75-.75zm-7.207 7.528a.99.99 0 0 1-.513.888.99.99 0 0 1-1.025 0l-5.37-3.1a.99.99 0 0 1-.513-.889V2.525c0-.15.033-.294.091-.423l6.817 3.935a.99.99 0 0 1 .513.888v14.54zM21.205 10.6l-2.437 2.437a.748.748 0 0 1-1.06 0 .75.75 0 0 1 0-1.06l1.156-1.157h-6.89a.75.75 0 0 1 0-1.5h6.89l-1.157-1.157a.75.75 0 1 1 1.06-1.06l2.438 2.437a.75.75 0 0 1 0 1.06z"/></symbol><symbol viewBox="0 0 14 16" id="ltc-icon" xmlns="http://www.w3.org/2000/svg"><path d="M1.427 11.214L.252 16h12.875L14 12.429H6.278l.848-3.483 1.427-.571.68-2.75-1.41.571L9.342 0H4.213L2.132 8.429l-1.444.58L0 11.768l1.427-.554z" fill-rule="evenodd"/></symbol><symbol id="ltc-logo" viewBox="0 0 46.48 51.02" xmlns="http://www.w3.org/2000/svg"><defs><style>.bacls-1{fill:#363635}</style></defs><path class="bacls-1" d="M20.26 41l3.31-12.48 7.85-2.86 1.95-7.34-.07-.18L25.58 21l5.56-21H15.36L8.08 27.35 2 29.57l-2 7.56 6.07-2.22L1.78 51h42l2.7-10z"/></symbol><symbol viewBox="0 0 18 14.400024" id="mail" xmlns="http://www.w3.org/2000/svg"><path d="M16.2 0H1.8A1.8 1.8 0 0 0 0 1.8v10.8a1.8 1.8 0 0 0 1.8 1.8h14.4a1.8 1.8 0 0 0 1.8-1.8V1.8A1.8 1.8 0 0 0 16.2 0zm0 6.3l-5.715 4.005a2.592 2.592 0 0 1-2.97 0L1.8 6.3V4.41l6.615 4.635c.352.244.818.244 1.17 0L16.2 4.41V6.3z"/></symbol><symbol viewBox="0 0 512 512" id="monero" xmlns="http://www.w3.org/2000/svg"><circle cx="256" cy="256" r="256"/><path d="M364.2 393.163h107.979c-45.411 71.439-125.262 118.836-216.178 118.836S85.235 464.603 39.824 393.163h107.969V257.328l108.209 108.146L364.2 257.328v135.835z"/><path d="M512 256.001c0 28.599-4.692 56.1-13.343 81.784H421.21V122.537L256.002 286.062 90.794 122.537v215.248H13.346C4.694 312.102.003 284.6.003 256.001.003 114.617 114.617.003 256.001.003S512 114.616 512 256.001z"/></symbol><symbol id="monero-logo" viewBox="0 0 90.97 45.35" xmlns="http://www.w3.org/2000/svg"><defs><style>.bdcls-1{fill:#363635}</style></defs><path class="bdcls-1" d="M90.97 45.35v-8.84H73.65V0l-28.2 28.21L17.24 0v36.51H0v8.84h26.65V22.38l18.8 18.8 18.79-18.8v22.97h26.73z"/></symbol><symbol viewBox="0 0 75 75" id="payeer" xmlns="http://www.w3.org/2000/svg"><circle class="best0" cx="37.5" cy="37.5" r="37.5"/><path class="best1" d="M24.4 18.3c3.1-.5 7.5-.9 13.6-.9 6.3 0 10.6 1.2 13.6 3.5 2.8 2.3 4.7 5.9 4.7 10.3s-1.4 8-4.2 10.6c-3.5 3.3-8.5 4.7-14.5 4.7-1.4 0-2.4 0-3.5-.2v15.9h-9.9v-44l.2.1zm10 20.2c.9.2 1.9.3 3.3.3 5.4 0 8.7-2.8 8.7-7.3 0-4.2-2.8-6.6-7.8-6.6-2.1 0-3.5.2-4.2.3v13.3z"/></symbol><symbol id="payeer-logo" viewBox="0 0 75 75" xmlns="http://www.w3.org/2000/svg"><style>.st0{fill:#3499dc}.bfst1{fill:#fff}</style><path class="bfst1" d="M24.4 18.3c3.1-.5 7.5-.9 13.6-.9 6.3 0 10.6 1.2 13.6 3.5 2.8 2.3 4.7 5.9 4.7 10.3s-1.4 8-4.2 10.6c-3.5 3.3-8.5 4.7-14.5 4.7-1.4 0-2.4 0-3.5-.2v15.9h-9.9v-44l.2.1zm10 20.2c.9.2 1.9.3 3.3.3 5.4 0 8.7-2.8 8.7-7.3 0-4.2-2.8-6.6-7.8-6.6-2.1 0-3.5.2-4.2.3v13.3z"/></symbol><symbol viewBox="0 0 46 46" id="pm" xmlns="http://www.w3.org/2000/svg"><path d="M23 0C10.324 0 0 10.324 0 23s10.324 23 23 23 23-10.324 23-23S35.676 0 23 0zm-8.791 30.871H9.098c-.307 0-.41-.102-.41-.409 0-.306 0-.51.41-.51 1.329 0 1.43-.205 1.43-1.534v-3.271c0-.307.103-.41.41-.307h1.329c.306 0 .409.102.409.409v3.68c0 .92.204 1.022 1.022 1.124h.409c.409 0 .51.103.51.511 0 .205 0 .307-.408.307zm.715-6.849c-2.453.205-4.906.205-7.36-.409-.102 0-.306-.102-.408-.102-.205-.102-.307-.102-.512-.204.41.102.512.102 1.023.102.92.102 1.84.204 2.862.204 1.431.103 2.862 0 4.191-.306 2.147-.511 3.271-2.25 2.964-4.396 0-.102 0-.204-.102-.409v-.511c0-.102 0-.102-.102-.204v-.103l-.307-.613c-1.022-1.533-2.657-1.635-4.293-1.533-.307 0-.307.204-.307.409v6.337c0 .41-.102.512-.51.512h-1.227c-.205 0-.307-.103-.307-.307v-6.235c0-.41-.205-.614-.613-.614h-.818c-.307 0-.41 0-.41-.409 0-.307.205-.307.41-.307h6.542c1.431 0 2.658.614 3.578 1.84 0 0 .102.205.204.307 0 .102.102.102.102.205 0 .102.103.102.103.204l.306.92c0 .102.103.613.103.716v.51c0 .103 0 .512-.103.614-.306 1.636-1.329 2.658-2.862 3.271-.715.409-1.431.511-2.147.511zm23.614 6.85H33.12c-.307 0-.307-.205-.307-.41 0-.204-.102-.51.307-.51h.818c.613 0 .818-.205.818-.92.102-1.943.102-3.885.102-5.828v-4.497h-.102c-.41.715-.716 1.43-1.125 2.146 0 0 0 .103-.102.103 0 0 0 .102-.102.102-.103.102-.103.306-.205.409 0 0 0 .102-.102.102 0 .102 0 .102-.102.204 0 0 0 .103-.102.103-.614 1.533-1.432 2.964-2.147 4.395-.716 1.329-1.329 2.76-2.045 4.089-.102.102-.102.409-.306.409-.205 0-.205-.205-.307-.409C26.17 26.68 24.33 23 22.49 19.32c0-.102-.102-.204-.102-.307-.103-.204-.307-.51-.41-.817-.101.204-.101.408-.101.51v10.12c.204.818.306.92 1.124.92h.613c.41-.102.614.103.511.512 0 .306-.102.409-.408.409h-5.214c-.409 0-.306-.307-.409-.511 0-.307.103-.41.41-.41h.817c.818 0 1.124-.306 1.227-1.124.102-.715.102-1.43.204-2.146.102-1.023.102-2.147.102-3.17v-6.95c0-.512-.204-.614-.613-.716h-.409c-.409 0-.613-.204-.409-.613 0-.103.102-.103.205-.103h2.964c.102 0 .205.103.307.205.51 1.227 1.226 2.351 1.635 3.578 1.534 2.862 2.76 5.826 4.294 8.79 1.124-2.248 2.146-4.497 3.27-6.644 0-.102.103-.102.103-.204 0 0 0-.102.102-.102.818-1.738 1.636-3.476 2.454-5.316.102-.102.204-.204.306-.204h3.271c.307 0 .307.204.307.409 0 .204 0 .408-.307.408h-.409c-.817 0-.92.205-.92.92 0 2.556 0 5.01-.102 7.565v.92c0 .92.102 1.942 0 2.862 0 .409 0 .818.102 1.227 0 .204.307.51.614.51h.92c.306 0 .306.205.306.41 0 .306.103.613-.306.613z"/></symbol><symbol viewBox="0 0 17 8" id="pm-logo" xmlns="http://www.w3.org/2000/svg"><path d="M16 7.13h-.36a.6.6 0 0 1-.36-.14.51.51 0 0 1-.15-.28v-.49c0-.54 0-1.11-.06-1.69-.06-.58 0-1.72 0-1.72V1.69a2.57 2.57 0 0 1 .05-.61.53.53 0 0 1 .21-.33 1.58 1.58 0 0 1 .53-.14h.23a.14.14 0 0 0 0-.15.17.17 0 0 0-.09-.11h-1.85a2.997 2.997 0 0 1-.24.89l-.61 1.28-1.06 2.12-.42.87a8.427 8.427 0 0 1-.45.84c-.14-.26-.26-.5-.39-.76l-.38-.81-1.32-2.6c-.17-.36-.33-.72-.45-1a2.47 2.47 0 0 1-.14-.83H6.94a.15.15 0 0 0-.07.12.14.14 0 0 0 0 .14h.17c.16.034.317.077.47.13a.44.44 0 0 1 .2.29 1.63 1.63 0 0 1 0 .52v1.07c0 .41 0 .85-.07 1.29-.07.44 0 .65-.06.91s0 .51-.06.73c-.06.22 0 .46 0 .69a2.17 2.17 0 0 1-.11.54.36.36 0 0 1-.2.23 1.11 1.11 0 0 1-.35.1h-.23s-.06.07 0 .14a.18.18 0 0 0 .06.13h1.65l.61.05A.16.16 0 0 0 9 7.26a.17.17 0 0 0 0-.15h-.43a.58.58 0 0 1-.32-.1.45.45 0 0 1-.14-.31 2 2 0 0 1 0-.64V3.4c0-.35.05-.66.06-1 .01-.34 0-.67.05-1l.35.92.36.8 1 2.15c.09.18.19.4.31.67s.27.56.39.83c.107.234.197.474.27.72h.05a.11.11 0 0 0 .08 0c.08-.18.17-.4.3-.67.13-.27.26-.58.41-.89.15-.31.33-.65.51-1l1-1.94c.07-.16.15-.34.25-.54l.3-.57c.08-.18.17.5.17.5H14v3.8a.83.83 0 0 1 .1.56.33.33 0 0 1-.15.27c-.06.07-.18.1-.38.12h-.33v.15a.19.19 0 0 0 .06.13c.23 0 .47 0 .69-.06h1.3c.22 0 .45.05.67.06a.13.13 0 0 0 .06-.13.16.16 0 0 0-.02-.15zM5.4.44a3.33 3.33 0 0 0-.92-.35A7.07 7.07 0 0 0 3.28 0H2.07c-.36 0-.68 0-1 .06A.16.16 0 0 0 1 .21a.13.13 0 0 0 .1.14h.38a.54.54 0 0 1 .36.13.44.44 0 0 1 .16.39c.014.237.014.474 0 .71v2.24c.334.02.667.02 1 0V.69A.53.53 0 0 1 3 .4a.22.22 0 0 1 .15-.11h.45A1.9 1.9 0 0 1 5 .77c.319.364.484.837.46 1.32a1.92 1.92 0 0 1-.38 1.26 1.81 1.81 0 0 1-1 .62 8.34 8.34 0 0 1-1.93.13C1.47 4.08.76 4.04 0 3.97c.591.137 1.189.244 1.79.32.7.096 1.41.096 2.11 0 .318-.049.63-.13.93-.24a4.71 4.71 0 0 0 .82-.48c.189-.15.34-.341.44-.56a2.19 2.19 0 0 0 .18-.86 2 2 0 0 0-.27-1 1.83 1.83 0 0 0-.6-.71zM3.82 7.07a1.07 1.07 0 0 1-.55-.13.58.58 0 0 1-.24-.4 4.47 4.47 0 0 1 0-.88V4.59a5.32 5.32 0 0 1-1 0V5.7a6.2 6.2 0 0 1-.05.88.42.42 0 0 1-.2.38.77.77 0 0 1-.5.15h-.25a.13.13 0 0 0-.05.15.15.15 0 0 0 .07.14l.72-.05h1.46l.9.05s0-.08.07-.14a.19.19 0 0 0 0-.15l-.38-.04z"/></symbol><symbol viewBox="0 0 26 26" id="rdd" xmlns="http://www.w3.org/2000/svg"><path d="M17.662 11.212c-.38 0-.713.153-.959.39-.903-.606-2.12-.996-3.467-1.038l.7-3.063 2.231.486c0 .53.445.962.992.962.556 0 1.004-.444 1.004-.974S17.718 7 17.159 7c-.39 0-.726.228-.893.54l-2.464-.53c-.124-.032-.245.054-.278.174l-.769 3.378c-1.338.054-2.542.444-3.447 1.05a1.364 1.364 0 0 0-.971-.4c-1.407 0-1.867 1.832-.58 2.458a2.67 2.67 0 0 0-.065.606c0 2.057 2.387 3.724 5.319 3.724 2.944 0 5.331-1.667 5.331-3.724 0-.206-.023-.422-.078-.616 1.262-.629.797-2.448-.602-2.448zM9.799 13.8c0-.54.445-.975 1.004-.975.546 0 .991.432.991.975 0 .53-.445.962-.991.962-.557.003-1.004-.432-1.004-.962zm5.42 2.295c-.921.894-3.519.894-4.44 0-.1-.086-.1-.238 0-.336a.248.248 0 0 1 .335 0c.703.7 3.035.712 3.768 0a.248.248 0 0 1 .334 0c.104.098.104.25.003.336zm-.02-1.33c-.547 0-.992-.432-.992-.963 0-.54.445-.974.991-.974.557 0 1.005.432 1.005.974-.003.528-.448.963-1.005.963z"/><path d="M13 0C5.82 0 0 5.82 0 13s5.82 13 13 13 13-5.82 13-13S20.18 0 13 0zm0 24.818C6.473 24.818 1.182 19.527 1.182 13 1.182 6.473 6.473 1.182 13 1.182c6.527 0 11.818 5.291 11.818 11.818 0 6.527-5.291 11.818-11.818 11.818z"/></symbol><symbol viewBox="0 0 24 24" id="reset" xmlns="http://www.w3.org/2000/svg"><path d="M23.297 11.297a.703.703 0 0 0-.703.703c0 5.841-4.753 10.594-10.594 10.594C6.159 22.594 1.406 17.84 1.406 12 1.406 6.159 6.16 1.406 12 1.406c2.352 0 4.587.762 6.423 2.168l-1.22.216a.703.703 0 1 0 .245 1.385l2.662-.47a.703.703 0 0 0 .581-.693V1.349a.703.703 0 0 0-1.406 0v1.114A11.909 11.909 0 0 0 12 0a11.922 11.922 0 0 0-8.485 3.515A11.922 11.922 0 0 0 0 12c0 3.205 1.248 6.219 3.515 8.485A11.922 11.922 0 0 0 12 24c3.205 0 6.219-1.248 8.485-3.515A11.921 11.921 0 0 0 24 12a.703.703 0 0 0-.703-.703z"/><path d="M15.6 9V7.857C15.6 5.841 13.985 4.2 12 4.2S8.4 5.84 8.4 7.857V9h1.35V7.857c0-1.26 1.01-2.286 2.25-2.286s2.25 1.026 2.25 2.286V9h1.35zm-8.4 2.497v5.806c0 .385.307.697.686.697h8.228a.691.691 0 0 0 .686-.697v-5.806a.691.691 0 0 0-.686-.697H7.886a.691.691 0 0 0-.686.697zm4.343 1.858h.914c.379 0 .686.312.686.697a.691.691 0 0 1-.686.696h-.914a.691.691 0 0 1-.686-.696c0-.385.307-.697.686-.697z"/></symbol><symbol viewBox="0 0 12 12" id="search" xmlns="http://www.w3.org/2000/svg"><path d="M5.257 9.005a3.753 3.753 0 0 0 3.755-3.752A3.753 3.753 0 0 0 5.257 1.5a3.753 3.753 0 0 0-3.755 3.752 3.753 3.753 0 0 0 3.755 3.752zm0 1.5A5.255 5.255 0 0 1 0 5.253 5.255 5.255 0 0 1 5.257 0a5.255 5.255 0 0 1 5.257 5.253 5.255 5.255 0 0 1-5.257 5.252zm2.7-2.129l.425-.425a.45.45 0 0 1 .638.001l2.849 2.856a.45.45 0 0 1-.001.637l-.425.424a.45.45 0 0 1-.638 0L7.956 9.012a.45.45 0 0 1 0-.636z"/></symbol><symbol viewBox="0 0 20 20" id="skype" xmlns="http://www.w3.org/2000/svg"><path d="M14.584 10.724a4.642 4.642 0 0 0-5.308-5.308A2.796 2.796 0 0 0 7.803 5 2.802 2.802 0 0 0 5 7.803a2.8 2.8 0 0 0 .416 1.473 4.642 4.642 0 0 0 5.308 5.308A2.802 2.802 0 0 0 15 12.197c0-.541-.152-1.046-.416-1.473zm-2.44.956a1.7 1.7 0 0 1-.758.603c-.334.146-.726.217-1.181.217-.543 0-.995-.098-1.351-.298a1.78 1.78 0 0 1-.615-.573c-.157-.237-.239-.471-.239-.701 0-.136.05-.251.147-.346a.515.515 0 0 1 .37-.146c.12 0 .226.038.31.112a.848.848 0 0 1 .213.329c.069.166.144.305.226.417.079.108.19.2.337.274.144.071.334.109.572.109.328 0 .593-.075.792-.217.203-.146.301-.322.301-.54a.551.551 0 0 0-.16-.413 1.04 1.04 0 0 0-.426-.247 7.519 7.519 0 0 0-.703-.183 5.36 5.36 0 0 1-.994-.312 1.628 1.628 0 0 1-.642-.491 1.26 1.26 0 0 1-.238-.776c0-.295.085-.556.252-.786.166-.23.408-.404.723-.529A3.056 3.056 0 0 1 10.189 7c.34 0 .63.04.88.122.248.081.454.19.618.325.163.136.284.278.36.427a.97.97 0 0 1 .114.437.523.523 0 0 1-.147.36.474.474 0 0 1-.363.159c-.131 0-.232-.03-.301-.098a1.307 1.307 0 0 1-.22-.305 1.337 1.337 0 0 0-.356-.461c-.134-.109-.357-.163-.664-.163-.285 0-.514.061-.684.18-.173.118-.255.257-.255.42 0 .102.03.186.085.26a.725.725 0 0 0 .242.194c.105.054.21.098.314.129.108.03.285.078.53.135a8 8 0 0 1 .844.23c.252.086.468.187.645.31.18.121.32.274.418.46.102.186.15.417.15.685.004.328-.08.616-.254.874z"/><path d="M10 0C4.477 0 0 4.477 0 10s4.477 10 10 10 10-4.477 10-10S15.523 0 10 0zm0 19.09A9.09 9.09 0 1 1 10 .91a9.09 9.09 0 0 1 0 18.18z"/></symbol><symbol viewBox="0 0 18.264404 14" id="sol-icon" xmlns="http://www.w3.org/2000/svg"><path d="M3.183.035A.115.115 0 0 1 3.264 0h14.748a.11.11 0 0 1 .08.185L14.939 3.56a.11.11 0 0 1-.08.035H.11a.111.111 0 0 1-.08-.186L3.183.035zm14.829 8.762H3.264a.115.115 0 0 1-.081-.035L.03 5.394a.11.11 0 0 1 .08-.184h14.748c.03 0 .06.012.08.035l3.155 3.374a.11.11 0 0 1-.081.178zM3.326 10.44a.11.11 0 0 1 .08-.035h14.749a.11.11 0 0 1 .08.185l-3.153 3.375a.11.11 0 0 1-.08.035H.252a.11.11 0 0 1-.08-.186l3.154-3.374z" fill-rule="evenodd"/></symbol><symbol viewBox="0 0 18 15.671875" id="tg" xmlns="http://www.w3.org/2000/svg"><path d="M.318 7.515l4.147 1.548 1.606 5.162a.488.488 0 0 0 .775.234l2.312-1.885a.69.69 0 0 1 .841-.023l4.17 3.027a.489.489 0 0 0 .766-.295L17.989.589a.489.489 0 0 0-.654-.555L.313 6.6a.49.49 0 0 0 .005.915zm5.494.724l8.106-4.993c.146-.09.296.108.17.224l-6.69 6.218a1.387 1.387 0 0 0-.429.83l-.228 1.689c-.03.225-.347.248-.409.03l-.876-3.08a.816.816 0 0 1 .356-.918z"/></symbol><symbol viewBox="0 0 18.07251 19" id="trx-icon" xmlns="http://www.w3.org/2000/svg"><path d="M14.35 2.64L0 0l7.552 19 10.52-12.82-3.722-3.54zm-.229 1.163l2.196 2.087-6.004 1.087 3.808-3.174zM9.01 6.76L2.68 1.512l10.342 1.903L9.009 6.76zm-.453.93l-1.03 8.53L1.962 2.218 8.556 7.69zm.954.45l6.648-1.203-7.624 9.29.976-8.086z"/></symbol><symbol viewBox="0 0 64 64" id="trx-logo" xmlns="http://www.w3.org/2000/svg"><path class="bpcls-1" d="M61.55 19.28c-3-2.77-7.15-7-10.53-10l-.2-.14a3.82 3.82 0 0 0-1.11-.62C41.56 7 3.63-.09 2.89 0a1.4 1.4 0 0 0-.58.22l-.19.15a2.23 2.23 0 0 0-.52.84l-.05.13v.82C5.82 14.05 22.68 53 26 62.14c.2.62.58 1.8 1.29 1.86h.16c.38 0 2-2.14 2-2.14S58.41 26.74 61.34 23a9.46 9.46 0 0 0 1-1.48 2.41 2.41 0 0 0-.79-2.24zm-24.67 4.09l12.36-10.25 7.25 6.68zm-4.8-.67L10.8 5.26l34.43 6.35zM34 27.27l21.78-3.51-24.9 30zM7.91 7L30.3 26l-3.24 27.78z"/></symbol><symbol viewBox="0 0 17.230713 14" id="tw" xmlns="http://www.w3.org/2000/svg"><path d="M17.23 1.657a7.366 7.366 0 0 1-2.035.558A3.513 3.513 0 0 0 16.75.263a7.06 7.06 0 0 1-2.24.855A3.531 3.531 0 0 0 8.4 3.534c0 .28.024.549.082.805A9.999 9.999 0 0 1 1.2.644 3.556 3.556 0 0 0 .716 2.43c0 1.223.63 2.307 1.57 2.935A3.489 3.489 0 0 1 .688 4.93v.039a3.549 3.549 0 0 0 2.83 3.47c-.287.08-.6.117-.926.117-.226 0-.454-.013-.669-.06a3.566 3.566 0 0 0 3.301 2.46 7.098 7.098 0 0 1-4.38 1.507c-.29 0-.567-.013-.845-.048A9.945 9.945 0 0 0 5.42 14c6.5 0 10.053-5.385 10.053-10.052 0-.156-.005-.307-.013-.457a7.047 7.047 0 0 0 1.77-1.834z" fill-rule="evenodd"/></symbol><symbol viewBox="0 0 13.333984 21" id="usd-icon" xmlns="http://www.w3.org/2000/svg"><path d="M13.334 14.665c0-2.143-1.957-4.002-4.985-4.736l-.742-.19V3.882c1.786.222 3.179 1.044 3.326 2.059a.955.955 0 0 0 1.89-.276c-.287-1.993-2.387-3.436-5.216-3.7V.954a.955.955 0 1 0-1.91 0v1.01c-3.008.32-5.25 2.121-5.25 4.37 0 2.134 1.814 3.99 4.611 4.731l.64.161v5.908c-2.214-.216-3.647-1.16-3.802-2.079a.955.955 0 0 0-1.883.319c.34 1.986 2.62 3.424 5.685 3.673v.998a.955.955 0 0 0 1.909 0v-1.004c3.277-.299 5.727-2.111 5.727-4.377zM5.546 9.224c-1.91-.504-3.19-1.664-3.19-2.885 0-1.173 1.456-2.183 3.342-2.446v5.366l-.152-.035zm2.06 7.901V11.71l.295.075c2.107.51 3.524 1.668 3.524 2.88 0 1.05-1.527 2.203-3.818 2.46z"/></symbol><symbol viewBox="0 0 13 12.460571" id="usdc-icon" xmlns="http://www.w3.org/2000/svg"><path d="M8.877 7.49c0-1.26-.756-1.692-2.269-1.872-1.08-.144-1.296-.432-1.296-.936 0-.505.36-.829 1.08-.829.648 0 1.008.216 1.188.757a.27.27 0 0 0 .253.18h.576a.246.246 0 0 0 .252-.252v-.036a1.8 1.8 0 0 0-1.62-1.477v-.864c0-.144-.109-.252-.289-.288h-.54c-.144 0-.252.108-.288.288v.828c-1.08.144-1.765.864-1.765 1.765 0 1.188.72 1.656 2.233 1.836 1.008.18 1.332.397 1.332.973s-.504.972-1.188.972c-.936 0-1.26-.396-1.369-.936-.035-.144-.144-.216-.252-.216h-.612a.246.246 0 0 0-.252.252v.036c.144.9.72 1.548 1.909 1.728v.865c0 .144.108.252.288.288h.54c.144 0 .252-.108.288-.288V9.4c1.08-.18 1.8-.937 1.8-1.91z" fill-rule="evenodd"/><path d="M4.663 11.272C1.854 10.264.413 7.131 1.458 4.358a5.327 5.327 0 0 1 3.205-3.206c.144-.072.216-.18.216-.36V.288c0-.144-.072-.252-.216-.288-.036 0-.108 0-.144.036C1.098 1.116-.775 4.754.306 8.175a6.479 6.479 0 0 0 4.213 4.214c.144.072.288 0 .324-.144.036-.036.036-.072.036-.144v-.505c0-.108-.108-.252-.216-.324zM8.481.036c-.144-.072-.288 0-.324.144-.036.036-.036.072-.036.144v.504c0 .144.108.288.216.36 2.809 1.009 4.25 4.142 3.205 6.915a5.328 5.328 0 0 1-3.205 3.205c-.144.072-.216.18-.216.36v.505c0 .144.072.252.216.288.036 0 .108 0 .144-.036 3.421-1.08 5.294-4.718 4.213-8.14A6.532 6.532 0 0 0 8.481.037z"/></symbol><symbol viewBox="0 0 18 16.575195" id="usdt-icon" xmlns="http://www.w3.org/2000/svg"><path d="M10.826 5.568V3.36h5.045V0H2.137v3.36h5.045v2.208C3.084 5.757 0 6.568 0 7.54s3.084 1.783 7.182 1.973v7.062h3.649V9.513C14.924 9.323 18 8.512 18 7.54c-.004-.972-3.08-1.783-7.174-1.972zm.005 3.348c-.104.004-.63.037-1.808.037-.943 0-1.602-.025-1.837-.037v.004C3.566 8.76.861 8.129.861 7.375c0-.753 2.701-1.383 6.325-1.544v2.455c.239.016.914.057 1.853.057 1.124 0 1.688-.045 1.796-.057V5.823c3.615.16 6.313.79 6.313 1.544-.009.754-2.706 1.384-6.317 1.549"/></symbol><symbol viewBox="0 0 226.777 226.777" id="usdt-logo" xmlns="http://www.w3.org/2000/svg"><path d="M226.883 107.66c0-14.245-38.761-26.13-90.27-28.872l-.004-22.697h64.315V8.855H25.06v47.236h64.31v22.808C38.799 81.829.97 93.59.97 107.66c0 14.072 37.829 25.834 88.4 28.759v81.504h47.239V136.53c51.513-2.736 90.274-14.625 90.274-28.87zm-112.957 14.033c-55.288 0-100.109-8.557-100.109-19.119 0-8.943 32.139-16.451 75.553-18.54v5.383h.005v22.059c7.827.439 16.053.669 24.551.669 7.825 0 15.424-.199 22.688-.563v-27.63c44.355 1.961 77.423 9.548 77.423 18.622-.001 10.562-44.823 19.119-100.111 19.119z"/></symbol><symbol viewBox="0 0 18 18" id="wapp" xmlns="http://www.w3.org/2000/svg"><path d="M9.002 0h-.004C4.035 0 0 4.037 0 9c0 1.969.634 3.793 1.713 5.275L.592 17.62l3.46-1.106A8.922 8.922 0 0 0 9.001 18C13.965 18 18 13.962 18 9s-4.035-9-8.998-9zm5.237 12.71c-.217.612-1.079 1.12-1.766 1.27-.47.1-1.085.18-3.152-.678-2.645-1.096-4.348-3.783-4.481-3.958-.127-.174-1.07-1.423-1.07-2.714 0-1.292.656-1.92.92-2.19.217-.222.576-.324.92-.324.112 0 .212.006.302.01.264.012.397.027.571.445.218.523.746 1.815.81 1.947.064.133.128.313.038.487-.085.18-.159.26-.292.413-.133.153-.258.27-.391.434-.122.143-.259.296-.106.56.153.26.682 1.122 1.46 1.815 1.005.895 1.82 1.18 2.11 1.302.218.09.477.069.635-.1.202-.217.45-.577.703-.932.18-.254.408-.285.646-.195.243.084 1.529.72 1.793.851.265.133.44.196.503.307.063.112.063.635-.154 1.25z"/></symbol><symbol viewBox="0 0 20 17.5" id="wchat" xmlns="http://www.w3.org/2000/svg"><path d="M0 6.25C0 2.799 3.357 0 7.5 0c3.66 0 6.704 2.186 7.364 5.076A9.072 9.072 0 0 0 13.75 5c-4.136 0-7.5 2.804-7.5 6.25 0 .401.05.793.138 1.174a8.512 8.512 0 0 1-1.82-.453l-2.693 1.154.989-1.977C1.123 10.005 0 8.24 0 6.25zm4.063-2.5a.938.938 0 1 0 1.875 0 .938.938 0 0 0-1.875 0zm5 0a.938.938 0 1 0 1.875 0 .938.938 0 0 0-1.876 0zm4.687 2.5c3.451 0 6.25 2.239 6.25 5 0 1.599-.955 3.006-2.415 3.921L18.75 17.5l-3.369-1.444a7.634 7.634 0 0 1-1.631.194c-3.451 0-6.25-2.239-6.25-5s2.799-5 6.25-5zM10.937 10a.938.938 0 1 0 1.876 0 .938.938 0 0 0-1.876 0zm3.75 0a.938.938 0 1 0 1.876 0 .938.938 0 0 0-1.875 0z" fill-rule="evenodd"/></symbol><symbol viewBox="0 0 226.777 226.777" id="xrp" xmlns="http://www.w3.org/2000/svg"><path d="M113.48.183C50.908.183.183 50.908.183 113.48c0 62.572 50.725 113.297 113.297 113.297 62.572 0 113.297-50.726 113.297-113.297C226.777 50.908 176.052.183 113.48.183zm47.419 163.777c-7.365 12.656-23.905 17.119-36.941 9.97-13.037-7.149-17.635-23.205-10.268-35.862 3.068-5.272 1.153-11.96-4.28-14.941-5.356-2.937-12.132-1.166-15.261 3.941h-.002v-.021c-.044.078-.083.155-.128.232-7.365 12.656-23.904 17.12-36.94 9.97-13.038-7.149-17.636-23.207-10.271-35.86 7.367-12.657 23.905-17.12 36.944-9.969 4.357 2.39 7.765 5.779 10.107 9.7v-.014l.002-.002c3.248 5.032 10.055 6.654 15.341 3.603 5.362-3.095 7.125-9.824 3.936-15.03-7.651-12.494-3.42-28.645 9.451-36.072 12.869-7.428 29.506-3.321 37.159 9.172 7.651 12.495 3.422 28.645-9.451 36.073a27.612 27.612 0 0 1-13.697 3.694l.012.005v.002c-6.175.207-11.081 5.161-11.007 11.191.073 6.11 5.239 11.008 11.533 10.936l-.039.021a27.627 27.627 0 0 1 13.533 3.401c13.034 7.151 17.632 23.206 10.267 35.86z"/></symbol><symbol id="xrp-logo" viewBox="0 0 52.44 56.69" xmlns="http://www.w3.org/2000/svg"><defs><style>.bycls-1{fill:#363635}</style></defs><title>Artboard 53</title><path class="bycls-1" d="M34.67 1.53a12 12 0 0 0-5.93 10.3 13.42 13.42 0 0 0 2 6.36C31.59 20 32 23 29 24.56a4.71 4.71 0 0 1-6.4-1.76 19.78 19.78 0 0 0-4.83-4.8 11.49 11.49 0 0 0-11.84 0 11.94 11.94 0 0 0 0 20.63 11.51 11.51 0 0 0 11.85 0 12.06 12.06 0 0 0 4.6-4.82A4.51 4.51 0 0 1 28.73 32a4.91 4.91 0 0 1 1.76 6.36 13.24 13.24 0 0 0-1.76 6.36 11.92 11.92 0 0 0 5.94 10.31 11.49 11.49 0 0 0 11.84 0 11.93 11.93 0 0 0 0-20.62 13.24 13.24 0 0 0-6.58-1.54 4.6 4.6 0 1 1 0-9.2 13.81 13.81 0 0 0 6.58-1.54 11.92 11.92 0 0 0 0-20.61A11.37 11.37 0 0 0 40.59 0a11.31 11.31 0 0 0-5.92 1.53z"/></symbol><symbol viewBox="0 0 20 14.00293" id="yt" xmlns="http://www.w3.org/2000/svg"><path d="M19.588 2.191A2.505 2.505 0 0 0 17.825.428C16.26 0 10 0 10 0S3.74 0 2.175.412c-.84.23-1.533.922-1.763 1.78C0 3.755 0 7.001 0 7.001s0 3.261.412 4.81c.23.857.906 1.532 1.763 1.763 1.581.428 7.825.428 7.825.428s6.26 0 7.825-.412a2.506 2.506 0 0 0 1.763-1.762C20 10.262 20 7.018 20 7.018s.016-3.262-.412-4.827zM8.007 10V4.003l5.205 2.999L8.007 10z"/></symbol></svg>