<svg width="48" height="48" viewBox="0 0 48 48" xmlns="http://www.w3.org/2000/svg">
    <g fill-rule="nonzero" fill="none">
        <path d="M24.218 48c3.938 0 7.817-.967 11.302-2.817l-.73-1.393c-9.074 4.822-20.228 2.898-27.196-4.69C.627 31.512-.417 20.151 5.05 11.401l-1.322-.841a24.595 24.595 0 0 0-.714 24.816C7.275 43.163 15.397 47.998 24.218 48zM23.783 1.576c8.251.002 15.85 4.525 19.836 11.808a23.006 23.006 0 0 1-.667 23.215l1.321.841C50.116 28.087 49 15.943 41.551 7.832 34.103-.279 22.18-2.336 12.48 2.818l.73 1.393a22.553 22.553 0 0 1 10.573-2.635z" fill="#F1BB0C"/>
        <path d="M37.2 44.16h4.32a.72.72 0 0 0 .72-.72v-4.32a.72.72 0 0 0-.72-.72H37.2a.72.72 0 0 0-.72.72v4.32a.72.72 0 0 0 .72.72zm.72-4.32h2.88v2.88h-2.88v-2.88zM6.48 9.6h4.32a.72.72 0 0 0 .72-.72V4.56a.72.72 0 0 0-.72-.72H6.48a.72.72 0 0 0-.72.72v4.32a.72.72 0 0 0 .72.72zm.72-4.32h2.88v2.88H7.2V5.28zM30.334 27.665c0-2.143-1.957-4.002-4.985-4.736l-.742-.19v-5.856c1.786.222 3.178 1.044 3.326 2.059a.955.955 0 0 0 1.89-.276c-.287-1.993-2.387-3.436-5.216-3.7v-1.011a.955.955 0 0 0-1.91 0v1.01c-3.008.32-5.25 2.121-5.25 4.37 0 2.134 1.814 3.99 4.611 4.731l.64.161v5.908c-2.214-.216-3.647-1.16-3.802-2.079a.955.955 0 1 0-1.883.319c.34 1.986 2.62 3.424 5.685 3.673v.997a.955.955 0 1 0 1.909 0v-1.003c3.277-.299 5.727-2.111 5.727-4.377zm-7.788-5.441c-1.91-.504-3.19-1.664-3.19-2.885 0-1.173 1.456-2.183 3.342-2.446v5.366l-.152-.035zm2.06 7.901V24.71l.295.075c2.107.51 3.524 1.668 3.524 2.88 0 1.05-1.527 2.203-3.818 2.46z" fill="#FFF"/>
    </g>
</svg>
