<svg width="48" height="48" viewBox="0 0 48 48" xmlns="http://www.w3.org/2000/svg">
    <g fill-rule="nonzero" fill="none">
        <path d="M24.218 48c3.938 0 7.817-.967 11.302-2.817l-.73-1.393c-9.074 4.822-20.228 2.898-27.196-4.69C.627 31.512-.417 20.151 5.05 11.401l-1.322-.841a24.595 24.595 0 0 0-.714 24.816C7.275 43.163 15.397 47.998 24.218 48zM23.783 1.576c8.251.002 15.85 4.525 19.836 11.808a23.006 23.006 0 0 1-.667 23.215l1.321.841C50.116 28.087 49 15.943 41.551 7.832 34.103-.279 22.18-2.336 12.48 2.818l.73 1.393a22.553 22.553 0 0 1 10.573-2.635z" fill="#F1BB0C"/>
        <path d="M37.2 44.16h4.32a.72.72 0 0 0 .72-.72v-4.32a.72.72 0 0 0-.72-.72H37.2a.72.72 0 0 0-.72.72v4.32a.72.72 0 0 0 .72.72zm.72-4.32h2.88v2.88h-2.88v-2.88zM6.48 9.6h4.32a.72.72 0 0 0 .72-.72V4.56a.72.72 0 0 0-.72-.72H6.48a.72.72 0 0 0-.72.72v4.32a.72.72 0 0 0 .72.72zm.72-4.32h2.88v2.88H7.2V5.28zM28.893 16.714v-3.798a.573.573 0 0 0-1.146 0v3.798a.573.573 0 0 0 1.146 0zm-4.422-4.37a1.858 1.858 0 0 0-1.857 1.856v1.23c0 1.024.833 1.857 1.857 1.857a1.858 1.858 0 0 0 1.856-1.856V14.2a1.858 1.858 0 0 0-1.856-1.856zm.71 3.087a.711.711 0 0 1-1.42 0V14.2a.711.711 0 0 1 1.42 0v1.23zm-5.843-3.087a1.858 1.858 0 0 0-1.856 1.856v1.23c0 1.024.832 1.857 1.856 1.857a1.858 1.858 0 0 0 1.856-1.856V14.2a1.858 1.858 0 0 0-1.856-1.856zm.71 3.087a.711.711 0 0 1-1.42 0V14.2a.711.711 0 0 1 1.42 0v1.23zm-3.36 16.542v3.798a.573.573 0 0 0 1.145 0v-3.798a.573.573 0 0 0-1.145 0zm4.422-.573a1.858 1.858 0 0 0-1.856 1.856v1.231c0 1.024.833 1.857 1.856 1.857a1.858 1.858 0 0 0 1.856-1.857v-1.23A1.858 1.858 0 0 0 21.11 31.4zm.71 3.087a.711.711 0 0 1-1.42 0v-1.231a.711.711 0 0 1 1.42 0v1.231zm4.423-3.087a1.858 1.858 0 0 0-1.856 1.856v1.231c0 1.024.832 1.857 1.856 1.857a1.858 1.858 0 0 0 1.856-1.857v-1.23a1.858 1.858 0 0 0-1.856-1.857zm.71 3.087a.711.711 0 0 1-1.42 0v-1.231a.711.711 0 0 1 1.42 0v1.231zm2.566-2.514v3.798a.573.573 0 0 0 1.146 0v-3.798a.573.573 0 0 0-1.146 0zm4.507-8.81v-3.797a.573.573 0 0 0-1.146 0v3.797a.573.573 0 0 0 1.146 0zm-6.279-1.283c0 1.024.833 1.856 1.856 1.856a1.858 1.858 0 0 0 1.856-1.856V20.65a1.858 1.858 0 0 0-1.856-1.856 1.858 1.858 0 0 0-1.856 1.856v1.231zm1.146-1.231a.711.711 0 0 1 1.42 0v1.231a.711.711 0 0 1-1.42 0V20.65zm-3.14-1.856a.573.573 0 0 0-.572.573v3.797a.573.573 0 0 0 1.146 0v-3.797a.573.573 0 0 0-.573-.573zm-3.139 4.37a.573.573 0 0 0 1.146 0v-3.797a.573.573 0 0 0-1.146 0v3.797zm-1.993.573a.573.573 0 0 0 .573-.573v-3.797a.573.573 0 0 0-1.146 0v3.797c0 .317.257.573.573.573zm-5.706-3.087v1.231c0 1.024.833 1.856 1.856 1.856a1.858 1.858 0 0 0 1.856-1.856V20.65a1.858 1.858 0 0 0-1.856-1.856 1.858 1.858 0 0 0-1.856 1.856zm2.567 0v1.231a.711.711 0 0 1-1.42 0V20.65a.711.711 0 0 1 1.42 0zm-4.56-1.856a.573.573 0 0 0-.573.573v3.797a.573.573 0 0 0 1.146 0v-3.797a.573.573 0 0 0-.573-.573zm17.391 8.305v1.232c0 1.023.833 1.856 1.857 1.856a1.858 1.858 0 0 0 1.856-1.856v-1.232a1.858 1.858 0 0 0-1.856-1.856 1.858 1.858 0 0 0-1.857 1.856zm2.567 0v1.232a.711.711 0 0 1-1.42 0v-1.232a.711.711 0 0 1 1.42 0zm-5.133 2.515a.573.573 0 0 0 1.146 0v-3.798a.573.573 0 0 0-1.146 0v3.798zm-5.133-1.283c0 1.023.833 1.856 1.856 1.856a1.858 1.858 0 0 0 1.857-1.856v-1.232a1.858 1.858 0 0 0-1.857-1.856 1.858 1.858 0 0 0-1.856 1.856v1.232zm1.146-1.232a.711.711 0 0 1 1.42 0v1.232a.711.711 0 0 1-1.42 0v-1.232zm-3.712 2.515a.573.573 0 0 0 1.146 0v-3.798a.573.573 0 0 0-1.146 0v3.798zm-1.42 0v-3.798a.573.573 0 0 0-1.146 0v3.798a.573.573 0 0 0 1.145 0zm-6.28-2.515v1.232c0 1.023.834 1.856 1.857 1.856a1.858 1.858 0 0 0 1.856-1.856v-1.232a1.858 1.858 0 0 0-1.856-1.856 1.858 1.858 0 0 0-1.856 1.856zm2.567 0v1.232a.711.711 0 0 1-1.42 0v-1.232a.711.711 0 0 1 1.42 0z" fill="#FFF"/>
    </g>
</svg>
