<svg width="48" height="48" viewBox="0 0 48 48" xmlns="http://www.w3.org/2000/svg">
    <g fill-rule="nonzero" fill="none">
        <path d="M24.218 48c3.938 0 7.817-.967 11.302-2.817l-.73-1.393c-9.074 4.822-20.228 2.898-27.196-4.69C.627 31.512-.417 20.151 5.05 11.401l-1.322-.841a24.595 24.595 0 0 0-.714 24.816C7.275 43.163 15.397 47.998 24.218 48zM23.783 1.576c8.251.002 15.85 4.525 19.836 11.808a23.006 23.006 0 0 1-.667 23.215l1.321.841C50.116 28.087 49 15.943 41.551 7.832 34.103-.279 22.18-2.336 12.48 2.818l.73 1.393a22.553 22.553 0 0 1 10.573-2.635z" fill="#F1BB0C"/>
        <path d="M37.2 44.16h4.32a.72.72 0 0 0 .72-.72v-4.32a.72.72 0 0 0-.72-.72H37.2a.72.72 0 0 0-.72.72v4.32a.72.72 0 0 0 .72.72zm.72-4.32h2.88v2.88h-2.88v-2.88zM6.48 9.6h4.32a.72.72 0 0 0 .72-.72V4.56a.72.72 0 0 0-.72-.72H6.48a.72.72 0 0 0-.72.72v4.32a.72.72 0 0 0 .72.72zm.72-4.32h2.88v2.88H7.2V5.28z" fill="#FFF"/>
        <g fill="#FFF">
            <path d="M37.563 28.125H15.686a.437.437 0 0 1-.437-.438v-12.25c0-.241.196-.437.438-.437h21.874c.242 0 .438.196.438.438v12.25a.437.437 0 0 1-.438.437zm-21.438-.875h21V15.875h-21V27.25z"/>
            <path d="M27.063 23.75h-.875a1.313 1.313 0 0 1-1.313-1.313h.875c0 .242.196.438.438.438h.875a.437.437 0 1 0 0-.875h-.875a1.313 1.313 0 0 1 0-2.625h.875c.724 0 1.312.588 1.312 1.313H27.5a.437.437 0 0 0-.438-.438h-.875a.437.437 0 1 0 0 .875h.875a1.313 1.313 0 0 1 0 2.625z"/>
            <path d="M26.188 18.938h.875v.875h-.875zM26.188 23.313h.875v.875h-.875z"/>
            <path d="M34.063 26.375H19.187a.437.437 0 0 1-.437-.438c0-.724-.588-1.312-1.313-1.312a.437.437 0 0 1-.437-.438v-5.25c0-.241.196-.437.438-.437.724 0 1.312-.588 1.312-1.313 0-.241.196-.437.438-.437h14.875c.241 0 .437.196.437.438 0 .724.588 1.312 1.313 1.312.241 0 .437.196.437.438v5.25a.437.437 0 0 1-.438.437c-.724 0-1.312.588-1.312 1.313a.437.437 0 0 1-.438.437zM19.58 25.5H33.67a2.193 2.193 0 0 1 1.706-1.706V19.33a2.193 2.193 0 0 1-1.706-1.706H19.58a2.193 2.193 0 0 1-1.706 1.706v4.463c.859.176 1.53.847 1.706 1.706z"/>
            <path d="M26.625 26.375a4.812 4.812 0 1 1 0-9.625 4.812 4.812 0 0 1 0 9.625zm0-8.75a3.938 3.938 0 1 0 0 7.875 3.938 3.938 0 0 0 0-7.875zM17 30.75h-3.938a.437.437 0 0 1-.437-.438v-12.25c0-.241.196-.437.438-.437h2.624v.875H13.5v11.375H17v.875zM34.938 30.75H19.624v-.875H34.5v-2.188h.875v2.625a.437.437 0 0 1-.438.438z"/>
            <path d="M32.313 33.375H10.436a.437.437 0 0 1-.437-.438v-12.25c0-.241.196-.437.438-.437h2.624v.875h-2.187V32.5h21v-2.188h.875v2.625a.437.437 0 0 1-.438.438z"/>
            <path d="M17.875 29.875h.875v.875h-.875z"/>
        </g>
    </g>
</svg>
