<svg width="15" height="24" viewBox="0 0 15 24" xmlns="http://www.w3.org/2000/svg">
    <path d="M14.336.672V.669A2.243 2.243 0 0 0 12.74 0H2.257A2.274 2.274 0 0 0 0 2.276v19.445A2.28 2.28 0 0 0 2.257 24h10.486A2.28 2.28 0 0 0 15 21.724V2.279a2.28 2.28 0 0 0-.664-1.607zM7.5 22.455a.612.612 0 0 1-.61-.615c0-.34.273-.614.61-.614.337 0 .61.275.61.614 0 .34-.273.615-.61.615zm5.707-3.86c0 .822-.66 1.488-1.475 1.488H3.266a1.482 1.482 0 0 1-1.476-1.488V4.103c0-.821.66-1.487 1.476-1.487h8.468c.815 0 1.476.666 1.476 1.487l-.003 14.492z" fill="#A9AAB3" fill-rule="nonzero"/>
</svg>
