<svg width="16" height="16" viewBox="0 0 16 16" xmlns="http://www.w3.org/2000/svg">
    <path d="M12.49 8.992a3.508 3.508 0 0 1 3.504 3.504A3.508 3.508 0 0 1 12.49 16a3.508 3.508 0 0 1-3.503-3.504 3.508 3.508 0 0 1 3.503-3.504zM15.146.147a.5.5 0 1 1 .707.707L.86 15.848a.497.497 0 0 1-.707 0 .5.5 0 0 1 0-.707zM12.49 9.992a2.506 2.506 0 0 0-2.503 2.504A2.507 2.507 0 0 0 12.49 15a2.507 2.507 0 0 0 2.504-2.504 2.506 2.506 0 0 0-2.504-2.504zM3.504.006a3.507 3.507 0 0 1 3.504 3.503 3.508 3.508 0 0 1-3.504 3.504A3.509 3.509 0 0 1 0 3.509 3.508 3.508 0 0 1 3.504.006zm0 1A2.507 2.507 0 0 0 1 3.51a2.507 2.507 0 0 0 2.504 2.504A2.506 2.506 0 0 0 6.008 3.51a2.506 2.506 0 0 0-2.504-2.503z" fill="#161619" fill-rule="nonzero"/>
</svg>
