<svg width="23" height="20" viewBox="0 0 23 20" xmlns="http://www.w3.org/2000/svg">
    <path d="M19.048 8.571c.525 0 .952.428.952.953v4.762h2.381a.476.476 0 0 1 .337.813l-4.762 4.762a.478.478 0 0 1-.674 0l-4.762-4.762a.475.475 0 0 1 .337-.813h2.381V9.524c0-.525.427-.953.952-.953h2.858zm0 .953H16.19v5.238a.476.476 0 0 1-.476.476h-1.707l3.612 3.612 3.612-3.612h-1.707a.476.476 0 0 1-.476-.476V9.524zM20.476 0a2.384 2.384 0 0 1 2.381 2.381v9.524a.476.476 0 0 1-.952 0V2.38A1.43 1.43 0 0 0 20.476.952H2.381A1.43 1.43 0 0 0 .952 2.381v2.38h6.19a2.384 2.384 0 0 1 2.382 2.382V10a2.384 2.384 0 0 1-2.381 2.381L.952 12.38v2.382a1.43 1.43 0 0 0 1.429 1.428h8.571a.476.476 0 0 1 0 .953H2.381A2.384 2.384 0 0 1 0 14.762V2.38A2.384 2.384 0 0 1 2.381 0h18.095zM7.143 5.714H.953v5.715h6.19A1.43 1.43 0 0 0 8.57 10V7.143a1.43 1.43 0 0 0-1.428-1.429zm-2.381.953c1.05 0 1.905.854 1.905 1.904 0 1.05-.855 1.905-1.905 1.905a1.907 1.907 0 0 1-1.905-1.905c0-1.05.854-1.904 1.905-1.904zm0 .952a.953.953 0 0 0 0 1.905.953.953 0 0 0 0-1.905z" fill="#161619" fill-rule="nonzero"/>
</svg>
