<svg width="24" height="24" viewBox="0 0 24 24" xmlns="http://www.w3.org/2000/svg">
    <path d="M.313 24A.313.313 0 0 1 0 23.687v-4.901c0-2.875 2.491-5.214 5.553-5.214l1.043-.001.061-.053c.786-.758.667-1.896.58-2.35a.308.308 0 0 1-.026-.025c-.742-.78-1.33-1.87-1.698-3.153l.012.029c-.73-1.523-1.003-2.915-.813-4.138a4.237 4.237 0 0 1 1.57-2.707C7.166.471 8.333.061 9.596.006L9.888 0c1.373 0 2.653.417 3.604 1.174a4.237 4.237 0 0 1 1.57 2.707c.19 1.218-.08 2.604-.804 4.119l.01-.03c-.37 1.291-.958 2.389-1.704 3.173l-.026.026c-.09.464-.211 1.647.639 2.404l1.044-.001c1.437 0 2.789.511 3.829 1.445a4.03 4.03 0 0 1 5.437 3.769 4.03 4.03 0 0 1-3.711 4.013l-.001.888a.314.314 0 0 1-.313.313H.313zm5.053-9.799.187-.003c-2.717 0-4.927 2.058-4.927 4.588v4.588l8.595-.001-3.808-4.323a.312.312 0 0 1-.05-.337l.77-1.683-1.257-.71a.313.313 0 0 1-.14-.378l.63-1.741zm9.043 0 .63 1.74a.313.313 0 0 1-.14.38l-1.257.709.77 1.683a.313.313 0 0 1-.05.336l-3.761 4.324h8.548V22.8a4.03 4.03 0 0 1-3.712-4.013c0-1.479.801-2.774 1.993-3.474a5.069 5.069 0 0 0-3.021-1.111zm-7.846-.003-.53-.001-.619 1.709 1.276.72c.142.08.199.255.131.403l-.804 1.76 3.896 4.422 3.845-4.42-.805-1.762a.313.313 0 0 1 .131-.403l1.276-.72-.619-1.709h-.53l-3.08 3.842a.313.313 0 0 1-.488 0l-3.08-3.841zm12.899 1.189a3.403 3.403 0 0 0-3.4 3.399c0 1.874 1.526 3.399 3.4 3.399a3.403 3.403 0 0 0 3.399-3.4c0-1.874-1.525-3.398-3.399-3.398zm0 .342c.173 0 .313.14.313.313v.5c.528.12.986.545.986 1.251a.313.313 0 0 1-.626 0c0-.52-.423-.66-.673-.66-.25 0-.673.14-.673.66 0 .485.215.555.745.682.489.116 1.227.292 1.227 1.29 0 .608-.42 1.12-.985 1.26v.504a.313.313 0 0 1-.627 0v-.503a1.302 1.302 0 0 1-.986-1.26.313.313 0 0 1 .626 0 .674.674 0 0 0 1.346 0c0-.486-.215-.556-.746-.682-.488-.117-1.226-.292-1.226-1.29 0-.708.458-1.132.986-1.252v-.5c0-.173.14-.313.313-.313zm-7.617-3.964c-.609.425-1.274.646-1.957.646-.684 0-1.349-.22-1.96-.646.017.852-.258 1.612-.786 2.153l2.746 3.425 2.745-3.425c-.528-.541-.803-1.301-.788-2.153zm-4.622-7.98c-.54.86-.92 2.846-1.069 3.873l-.028.198.06.198c.72 2.276 2.155 3.731 3.702 3.731 1.532 0 2.955-1.43 3.682-3.673l.078-.252-.018-.135c-.141-1.002-.524-3.047-1.073-3.931-.485.592-1.417.975-2.527 1.01-.983.032-2.167-.23-2.807-1.019zm-.55-2.121C5.254 2.794 4.912 4.572 5.67 6.739c.224-1.234.67-3.105 1.382-3.719a.313.313 0 0 1 .487.102c.397.825 1.58 1.086 2.472 1.057 1.088-.035 1.98-.452 2.217-1.04a.314.314 0 0 1 .494-.119c.713.614 1.158 2.485 1.383 3.719.758-2.167.415-3.945-1.003-5.075-1.743-1.388-4.687-1.388-6.429 0z" fill="#161619" fill-rule="evenodd"/>
</svg>
