<svg xmlns="http://www.w3.org/2000/svg" xmlns:xlink="http://www.w3.org/1999/xlink" width="56" height="48" viewBox="0 0 56 48"><defs><rect id="a" width="20" height="20" x="36" y="14" rx="2"/></defs><g fill="none" fill-rule="evenodd"><path fill="#F1BB0C" fill-rule="nonzero" d="M24.2175988 48C28.1559155 47.9994009 32.0349488 47.0326807 35.52 45.183252L34.7891446 43.7902568C25.715985 48.6120995 14.5618075 46.688382 7.59417265 39.1000462.626537797 31.5117104-.417104953 20.1509836 5.04966991 11.4014871L3.72831945 10.56C-.973360714 18.0840711-1.24692495 27.5901623 3.01415771 35.3764261 7.27524038 43.16269 15.3973544 47.9982309 24.2175988 48L24.2175988 48ZM23.7828566 1.57614093C32.0341602 1.57767496 39.6324482 6.10084662 43.6188726 13.3842884 47.605297 20.6677302 47.3496786 29.5600661 42.9515576 36.5985329L44.2729613 37.44C50.1158916 28.086922 48.9995977 15.9434946 41.5512479 7.83226854 34.1028981-.278957538 22.1795062-2.33570104 12.48 2.81757972L13.2108849 4.21054181C16.4706503 2.48060084 20.0990446 1.57645111 23.7828566 1.57614093Z"/><path fill="#FFF" fill-rule="nonzero" d="M37.2 44.16 41.52 44.16C41.7109711 44.16 41.8941348 44.0842087 42.0291718 43.9491718 42.1642087 43.8141348 42.24 43.6309711 42.24 43.44L42.24 39.12C42.24 38.9290289 42.1642087 38.7458652 42.0291718 38.6108283 41.8941348 38.4757913 41.7109711 38.4 41.52 38.4L37.2 38.4C37.0090289 38.4 36.8258652 38.4757913 36.6908283 38.6108283 36.5557913 38.7458652 36.48 38.9290289 36.48 39.12L36.48 43.44C36.48 43.6309711 36.5557913 43.8141348 36.6908283 43.9491718 36.8258652 44.0842087 37.0090289 44.16 37.2 44.16L37.2 44.16ZM37.92 39.84 40.8 39.84 40.8 42.72 37.92 42.72 37.92 39.84ZM6.48000002 9.60000005 10.8 9.60000005C10.9909711 9.60000005 11.1741348 9.52420872 11.3091718 9.38917176 11.4442087 9.2541348 11.52 9.07097112 11.52 8.88000002L11.52 4.56000002C11.52 4.36902893 11.4442087 4.18586525 11.3091718 4.05082829 11.1741348 3.91579133 10.9909711 3.84 10.8 3.84L6.48000002 3.84C6.28902893 3.84 6.10586525 3.91579133 5.97082829 4.05082829 5.83579133 4.18586525 5.76 4.36902893 5.76 4.56000002L5.76 8.88000002C5.76 9.07097112 5.83579133 9.2541348 5.97082829 9.38917176 6.10586525 9.52420872 6.28902893 9.60000005 6.48000002 9.60000005L6.48000002 9.60000005ZM7.20000002 5.28000002 10.08 5.28000002 10.08 8.16000002 7.20000002 8.16000002 7.20000002 5.28000002Z"/><path fill="#FFF" fill-rule="nonzero" d="M13.3341064,14.6646818 C13.3341064,12.5217273 11.3772882,10.6632273 8.34947005,9.92918182 L7.60683369,9.73827273 L7.60683369,3.88309091 C9.39278824,4.10454545 10.7854701,4.92736364 10.9334246,5.94204545 C11.0110406,6.46232013 11.4949432,6.82174165 12.0154547,6.74572962 C12.5359661,6.66971759 12.8968774,6.18692506 12.8224701,5.66618182 C12.5361064,3.67309091 10.4361064,2.22981818 7.60683369,1.96540909 L7.60683369,0.954545455 C7.60683369,0.427364557 7.17946913,0 6.65228824,0 C6.12510734,0 5.69774278,0.427364557 5.69774278,0.954545455 L5.69774278,1.96445455 C2.68901551,2.28422727 0.447742781,4.08640909 0.447742781,6.33531818 C0.447742781,8.46872727 2.26137914,10.3253182 5.05819733,11.0660455 L5.69774278,11.2273636 L5.69774278,17.1350455 C3.48415187,16.9193182 2.05137914,15.9752727 1.89578824,15.0560455 C1.83883686,14.7197936 1.60682337,14.4394672 1.28714501,14.3206626 C0.967466644,14.201858 0.608690155,14.2626244 0.345963176,14.4800717 C0.0832361964,14.697519 -0.0435267933,15.0386118 0.0134245992,15.3748636 C0.352288236,17.3612727 2.63365187,18.7988182 5.69774278,19.0479545 L5.69774278,20.0454545 C5.69774278,20.5726354 6.12510734,21 6.65228824,21 C7.17946913,21 7.60683369,20.5726354 7.60683369,20.0454545 L7.60683369,19.0422273 C10.8837882,18.7434545 13.3341064,16.9307727 13.3341064,14.6646818 Z M5.54597005,9.22377273 C3.63687914,8.71977273 2.35683369,7.56 2.35683369,6.33913636 C2.35683369,5.166 3.81156096,4.15609091 5.69774278,3.89263636 L5.69774278,9.25909091 L5.54597005,9.22377273 Z M7.60683369,17.1255 L7.60683369,11.7103636 L7.90083369,11.7848182 C10.0084701,12.2955 11.4250155,13.4533636 11.4250155,14.6646818 C11.4250155,15.7146818 9.89774278,16.8677727 7.60683369,17.1255 L7.60683369,17.1255 Z" transform="translate(17 13)"/><mask id="b" fill="#fff"><use xlink:href="#a"/></mask><use xlink:href="#a" fill="#F1BB0C"/><g fill="#070708" fill-rule="nonzero" mask="url(#b)"><path d="M7.304,0.84 C7.304,1.12266667 7.21466667,1.352 7.036,1.528 C6.85733333,1.704 6.56,1.792 6.144,1.792 L2.96,1.792 L2.544,4.208 C3.06666667,4.10133333 3.544,4.048 3.976,4.048 C4.584,4.048 5.11866667,4.13866667 5.58,4.32 C6.04133333,4.50133333 6.42933333,4.752 6.744,5.072 C7.05866667,5.392 7.296,5.76666667 7.456,6.196 C7.616,6.62533333 7.696,7.088 7.696,7.584 C7.696,8.19733333 7.588,8.75733333 7.372,9.264 C7.156,9.77066667 6.856,10.204 6.472,10.564 C6.088,10.924 5.63333333,11.2026667 5.108,11.4 C4.58266667,11.5973333 4.01066667,11.696 3.392,11.696 C3.02933333,11.696 2.68533333,11.6586667 2.36,11.584 C2.03466667,11.5093333 1.72933333,11.4093333 1.444,11.284 C1.15866667,11.1586667 0.894666667,11.0146667 0.652,10.852 C0.409333333,10.6893333 0.192,10.5173333 0,10.336 L0.608,9.496 C0.736,9.31466667 0.906666667,9.224 1.12,9.224 C1.25333333,9.224 1.388,9.26666667 1.524,9.352 C1.66,9.43733333 1.81866667,9.53066667 2,9.632 C2.18133333,9.73333333 2.392,9.82666667 2.632,9.912 C2.872,9.99733333 3.16266667,10.04 3.504,10.04 C3.86666667,10.04 4.18666667,9.98133333 4.464,9.864 C4.74133333,9.74666667 4.972,9.58266667 5.156,9.372 C5.34,9.16133333 5.47866667,8.91066667 5.572,8.62 C5.66533333,8.32933333 5.712,8.01333333 5.712,7.672 C5.712,7.04266667 5.52933333,6.55066667 5.164,6.196 C4.79866667,5.84133333 4.26133333,5.664 3.552,5.664 C2.992,5.664 2.42933333,5.76533333 1.864,5.968 L0.632,5.616 L1.592,0 L7.304,0 L7.304,0.84 Z" transform="translate(41.608 18.432)"/></g></g></svg>