<svg width="24" height="24" viewBox="0 0 24 24" xmlns="http://www.w3.org/2000/svg">
    <g fill-rule="nonzero" fill="none">
        <path d="M12.109 24c1.969 0 3.908-.484 5.651-1.408l-.365-.697A11.264 11.264 0 0 1 3.797 19.55C.313 15.756-.209 10.075 2.525 5.7l-.66-.42a12.297 12.297 0 0 0-.358 12.408C3.637 21.581 7.7 24 12.11 24zM11.891.788c4.126 0 7.925 2.262 9.918 5.904a11.503 11.503 0 0 1-.333 11.607l.66.421c2.922-4.677 2.364-10.748-1.36-14.804A12.042 12.042 0 0 0 6.24 1.41l.365.696A11.277 11.277 0 0 1 11.891.788z" fill="#F1BB0C"/>
        <path d="M18.6 22.08h2.16a.36.36 0 0 0 .36-.36v-2.16a.36.36 0 0 0-.36-.36H18.6a.36.36 0 0 0-.36.36v2.16a.36.36 0 0 0 .36.36zm.36-2.16h1.44v1.44h-1.44v-1.44zM3.24 4.8H5.4a.36.36 0 0 0 .36-.36V2.28a.36.36 0 0 0-.36-.36H3.24a.36.36 0 0 0-.36.36v2.16a.36.36 0 0 0 .36.36zm.36-2.16h1.44v1.44H3.6V2.64zM15.167 13.832c0-1.071-.978-2-2.492-2.367l-.372-.096V8.442c.893.11 1.59.522 1.664 1.029a.477.477 0 0 0 .944-.138c-.143-.996-1.193-1.718-2.608-1.85v-.506a.477.477 0 0 0-.954 0v.505c-1.504.16-2.625 1.061-2.625 2.186 0 1.066.907 1.995 2.305 2.365l.32.08v2.955c-1.107-.108-1.823-.58-1.901-1.04a.477.477 0 1 0-.941.16c.17.993 1.31 1.711 2.842 1.836v.499a.477.477 0 0 0 .954 0v-.502c1.639-.15 2.864-1.056 2.864-2.189zm-3.894-2.72c-.955-.252-1.595-.832-1.595-1.442 0-.587.728-1.092 1.67-1.224v2.684l-.075-.018zm1.03 3.95v-2.707l.147.037c1.054.256 1.763.835 1.763 1.44 0 .525-.764 1.102-1.91 1.23z" fill="#FFF"/>
    </g>
</svg>
