<?xml version="1.0" encoding="UTF-8"?>
<svg width="44px" height="44px" viewBox="0 0 44 44" version="1.1" xmlns="http://www.w3.org/2000/svg" xmlns:xlink="http://www.w3.org/1999/xlink">
    <title>trx-usdt-bep20</title>
    <defs>
        <rect id="path-1" x="21" y="22" width="20" height="20" rx="2"></rect>
    </defs>
    <g id="Account" stroke="none" stroke-width="1" fill="none" fill-rule="evenodd">
        <g id="03.acc-withdraw" transform="translate(-542.000000, -720.000000)">
            <g id="--form" transform="translate(143.000000, 145.000000)">
                <g id="network" transform="translate(28.000000, 576.000000)">
                    <g id="trx-usdt-bep20" transform="translate(372.000000, 0.000000)">
                        <path d="M21,42 C9.40202025,42 0,32.5979798 0,21 C0,9.40202025 9.40202025,0 21,0 C32.5979798,0 42,9.40202025 42,21 C42,32.5979798 32.5979798,42 21,42 Z" id="Path" stroke="#F1BB0C" fill-rule="nonzero"></path>
                        <path d="M23.2322123,17.7180124 L23.2322123,15.0546584 L29.3978495,15.0546584 L29.3978495,11 L12.6122169,11 L12.6122169,15.0546584 L18.777854,15.0546584 L18.777854,17.7180124 C13.7698467,17.9465839 10,18.9254658 10,20.0981366 C10,21.2708075 13.7698467,22.2496894 18.777854,22.4782609 L18.777854,31 L23.2372455,31 L23.2372455,22.4782609 C28.2402196,22.2496894 32,21.2708075 32,20.0981366 C31.9949668,18.9254658 28.2351865,17.9465839 23.2322123,17.7180124 Z M23.2427307,21.9526316 C23.1163085,21.9578947 22.4690265,22 21.022756,22 C19.8647282,22 19.0556258,21.9684211 18.7673831,21.9526316 L18.7673831,21.9578947 C14.3223767,21.7526316 11,20.9473684 11,19.9842105 C11,19.0210526 14.3173198,18.2157895 18.7673831,18.0105263 L18.7673831,21.1473684 C19.0606827,21.1684211 19.8900126,21.2210526 21.0429836,21.2210526 C22.4235145,21.2210526 23.1163085,21.1631579 23.2477876,21.1473684 L23.2477876,18 C27.687737,18.2052632 31,19.0105263 31,19.9736842 C30.9898862,20.9368421 27.6776233,21.7421053 23.2427307,21.9526316" id="path1_fill" fill="#FFFFFF" fill-rule="nonzero"></path>
                        <mask id="mask-2" fill="white">
                            <use xlink:href="#path-1"></use>
                        </mask>
                        <use id="Rectangle" fill="#F1BB0C" xlink:href="#path-1"></use>
                        <path d="M36.2291525,30.2499956 L37.9582946,32.0208038 L30.9791633,38.999995 L29.2500212,37.2707931 L36.2291525,30.2499956 Z M33.6041259,27.625033 L35.333332,29.3958411 L28.3541367,36.3749724 L26.6249946,34.6458304 L33.6041259,27.625033 Z M25.729174,30.2499956 L27.4583161,32.0208677 L25.729174,33.7500098 L24,32.0208677 L25.729174,30.2499956 Z M30.9791633,25 L32.7083054,26.7708145 L28.3541367,31.1249832 L26.6249946,29.3958411 L30.9791633,25 Z" id="Shape" fill="#161619" fill-rule="nonzero" mask="url(#mask-2)"></path>
                    </g>
                </g>
            </g>
        </g>
    </g>
</svg>