<svg width="18" height="16" viewBox="0 0 18 16" xmlns="http://www.w3.org/2000/svg">
    <path d="M6.944 1.164A2.402 2.402 0 0 1 9 0c.838 0 1.616.438 2.055 1.164l6.624 11.234A2.402 2.402 0 0 1 15.619 16H2.372a2.398 2.398 0 0 1-2.058-1.212 2.407 2.407 0 0 1 .01-2.397l6.62-11.227zM1.706 13.198A.801.801 0 0 0 2.38 14.4h13.23a.8.8 0 0 0 .687-1.194L9.683 1.986a.8.8 0 0 0-1.365-.003L1.706 13.198zm7.006-8.405h.56a.52.52 0 0 1 .52.52v3.762a.52.52 0 0 1-.52.52h-.56a.52.52 0 0 1-.52-.52V5.313a.52.52 0 0 1 .52-.52zm0 6.404h.56a.52.52 0 0 1 .52.52v.56a.52.52 0 0 1-.52.52h-.56a.52.52 0 0 1-.52-.52v-.56a.52.52 0 0 1 .52-.52z" fill="#F1BB0C" fill-rule="nonzero"/>
</svg>
