<?xml version="1.0" standalone="no"?>
<!DOCTYPE svg PUBLIC "-//W3C//DTD SVG 20010904//EN"
 "http://www.w3.org/TR/2001/REC-SVG-20010904/DTD/svg10.dtd">
<svg version="1.0" xmlns="http://www.w3.org/2000/svg"
 width="752.000000pt" height="752.000000pt" viewBox="0 0 752.000000 752.000000"
 preserveAspectRatio="xMidYMid meet">
<metadata>
Created by potrace 1.14, written by Peter Selinger 2001-2017
</metadata>
<g transform="translate(0.000000,752.000000) scale(0.100000,-0.100000)"
fill="#000000" stroke="none">
<path d="M3899 7516 c-2 -2 -42 -7 -89 -11 -88 -7 -112 -9 -195 -20 -65 -8
-105 -15 -250 -45 -27 -6 -59 -12 -70 -14 -11 -2 -40 -9 -65 -16 -40 -11 -60
-16 -95 -23 -5 -2 -16 -6 -23 -11 -8 -5 -27 2 -50 17 -70 48 -156 56 -224 21
-49 -24 -98 -82 -110 -129 -10 -36 -17 -43 -57 -59 -148 -60 -503 -247 -558
-295 -7 -6 -15 -11 -18 -11 -5 0 -192 -129 -218 -150 -7 -6 -39 -31 -72 -58
-312 -246 -608 -579 -822 -926 -34 -56 -66 -106 -70 -111 -34 -45 -150 -274
-208 -410 -40 -92 -160 -420 -154 -420 0 0 -6 -24 -14 -53 -19 -61 -67 -272
-72 -314 -2 -15 -6 -35 -9 -45 -2 -10 -7 -40 -11 -68 -3 -27 -10 -77 -15 -110
-25 -161 -35 -619 -18 -785 4 -36 10 -90 13 -120 3 -30 8 -71 11 -90 3 -19 8
-48 10 -65 2 -16 8 -52 14 -80 5 -27 12 -61 14 -75 2 -14 10 -47 16 -75 6 -27
14 -61 16 -75 9 -46 98 -346 115 -385 4 -11 25 -63 45 -115 43 -115 188 -414
244 -506 22 -36 40 -68 40 -69 0 -15 228 -339 275 -392 5 -6 21 -26 35 -44 74
-96 349 -377 455 -465 33 -27 65 -54 71 -59 6 -6 47 -37 90 -70 43 -33 81 -63
84 -66 12 -13 272 -180 356 -228 89 -49 376 -191 389 -191 3 0 30 -11 58 -23
29 -13 95 -39 147 -57 52 -17 104 -36 115 -40 58 -23 381 -105 450 -114 11 -2
34 -6 50 -9 17 -3 47 -9 68 -12 20 -3 52 -7 70 -10 145 -22 262 -29 502 -30
215 0 363 7 435 20 14 2 48 6 75 9 81 9 321 53 380 70 6 1 28 6 50 11 22 4 47
11 56 16 9 4 29 11 45 13 64 12 322 102 464 163 101 43 348 170 444 227 60 36
113 66 117 66 4 0 9 3 11 8 2 4 36 29 76 55 82 55 294 219 362 281 80 73 360
358 360 367 0 8 -18 -4 -54 -36 -10 -10 -90 -72 -111 -87 -5 -4 -26 -20 -45
-35 -59 -48 -140 -105 -250 -178 -58 -39 -107 -73 -110 -76 -3 -3 -18 -14 -35
-23 -16 -9 -47 -27 -67 -39 -168 -100 -374 -207 -382 -199 -3 3 -6 0 -6 -6 0
-7 -4 -12 -10 -12 -5 0 -40 -14 -77 -31 -225 -104 -612 -231 -803 -264 -19 -3
-69 -12 -110 -20 -80 -15 -115 -21 -195 -31 -55 -7 -80 -12 -80 -14 0 -1 -18
-3 -40 -5 -22 -2 -56 -6 -75 -9 -177 -26 -706 -27 -824 -1 -12 2 -37 7 -56 10
-19 2 -45 7 -56 9 -12 2 -37 7 -55 10 -19 3 -68 12 -109 21 -41 9 -83 18 -93
20 -10 2 -26 6 -35 9 -9 3 -30 8 -47 11 -32 6 -42 9 -65 17 -8 3 -58 18 -110
33 -52 15 -120 37 -150 48 -30 12 -57 22 -60 22 -11 3 -50 20 -126 55 -200 92
-306 196 -290 283 7 40 90 137 117 137 10 0 19 -4 19 -10 0 -11 59 -2 77 13 7
5 10 14 6 20 -3 5 4 17 17 27 21 16 51 15 125 -3 29 -7 158 -60 248 -101 98
-45 286 -116 307 -116 9 0 22 -6 30 -12 12 -11 12 -10 1 5 -7 9 -19 17 -26 17
-7 0 -44 14 -81 31 -38 17 -78 34 -89 39 -11 4 -64 29 -119 56 -110 54 -170
96 -234 163 -35 36 -42 51 -38 71 25 112 11 226 -34 283 -19 23 -19 28 -5 68
17 46 65 151 75 159 3 3 16 25 29 50 13 25 37 64 53 87 15 23 28 44 28 48 0 8
42 65 100 135 25 30 62 80 83 110 68 100 58 94 110 70 99 -47 223 -61 332 -38
53 11 151 54 173 75 7 7 17 13 20 13 8 0 79 67 105 99 10 13 28 39 39 59 11
21 22 40 24 43 4 7 74 -8 169 -36 33 -9 65 -18 70 -19 6 -1 16 -5 23 -9 6 -5
12 -6 12 -3 0 2 28 -6 62 -20 34 -13 63 -22 65 -20 2 2 -11 14 -29 27 -18 13
-37 27 -43 31 -5 5 -46 34 -90 66 -44 31 -106 77 -138 102 l-57 45 0 60 c0 33
-5 77 -11 98 -10 38 -5 77 11 77 5 0 54 29 109 65 55 36 105 65 111 65 5 0 10
3 10 8 0 4 17 16 37 27 20 11 41 25 47 30 6 6 29 20 50 31 l39 22 34 -20 c26
-16 44 -19 79 -14 82 11 124 59 129 145 l2 46 169 108 c93 59 176 110 184 114
8 4 20 11 25 15 6 5 46 31 90 58 44 27 85 53 90 58 6 4 42 27 80 50 39 24 115
71 170 106 l99 64 43 -29 c23 -16 46 -29 51 -29 20 0 22 -28 8 -107 -3 -18 -8
-46 -11 -62 -5 -30 -50 -164 -128 -381 -58 -162 -62 -186 -36 -193 22 -6 20
-9 84 138 26 61 56 130 67 155 12 25 24 54 29 65 4 11 44 95 88 186 72 147 84
166 105 166 41 0 148 58 192 102 22 23 51 62 63 86 16 32 29 45 44 46 12 1 66
1 120 1 76 1 97 4 97 15 0 14 -9 19 -50 27 -14 3 -40 9 -58 15 -18 5 -35 10
-37 10 -27 3 -75 33 -76 48 -5 101 -47 192 -121 257 -28 26 -61 49 -73 52 -13
3 -25 13 -27 22 -7 29 6 552 18 757 3 39 4 79 4 90 -1 24 -2 5 5 215 8 221 7
213 38 221 62 17 112 74 127 144 7 34 4 33 155 22 l80 -6 -56 14 c-31 8 -67
16 -80 18 -81 15 -91 20 -120 66 -49 81 -152 116 -227 78 -30 -14 -34 -13
-109 25 -43 22 -105 56 -138 76 -66 39 -277 181 -285 192 -3 4 -32 29 -65 55
-33 26 -71 59 -85 72 -14 13 -45 41 -69 63 -33 29 -45 48 -47 72 -9 97 -31
142 -102 200 -32 27 -100 52 -134 50 -36 -2 -97 129 -92 193 6 65 63 141 112
150 9 2 17 4 17 6 0 4 54 10 120 13 61 3 125 -4 265 -29 101 -18 375 -97 465
-134 11 -5 52 -21 90 -36 78 -31 100 -41 195 -83 36 -15 67 -29 70 -29 9 0
369 -183 440 -224 38 -21 72 -39 76 -39 11 0 -122 117 -170 149 -12 8 -23 18
-26 21 -8 11 -153 116 -177 128 -12 7 -28 18 -36 26 -8 8 -30 24 -48 34 -19
11 -79 47 -134 81 -55 33 -105 61 -111 61 -6 0 -17 7 -24 15 -6 8 -15 14 -18
13 -4 -1 -63 26 -132 59 -248 120 -543 221 -780 268 -14 3 -36 8 -50 12 -39
10 -38 9 -175 31 -71 12 -155 24 -185 27 -30 3 -71 8 -90 11 -40 6 -586 15
-591 10z m571 -150 c19 -2 40 -5 47 -5 16 -1 8 -20 -41 -101 -29 -48 -41 -79
-44 -118 -4 -49 -7 -54 -42 -72 -30 -15 -67 -21 -167 -24 -121 -5 -210 -12
-261 -21 -18 -3 -26 4 -42 40 -70 153 -274 187 -385 64 -42 -47 -55 -76 -64
-143 -6 -47 -8 -50 -41 -58 -41 -10 -198 -56 -220 -65 -18 -7 -18 -7 -90 -27
-51 -15 -81 -20 -168 -31 l-34 -4 7 67 c12 126 15 133 63 147 95 28 158 111
161 211 1 17 10 24 39 30 42 9 50 10 57 14 3 1 8 3 13 4 41 10 71 17 90 21 13
2 31 6 40 9 9 3 33 8 52 10 19 3 45 7 56 10 30 6 93 17 132 22 17 2 49 6 70 9
20 3 73 8 117 11 44 3 82 7 84 9 4 5 524 -3 571 -9z m-1697 -287 c10 -12 15
-28 12 -39 -3 -10 -7 -27 -9 -37 -8 -36 -38 -149 -52 -193 -39 -122 -86 -162
-359 -309 -69 -38 -281 -175 -295 -191 -3 -3 -27 -22 -55 -41 -27 -18 -52 -36
-55 -39 -3 -3 -36 -30 -75 -61 -38 -31 -97 -83 -130 -115 -113 -109 -218 -204
-300 -269 -27 -22 -52 -43 -53 -48 -2 -4 -13 -12 -24 -18 -11 -6 -18 -7 -15
-2 4 7 11 69 23 223 5 71 8 76 83 170 93 116 124 151 251 280 116 118 261 247
355 316 22 16 42 31 45 34 14 15 225 152 300 195 106 60 311 165 325 165 6 0
19 -9 28 -21z m1626 -104 c18 -4 50 -17 70 -29 39 -25 101 -89 101 -105 0 -5
3 -11 8 -13 4 -1 28 -32 54 -68 39 -56 44 -68 33 -83 -11 -16 -36 -9 -311 84
-164 55 -303 102 -309 103 -30 7 -92 30 -102 38 -23 18 -1 36 50 44 29 4 62 9
75 10 12 2 34 6 50 8 15 3 56 8 92 11 36 4 66 8 68 10 4 3 82 -3 121 -10z
m-860 -171 c12 -14 42 -34 66 -45 l43 -19 -40 -137 c-22 -76 -41 -142 -43
-148 -1 -5 -4 -17 -7 -25 -3 -8 -20 -67 -38 -130 -17 -63 -41 -146 -52 -185
-12 -38 -36 -122 -53 -185 l-32 -115 -61 1 c-56 2 -64 5 -89 34 -48 55 -133
183 -155 230 -22 49 -88 225 -93 250 -2 8 -7 33 -12 55 -30 135 23 238 160
305 50 24 356 137 378 139 3 1 16 -11 28 -25z m424 -11 c15 -7 27 -12 27 -9 0
2 29 -6 65 -19 36 -13 65 -21 65 -18 0 3 6 0 14 -6 8 -7 22 -13 32 -15 22 -5
110 -33 139 -45 11 -5 65 -23 120 -41 55 -17 107 -35 115 -39 9 -5 30 -12 47
-15 29 -7 31 -10 31 -54 1 -26 5 -60 11 -74 10 -26 8 -28 -62 -62 -40 -19 -79
-36 -87 -38 -20 -4 -334 -161 -395 -198 -27 -16 -57 -33 -65 -37 -8 -3 -111
-64 -228 -135 -118 -70 -218 -128 -223 -128 -5 0 -9 -4 -9 -8 0 -10 -71 -45
-77 -38 -3 2 3 31 12 63 9 32 17 59 17 60 -1 2 8 33 19 70 12 38 25 83 30 101
5 17 14 48 19 67 6 19 14 50 19 68 5 17 39 135 75 261 36 126 66 230 66 231 0
1 17 7 39 13 21 7 55 26 76 42 40 32 51 32 108 3z m-1381 -438 c16 -4 28 -8
28 -9 0 -4 -196 -389 -313 -615 l-74 -144 -41 -3 c-90 -7 -153 -69 -158 -156
-3 -59 14 -100 58 -139 l28 -26 -16 -74 c-8 -41 -17 -83 -20 -94 -2 -11 -28
-130 -56 -263 l-53 -244 -70 -3 c-39 -1 -89 -7 -112 -13 l-43 -10 -73 127
c-84 145 -134 245 -141 281 -1 3 -4 10 -7 15 -5 8 -29 75 -34 95 -1 3 -5 12
-8 20 -9 21 -37 124 -44 157 -13 68 -9 162 10 219 10 32 23 61 28 62 5 2 7 8
3 13 -3 5 0 9 5 9 6 0 11 6 11 13 0 20 181 199 355 351 17 15 39 34 50 44 53
47 198 165 265 215 41 31 80 61 87 66 38 33 128 82 179 99 56 18 95 20 156 7z
m2145 -32 c20 -16 39 -27 42 -25 12 5 8 -43 -10 -112 -11 -39 -21 -84 -24
-101 -3 -16 -10 -43 -15 -60 -5 -16 -12 -46 -15 -65 -3 -19 -11 -53 -16 -75
-6 -22 -11 -41 -11 -42 1 -2 -4 -17 -9 -35 -5 -18 -11 -44 -14 -58 -3 -14 -7
-34 -10 -45 -21 -86 -37 -153 -40 -170 -2 -11 -4 -20 -5 -20 -1 0 -3 -9 -5
-21 -3 -11 -23 -95 -45 -187 -22 -91 -40 -172 -40 -181 0 -18 5 -17 -83 -21
-129 -6 -234 -43 -341 -119 l-62 -44 -30 26 c-16 15 -61 54 -99 87 -84 73
-295 282 -295 293 0 4 5 23 11 42 14 48 11 143 -6 193 -8 23 -15 47 -15 53 0
26 152 162 305 275 96 70 343 219 475 286 52 26 97 50 100 53 10 10 195 99
208 99 7 1 30 -11 49 -26z m371 -5 c114 -78 171 -162 178 -263 6 -76 -9 -134
-62 -243 -44 -90 -236 -419 -332 -565 -25 -40 -51 -80 -57 -89 -52 -87 -81
-128 -90 -128 -6 0 -20 7 -31 15 -10 8 -24 15 -31 15 -6 0 -24 5 -40 12 -15 6
-34 12 -41 14 -8 1 -15 4 -17 6 -2 2 9 55 24 118 41 164 141 584 142 592 1 4
10 40 20 80 11 40 22 85 24 100 2 15 9 36 14 46 6 11 9 21 6 23 -2 3 9 54 24
114 l28 110 45 6 c45 7 121 40 133 59 9 14 11 13 63 -22z m-2292 -144 c43 -61
159 -265 203 -359 13 -27 28 -58 33 -68 7 -15 3 -28 -18 -59 -29 -42 -48 -53
-105 -62 -19 -3 -101 -19 -184 -37 -82 -17 -161 -33 -175 -35 -14 -2 -45 -9
-70 -14 -150 -34 -153 -34 -175 -10 l-20 22 40 76 c22 42 67 128 101 192 33
63 100 192 149 285 48 94 92 176 98 183 13 16 61 -28 123 -114z m2852 -176
c99 -42 162 -77 169 -94 3 -8 2 -22 -2 -31 -34 -78 13 -184 100 -224 24 -12
30 -20 28 -44 -2 -29 -6 -184 -18 -665 -7 -266 -17 -435 -30 -540 -2 -14 -4
-28 -4 -32 -1 -4 -15 -3 -31 2 -37 11 -27 11 -101 -6 -98 -23 -186 -91 -233
-182 -9 -17 -22 -32 -29 -32 -19 0 -304 101 -382 135 -16 8 -42 16 -57 20 -41
10 -49 25 -37 69 15 55 17 175 3 229 -7 26 -10 47 -8 47 2 0 -6 26 -18 58 -26
70 -93 175 -142 221 -20 19 -36 38 -36 43 0 4 40 81 89 170 48 90 101 188 117
218 16 30 31 57 34 60 3 3 22 39 44 80 21 41 67 127 102 191 35 64 64 122 64
128 0 6 4 11 8 11 5 0 17 17 26 38 23 51 83 116 131 141 58 31 120 27 213 -11z
m-2706 -515 l3 -58 -218 -220 c-248 -250 -311 -316 -382 -398 -97 -114 -131
-152 -185 -209 -55 -57 -55 -57 -86 -44 l-31 14 34 153 c19 85 36 165 38 179
7 41 25 122 37 169 6 24 12 53 12 65 1 11 4 26 7 31 4 6 9 27 13 48 5 28 12
37 27 37 50 0 154 108 134 140 -4 6 6 15 22 21 26 10 36 13 88 23 122 25 289
61 370 80 55 13 103 24 107 25 4 0 8 -25 10 -56z m168 -293 c34 -24 91 -41
162 -49 4 -1 5 -25 3 -53 -2 -29 -7 -98 -10 -153 -4 -55 -8 -116 -10 -135 -6
-62 -18 -254 -17 -273 0 -11 -12 -25 -30 -35 -79 -43 -135 -118 -141 -190 -2
-25 -4 -26 -122 -42 -44 -6 -91 -13 -105 -15 -14 -3 -47 -7 -75 -10 -27 -3
-61 -8 -75 -10 -26 -6 -34 -7 -165 -25 -44 -6 -89 -13 -101 -15 -17 -4 -23 3
-33 38 -7 23 -27 68 -44 100 l-32 58 24 42 c26 47 103 169 111 177 3 3 28 32
55 65 86 103 441 466 489 500 16 11 38 27 50 37 22 17 24 16 66 -12z m444 -41
c43 -29 87 -60 99 -70 12 -10 63 -51 112 -93 50 -41 106 -91 126 -113 l37 -38
-39 -78 c-21 -44 -38 -82 -38 -85 1 -4 0 -9 -1 -12 -6 -18 -24 -138 -22 -155
1 -5 3 -30 5 -55 10 -111 47 -211 114 -303 35 -48 56 -70 138 -140 l30 -26
-35 -68 c-19 -37 -49 -92 -66 -122 l-32 -53 -77 73 c-43 41 -124 119 -180 174
-56 55 -127 123 -158 152 l-55 52 5 61 c10 108 -55 213 -147 241 l-39 12 4 51
c3 28 7 80 11 116 9 102 13 151 18 210 2 30 7 87 11 125 3 39 8 90 10 114 3
24 6 44 7 45 2 0 17 8 33 18 17 9 35 17 41 17 6 1 46 -22 88 -50z m-2420 -166
c-3 -16 -25 -119 -49 -230 -25 -111 -46 -212 -49 -225 -2 -13 -18 -84 -35
-158 -16 -74 -32 -147 -35 -163 -2 -15 -7 -35 -9 -45 -3 -9 -8 -30 -11 -45 -4
-15 -10 -26 -14 -23 -4 3 -27 -4 -49 -14 -124 -55 -131 -239 -11 -301 21 -10
43 -19 50 -19 7 0 13 -12 13 -27 1 -16 4 -59 9 -98 4 -38 9 -86 11 -105 3 -19
7 -57 10 -85 4 -27 8 -70 10 -95 2 -25 6 -65 9 -90 2 -25 7 -72 11 -105 3 -33
8 -73 10 -90 5 -39 15 -128 20 -185 2 -25 7 -66 10 -92 3 -34 2 -48 -7 -48
-24 0 -104 98 -140 170 -101 205 -211 471 -221 537 -3 17 -7 35 -10 40 -28 45
-26 499 3 653 5 30 11 64 13 75 24 136 125 344 285 580 65 96 163 215 178 215
1 0 0 -12 -2 -27z m167 -103 c60 -126 76 -165 77 -180 0 -3 31 -67 69 -142
l68 -137 -23 -28 c-51 -63 -99 -172 -104 -236 -1 -16 -7 -32 -13 -37 -5 -4
-71 -28 -145 -53 l-135 -45 -31 30 c-18 16 -30 37 -28 46 19 82 64 294 69 322
3 19 8 43 11 52 7 22 17 71 28 131 2 12 10 45 16 72 12 50 17 73 24 110 2 11
14 63 25 115 12 52 21 97 21 100 1 14 35 -43 71 -120z m3789 -715 c282 -87
376 -118 387 -128 6 -7 14 -32 16 -57 3 -25 11 -61 20 -82 l15 -36 -66 -43
c-37 -23 -110 -70 -162 -104 -52 -34 -144 -92 -205 -130 -60 -37 -119 -76
-130 -85 -11 -9 -27 -19 -35 -22 -8 -3 -66 -39 -128 -79 -160 -105 -193 -125
-206 -120 -23 8 -82 8 -105 -1 -21 -7 -33 1 -108 74 -148 144 -167 161 -239
230 l-71 66 58 103 c33 56 59 106 59 111 0 4 3 8 8 8 4 0 13 14 20 30 15 32
18 33 97 11 22 -5 49 -10 60 -10 11 0 39 -1 61 -1 185 -5 393 108 500 270 24
36 28 38 52 28 15 -5 61 -20 102 -33z m-1960 -42 c23 -24 59 -48 81 -54 41
-13 46 -23 53 -109 4 -50 14 -134 21 -190 3 -19 8 -62 11 -95 4 -33 8 -73 10
-90 2 -16 6 -52 9 -80 3 -27 7 -63 9 -80 2 -16 7 -64 11 -105 4 -41 9 -83 11
-94 2 -10 6 -42 9 -71 l7 -53 -46 -20 c-56 -25 -133 -78 -161 -110 l-20 -23
-59 41 c-59 41 -135 102 -186 148 -14 13 -53 46 -88 75 -61 51 -62 52 -56 94
9 58 -3 97 -39 136 -42 44 -89 57 -149 42 l-46 -11 -64 65 c-67 69 -91 99
-128 165 -21 39 -21 39 -2 65 50 69 89 178 93 267 2 36 7 45 23 49 33 6 176
25 231 30 28 2 64 6 80 9 17 3 53 8 80 11 28 3 61 7 75 10 14 2 52 6 85 10 32
3 61 7 62 9 12 12 47 -5 83 -41z m540 -191 c69 -66 159 -152 200 -190 74 -70
74 -71 60 -99 -70 -136 -287 -500 -304 -511 -6 -4 -48 -7 -93 -7 -68 -1 -83 2
-84 15 0 8 -3 24 -5 35 -2 11 -6 43 -8 70 -2 28 -7 64 -10 80 -3 17 -8 59 -11
95 -3 36 -7 79 -9 95 -3 17 -7 55 -10 85 -3 30 -8 71 -11 90 -3 19 -7 60 -10
90 -3 30 -8 71 -10 90 -2 19 -7 60 -10 90 -3 30 -8 63 -11 72 -4 13 6 23 39
38 25 12 53 30 63 41 20 22 -9 46 224 -179z m-2285 46 c12 -69 55 -166 98
-221 22 -29 45 -55 50 -58 6 -4 2 -21 -8 -40 -136 -261 -203 -417 -270 -634
-42 -138 -79 -220 -111 -253 -14 -14 -19 4 -30 113 -3 33 -7 71 -9 85 -1 14
-6 54 -9 90 -4 36 -9 81 -11 100 -3 19 -7 60 -10 90 -7 81 -14 140 -20 185 -3
22 -8 63 -10 90 -1 28 -6 68 -9 90 -20 148 -21 139 27 187 31 32 46 56 53 88
l9 45 120 42 c66 23 123 42 127 42 3 1 9 -18 13 -41z m855 -380 c25 -22 82
-75 127 -117 l81 -77 -4 -59 c-2 -33 -7 -61 -12 -63 -4 -1 -74 -45 -155 -98
-82 -53 -151 -94 -153 -91 -3 2 -6 13 -8 23 -24 120 -48 244 -51 264 -2 14 -7
36 -10 50 -10 43 -25 122 -25 131 0 5 6 9 13 9 6 0 41 16 77 34 36 19 67 35
70 35 3 0 25 -18 50 -41z m-370 -45 c47 -3 86 -6 86 -7 1 0 4 -19 7 -41 3 -22
17 -95 31 -161 13 -67 27 -137 30 -155 3 -19 10 -52 16 -74 18 -75 18 -75 -98
-148 -59 -38 -146 -94 -195 -125 -317 -206 -467 -302 -472 -302 -5 0 2 104 10
150 12 66 58 201 97 290 106 241 138 308 231 482 28 53 66 110 81 120 5 3 27
-1 50 -9 23 -8 79 -17 126 -20z m2292 -93 c49 -47 126 -121 171 -165 l83 -80
-11 -39 c-11 -37 -24 -47 -220 -173 l-209 -135 -20 29 c-36 49 -98 113 -127
130 -16 9 -30 22 -33 29 -14 37 56 208 160 392 75 132 76 133 96 115 12 -10
61 -56 110 -103z m-1616 -265 c43 -15 83 -13 120 6 19 10 31 5 83 -32 34 -24
61 -47 61 -51 0 -4 5 -8 11 -8 6 0 26 -12 43 -27 18 -16 52 -44 76 -63 53 -43
105 -97 121 -126 9 -18 7 -33 -14 -85 -14 -35 -28 -85 -32 -112 l-7 -47 -72
-21 c-39 -11 -100 -29 -136 -40 -36 -10 -130 -37 -210 -59 -80 -23 -150 -43
-156 -45 -7 -2 -28 12 -49 30 -36 34 -106 54 -140 41 -10 -3 -16 2 -20 17 -12
53 -27 124 -31 147 -3 14 -14 72 -25 130 -11 58 -21 110 -22 117 -2 10 333
239 353 242 3 0 24 -6 46 -14z m-457 -327 c7 -35 14 -72 16 -83 2 -11 7 -36
10 -55 4 -19 15 -77 25 -129 17 -85 18 -96 4 -124 -45 -86 -1 -191 92 -218 24
-8 44 -18 45 -24 1 -15 3 -25 59 -225 71 -257 81 -293 85 -310 2 -8 11 -40 20
-70 8 -30 17 -62 19 -70 2 -9 -15 -25 -43 -42 -25 -14 -56 -36 -68 -47 -12
-12 -34 -21 -48 -21 -33 0 -165 45 -214 73 -42 24 -180 127 -231 171 -72 64
-258 253 -300 306 -25 30 -52 64 -62 75 -87 98 -208 294 -208 337 0 7 15 23
33 35 81 53 243 158 250 161 11 5 200 129 212 139 6 5 17 12 25 16 8 4 69 42
135 86 66 44 123 80 126 80 4 1 12 -27 18 -61z m925 -355 c9 -47 35 -121 53
-148 7 -11 13 -27 13 -37 0 -20 -66 -186 -81 -205 -6 -7 -9 -13 -5 -13 5 0
-74 -157 -123 -242 -98 -173 -142 -243 -174 -281 -36 -42 -40 -44 -75 -36 -20
4 -39 6 -43 3 -11 -6 -25 18 -37 61 -5 22 -20 74 -31 115 -12 41 -24 89 -27
105 -3 17 -10 37 -15 46 -4 9 -11 29 -14 45 -3 16 -14 63 -25 104 -12 41 -23
82 -25 90 -2 8 -4 16 -4 18 -1 1 -2 5 -3 10 -1 4 -9 33 -19 64 l-17 58 28 30
c16 17 34 46 40 65 7 21 18 35 28 35 8 0 29 5 46 11 47 16 479 137 492 138 7
1 15 -16 18 -36z m-1738 -413 c50 -19 111 -70 255 -212 179 -175 222 -214 397
-353 7 -5 18 -15 25 -20 7 -6 73 -55 147 -110 74 -55 140 -104 145 -110 6 -5
10 -32 11 -60 1 -54 5 -76 21 -115 6 -14 12 -29 13 -35 6 -18 92 -104 110
-110 13 -4 16 -12 12 -28 -3 -12 -8 -24 -11 -27 -3 -3 -17 -27 -31 -55 -28
-55 -54 -86 -87 -104 -20 -10 -31 -6 -90 31 -91 57 -237 160 -241 170 -2 4 -8
8 -14 8 -6 0 -33 19 -62 43 -28 23 -55 45 -61 50 -81 62 -376 351 -468 459
-79 92 -180 230 -205 279 -23 45 -45 159 -31 159 4 0 5 9 2 19 -3 11 7 46 22
79 l27 60 44 -5 c24 -2 56 -8 70 -13z"/>
</g>
</svg>
